<?xml version="1.0" standalone="no"?>
<!DOCTYPE svg PUBLIC "-//W3C//DTD SVG 20010904//EN"
 "http://www.w3.org/TR/2001/REC-SVG-20010904/DTD/svg10.dtd">
<svg version="1.0" xmlns="http://www.w3.org/2000/svg"
 width="1280.000000pt" height="1280.000000pt" viewBox="0 0 1280.000000 1280.000000"
 preserveAspectRatio="xMidYMid meet">
<metadata>
Created by potrace 1.14, written by Peter Selinger 2001-2017
</metadata>
<g transform="translate(0.000000,1280.000000) scale(0.100000,-0.100000)"
fill="#000000" stroke="none">
<path d="M11196 9265 c-855 -121 -1448 -691 -1571 -1510 -48 -323 -20 -686 75
-977 149 -452 460 -809 884 -1013 254 -122 514 -185 836 -201 461 -22 930 140
1214 419 81 81 166 181 166 197 0 5 -141 113 -312 241 -172 127 -319 237 -326
242 -9 7 -17 4 -29 -14 -35 -50 -160 -173 -217 -211 -220 -151 -527 -187 -799
-94 -345 118 -601 438 -673 840 -22 123 -22 352 0 476 70 393 308 702 639 830
192 74 421 86 625 34 124 -32 288 -128 366 -214 20 -23 41 -40 45 -38 17 6
600 483 600 491 1 4 -41 49 -91 100 -150 150 -324 256 -537 327 -209 70 -286
82 -556 86 -169 2 -269 -1 -339 -11z"/>
<path d="M0 7425 l0 -1775 1250 0 1250 0 0 365 0 365 -855 0 -855 0 0 355 0
355 765 0 765 0 0 365 0 365 -765 0 -765 0 0 325 0 325 810 0 810 0 -2 363 -3
362 -1202 3 -1203 2 0 -1775z"/>
<path d="M4280 9179 c-16 -29 -1521 -3502 -1523 -3514 -1 -7 148 -10 432 -10
l434 0 146 372 146 372 685 1 686 0 99 -242 c54 -134 123 -303 153 -375 l54
-133 444 0 c244 0 444 2 444 5 0 3 -107 252 -239 553 -131 301 -476 1092 -766
1757 -290 666 -532 1216 -538 1223 -7 9 -85 12 -328 12 -311 0 -319 0 -329
-21z"/>
<path d="M6867 9193 c-4 -3 -7 -802 -7 -1775 l0 -1768 393 2 392 3 3 688 2
687 745 0 745 0 0 365 0 365 -745 0 -745 0 0 355 0 355 795 0 795 0 -2 363 -3
362 -1181 3 c-649 1 -1184 -1 -1187 -5z"/>
<path d="M7002 5010 c-211 -55 -366 -215 -422 -436 -98 -381 166 -750 550
-771 165 -9 308 40 421 145 l61 56 -33 29 c-19 15 -50 39 -71 53 l-36 25 -47
-46 c-111 -111 -295 -137 -451 -64 -70 34 -146 109 -182 181 -39 79 -51 134
-52 223 0 190 92 351 247 427 64 31 74 33 173 33 122 -1 170 -17 244 -85 l45
-42 60 46 c33 26 63 52 67 58 11 17 -86 102 -150 132 -122 58 -287 72 -424 36z"/>
<path d="M12320 5015 c-110 -31 -194 -100 -239 -195 -21 -45 -25 -69 -25 -136
0 -99 30 -170 98 -232 56 -51 95 -71 231 -117 125 -41 198 -78 219 -109 75
-115 -40 -266 -203 -266 -79 0 -148 26 -202 77 l-49 46 -65 -57 c-72 -64 -73
-71 -14 -120 75 -63 201 -106 316 -106 179 0 319 78 384 215 25 52 29 71 29
150 0 104 -17 151 -74 209 -43 43 -127 87 -211 110 -191 54 -268 105 -280 187
-9 58 18 126 61 156 97 67 253 55 339 -27 l30 -28 63 58 c55 49 63 60 54 77
-15 27 -80 70 -143 95 -73 27 -241 34 -319 13z"/>
<path d="M0 4415 l0 -585 80 0 80 0 2 472 3 473 320 -473 320 -472 105 2 105
3 0 580 0 580 -82 3 -83 3 -2 -472 -3 -472 -316 469 -316 469 -106 3 -107 3 0
-586z"/>
<path d="M1651 4958 c-10 -24 -125 -283 -255 -577 -130 -294 -236 -538 -236
-542 0 -5 42 -9 94 -9 l94 0 20 48 c11 26 37 91 58 144 l39 98 272 0 271 0 30
-72 c16 -40 43 -104 59 -143 l29 -70 97 -3 c53 -1 97 1 96 5 0 4 -112 267
-248 583 l-248 575 -77 3 -76 3 -19 -43z m194 -438 c52 -129 95 -238 95 -242
0 -5 -93 -8 -206 -8 -182 0 -205 2 -200 16 66 171 201 483 207 477 4 -4 51
-114 104 -243z"/>
<path d="M2450 4415 l0 -585 85 0 85 0 0 468 0 467 193 -468 192 -468 58 3 58
3 189 458 c103 252 191 461 194 464 3 4 6 -204 6 -460 l0 -467 80 0 80 0 0
585 0 586 -122 -3 -121 -3 -180 -433 c-99 -238 -183 -429 -187 -425 -4 4 -88
200 -186 435 l-179 428 -122 0 -123 0 0 -585z"/>
<path d="M3932 4573 c3 -420 3 -429 26 -485 50 -123 153 -222 274 -265 79 -27
244 -24 319 5 131 52 228 156 269 289 19 61 20 93 20 474 l0 409 -84 0 -85 0
-3 -412 c-3 -395 -4 -415 -24 -459 -52 -111 -140 -169 -259 -169 -131 0 -226
71 -265 198 -18 59 -20 94 -20 453 l0 389 -85 0 -86 0 3 -427z"/>
<path d="M5110 4416 l0 -586 85 0 85 0 0 255 0 255 83 0 82 0 146 -252 146
-253 102 -3 c55 -1 101 1 101 5 0 5 -71 123 -159 263 l-158 255 37 11 c91 29
167 89 208 168 24 45 27 61 26 146 0 67 -6 106 -18 133 -27 61 -90 121 -159
153 l-62 29 -272 3 -273 4 0 -586z m529 404 c56 -32 81 -78 81 -150 0 -77 -24
-119 -86 -150 -45 -23 -63 -25 -201 -28 l-153 -4 0 182 0 182 158 -4 c145 -3
160 -5 201 -28z"/>
<path d="M7903 4427 c-139 -315 -253 -578 -253 -585 0 -9 27 -12 93 -12 l93 0
58 145 58 145 272 0 272 0 58 -145 59 -145 93 0 c65 0 94 4 94 12 0 6 -111
269 -246 585 l-246 573 -77 0 -76 0 -252 -573z m422 108 c54 -132 100 -246
102 -252 4 -10 -41 -13 -205 -13 l-209 0 105 255 c58 140 107 254 108 252 1
-1 46 -110 99 -242z"/>
<path d="M8920 4415 l0 -585 234 0 c277 0 350 11 473 70 212 103 338 323 320
561 -17 222 -153 421 -334 489 -113 43 -175 50 -440 50 l-253 0 0 -585z m590
397 c73 -29 146 -86 187 -146 49 -72 68 -144 68 -262 0 -96 -2 -103 -37 -176
-84 -170 -227 -238 -500 -238 l-138 0 0 426 0 426 183 -4 c158 -4 189 -7 237
-26z"/>
<path d="M10170 4415 l0 -585 395 0 396 0 -3 78 -3 77 -307 3 -308 2 0 180 0
180 275 0 276 0 -3 78 -3 77 -272 3 -273 2 0 165 0 165 293 2 292 3 3 78 3 77
-381 0 -380 0 0 -585z"/>
<path d="M11040 4920 l0 -80 185 0 185 0 0 -505 0 -505 85 0 85 0 0 505 0 505
188 2 187 3 3 78 3 77 -461 0 -460 0 0 -80z"/>
<path d="M6027 4304 c-4 -4 -7 -38 -7 -76 l0 -68 210 0 211 0 -3 73 -3 72
-201 3 c-110 1 -203 -1 -207 -4z"/>
</g>
</svg>
