<?xml version="1.0" encoding="UTF-8"?><svg xmlns="http://www.w3.org/2000/svg" id="Calque_1" data-name="Calque 1" width="2257" height="646.08" version="1.1" viewBox="0 0 2257 646.08"><defs><style> .cls-1 { fill: #164194; } .cls-1, .cls-2 { stroke-width: 0px; } .cls-3 { font-size: 36.12px; } .cls-3, .cls-4, .cls-5, .cls-6, .cls-2 { fill: #fff; } .cls-3, .cls-5 { font-family: Arial-BoldMT, Arial; font-weight: 700; } .cls-4 { font-size: 26.43px; } .cls-4, .cls-6 { font-family: ArialMT, Arial; } .cls-5 { font-size: 24.49px; } .cls-6 { font-size: 31.61px; } </style></defs><g><rect class="cls-1" x="19.64" y="25.57" width="715.6" height="477.07"/><g><polygon class="cls-2" points="362.19 129.52 377.29 118.5 392.4 129.52 386.65 111.69 401.99 100.68 383.08 100.68 377.29 82.64 371.51 100.69 352.61 100.68 367.94 111.69 362.19 129.52"/><polygon class="cls-2" points="284.05 150.51 299.15 139.49 314.24 150.51 308.51 132.69 323.83 121.67 304.93 121.67 299.14 103.61 293.36 121.69 274.46 121.67 289.79 132.69 284.05 150.51"/><polygon class="cls-2" points="241.98 160.92 236.19 179 217.29 178.98 232.62 189.99 226.87 207.82 241.98 196.8 257.08 207.82 251.33 189.99 266.66 178.98 247.76 178.98 241.98 160.92"/><polygon class="cls-2" points="221 274.84 236.09 285.86 230.35 268.04 245.68 257.02 226.79 257.02 221 238.96 215.21 257.06 196.31 257.02 211.65 268.04 205.9 285.86 221 274.84"/><polygon class="cls-2" points="247.76 335.3 241.98 317.24 236.19 335.32 217.29 335.3 232.62 346.32 226.87 364.14 241.98 353.1 257.08 364.14 251.33 346.32 266.66 335.3 247.76 335.3"/><polygon class="cls-2" points="305.05 392.59 299.26 374.55 293.48 392.6 274.58 392.59 289.91 403.6 284.17 421.43 299.27 410.41 314.36 421.43 308.62 403.6 323.95 392.59 305.05 392.59"/><polygon class="cls-2" points="383.09 413.34 377.3 395.29 371.53 413.36 352.62 413.34 367.95 424.36 362.21 442.18 377.31 431.16 392.41 442.18 386.66 424.36 402 413.34 383.09 413.34"/><polygon class="cls-2" points="461.14 392.59 455.36 374.55 449.56 392.6 430.68 392.59 446 403.6 440.26 421.43 455.36 410.41 470.46 421.43 464.7 403.6 480.04 392.59 461.14 392.59"/><polygon class="cls-2" points="518.44 335.3 512.65 317.24 506.85 335.32 487.96 335.3 503.3 346.32 497.55 364.14 512.65 353.1 527.75 364.14 521.99 346.32 537.33 335.3 518.44 335.3"/><polygon class="cls-2" points="558.08 256.8 539.18 256.8 533.38 238.75 527.61 256.82 508.7 256.8 524.04 267.82 518.3 285.64 533.38 274.6 548.48 285.64 542.75 267.82 558.08 256.8"/><polygon class="cls-2" points="497.55 207.58 512.65 196.56 527.75 207.58 521.99 189.76 537.33 178.76 518.44 178.76 512.65 160.7 506.85 178.78 487.96 178.76 503.3 189.76 497.55 207.58"/><polygon class="cls-2" points="455.58 106.63 449.8 124.71 430.9 124.67 446.21 135.71 440.48 153.53 455.6 142.49 470.68 153.53 464.94 135.71 480.28 124.67 461.35 124.67 455.58 106.63"/></g></g><text class="cls-6" transform="translate(203.64 541.71)"><tspan x="0" y="0">UNION EUROPÉENNE</tspan></text><text class="cls-3" transform="translate(172.95 581.48)"><tspan x="0" y="0">Fonds social européen</tspan></text><g><rect class="cls-1" x="770.7" y="25.57" width="715.6" height="477.07"/><g><polygon class="cls-2" points="1113.25 129.52 1128.35 118.5 1143.45 129.52 1137.71 111.69 1153.04 100.68 1134.14 100.68 1128.35 82.64 1122.57 100.69 1103.67 100.68 1119 111.69 1113.25 129.52"/><polygon class="cls-2" points="1035.11 150.51 1050.21 139.49 1065.3 150.51 1059.56 132.69 1074.89 121.67 1055.99 121.67 1050.2 103.61 1044.41 121.69 1025.52 121.67 1040.85 132.69 1035.11 150.51"/><polygon class="cls-2" points="993.03 160.92 987.25 179 968.35 178.98 983.68 189.99 977.93 207.82 993.03 196.8 1008.13 207.82 1002.39 189.99 1017.71 178.98 998.82 178.98 993.03 160.92"/><polygon class="cls-2" points="972.06 274.84 987.15 285.86 981.41 268.04 996.74 257.02 977.84 257.02 972.06 238.96 966.27 257.06 947.37 257.02 962.7 268.04 956.96 285.86 972.06 274.84"/><polygon class="cls-2" points="998.82 335.3 993.03 317.24 987.25 335.32 968.35 335.3 983.68 346.32 977.93 364.14 993.03 353.1 1008.13 364.14 1002.39 346.32 1017.71 335.3 998.82 335.3"/><polygon class="cls-2" points="1056.1 392.59 1050.32 374.55 1044.54 392.6 1025.64 392.59 1040.96 403.6 1035.23 421.43 1050.33 410.41 1065.42 421.43 1059.68 403.6 1075.01 392.59 1056.1 392.59"/><polygon class="cls-2" points="1134.15 413.34 1128.36 395.29 1122.59 413.36 1103.68 413.34 1119.01 424.36 1113.27 442.18 1128.37 431.16 1143.46 442.18 1137.72 424.36 1153.05 413.34 1134.15 413.34"/><polygon class="cls-2" points="1212.19 392.59 1206.42 374.55 1200.62 392.6 1181.74 392.59 1197.05 403.6 1191.32 421.43 1206.42 410.41 1221.52 421.43 1215.76 403.6 1231.1 392.59 1212.19 392.59"/><polygon class="cls-2" points="1269.5 335.3 1263.7 317.24 1257.91 335.32 1239.02 335.3 1254.36 346.32 1248.6 364.14 1263.7 353.1 1278.8 364.14 1273.05 346.32 1288.38 335.3 1269.5 335.3"/><polygon class="cls-2" points="1309.14 256.8 1290.24 256.8 1284.44 238.75 1278.66 256.82 1259.76 256.8 1275.1 267.82 1269.36 285.64 1284.44 274.6 1299.54 285.64 1293.8 267.82 1309.14 256.8"/><polygon class="cls-2" points="1248.6 207.58 1263.7 196.56 1278.8 207.58 1273.05 189.76 1288.38 178.76 1269.5 178.76 1263.7 160.7 1257.91 178.78 1239.02 178.76 1254.36 189.76 1248.6 207.58"/><polygon class="cls-2" points="1206.63 106.63 1200.86 124.71 1181.95 124.67 1197.27 135.71 1191.53 153.53 1206.65 142.49 1221.73 153.53 1216 135.71 1231.33 124.67 1212.41 124.67 1206.63 106.63"/></g></g><text class="cls-6" transform="translate(954.7 541.71)"><tspan x="0" y="0">UNION EUROPÉENNE</tspan></text><text class="cls-3" transform="translate(924.01 581.48)"><tspan x="0" y="0">Fonds social européen</tspan></text><text class="cls-4" transform="translate(926.42 617.21)"><tspan x="0" y="0">Initiative pour l'emploi des jeunes</tspan></text><g><rect class="cls-1" x="1521.76" y="25.57" width="715.6" height="477.07"/><g><polygon class="cls-2" points="1864.31 129.52 1879.41 118.5 1894.51 129.52 1888.76 111.69 1904.1 100.68 1885.2 100.68 1879.41 82.64 1873.62 100.69 1854.73 100.68 1870.05 111.69 1864.31 129.52"/><polygon class="cls-2" points="1786.17 150.51 1801.27 139.49 1816.36 150.51 1810.62 132.69 1825.95 121.67 1807.04 121.67 1801.26 103.61 1795.47 121.69 1776.58 121.67 1791.9 132.69 1786.17 150.51"/><polygon class="cls-2" points="1744.09 160.92 1738.3 179 1719.41 178.98 1734.73 189.99 1728.99 207.82 1744.09 196.8 1759.19 207.82 1753.44 189.99 1768.77 178.98 1749.87 178.98 1744.09 160.92"/><polygon class="cls-2" points="1723.11 274.84 1738.2 285.86 1732.47 268.04 1747.79 257.02 1728.9 257.02 1723.11 238.96 1717.33 257.06 1698.42 257.02 1713.76 268.04 1708.01 285.86 1723.11 274.84"/><polygon class="cls-2" points="1749.87 335.3 1744.09 317.24 1738.3 335.32 1719.41 335.3 1734.73 346.32 1728.99 364.14 1744.09 353.1 1759.19 364.14 1753.44 346.32 1768.77 335.3 1749.87 335.3"/><polygon class="cls-2" points="1807.16 392.59 1801.37 374.55 1795.6 392.6 1776.69 392.59 1792.02 403.6 1786.28 421.43 1801.38 410.41 1816.47 421.43 1810.74 403.6 1826.07 392.59 1807.16 392.59"/><polygon class="cls-2" points="1885.21 413.34 1879.42 395.29 1873.64 413.36 1854.74 413.34 1870.06 424.36 1864.33 442.18 1879.43 431.16 1894.52 442.18 1888.77 424.36 1904.11 413.34 1885.21 413.34"/><polygon class="cls-2" points="1963.25 392.59 1957.47 374.55 1951.68 392.6 1932.79 392.59 1948.11 403.6 1942.37 421.43 1957.47 410.41 1972.57 421.43 1966.82 403.6 1982.15 392.59 1963.25 392.59"/><polygon class="cls-2" points="2020.55 335.3 2014.76 317.24 2008.96 335.32 1990.08 335.3 2005.42 346.32 1999.66 364.14 2014.76 353.1 2029.86 364.14 2024.1 346.32 2039.44 335.3 2020.55 335.3"/><polygon class="cls-2" points="2060.2 256.8 2041.29 256.8 2035.5 238.75 2029.72 256.82 2010.82 256.8 2026.15 267.82 2020.42 285.64 2035.5 274.6 2050.6 285.64 2044.86 267.82 2060.2 256.8"/><polygon class="cls-2" points="1999.66 207.58 2014.76 196.56 2029.86 207.58 2024.1 189.76 2039.44 178.76 2020.55 178.76 2014.76 160.7 2008.96 178.78 1990.08 178.76 2005.42 189.76 1999.66 207.58"/><polygon class="cls-2" points="1957.69 106.63 1951.91 124.71 1933.01 124.67 1948.33 135.71 1942.59 153.53 1957.71 142.49 1972.79 153.53 1967.05 135.71 1982.39 124.67 1963.47 124.67 1957.69 106.63"/></g></g><text class="cls-6" transform="translate(1705.75 541.71)"><tspan x="0" y="0">UNION EUROPÉENNE</tspan></text><text class="cls-5" transform="translate(1547.93 578.68)"><tspan x="0" y="0">Avec le soutien du Fonds Asile, Migration et Intégration</tspan></text></svg>