<?xml version="1.0" encoding="UTF-8"?><svg xmlns="http://www.w3.org/2000/svg" id="Calque_1" data-name="Calque 1" width="29.7cm" height="7.31cm" version="1.1" viewBox="0 0 841.89 207.28"><defs><style> .cls-1 { fill: #fff; stroke-width: 0px; } </style></defs><g><path class="cls-1" d="M801.8,160.68c-1.11-1.39-3.25-2.92-6.44-4.6l-.71-.4c-1.68-.87-2.81-1.6-3.38-2.19-.57-.59-.86-1.32-.86-2.21,0-1.08.32-1.89.94-2.43.63-.54,1.57-.82,2.83-.82,1.03,0,1.94.19,2.73.57.79.38,1.53,1,2.24,1.85l3.25-3.06-.33-.33c-1.02-1.02-2.2-1.8-3.54-2.34-1.34-.54-2.8-.8-4.34-.8-2.57,0-4.6.67-6.1,2.01-1.49,1.34-2.25,3.17-2.25,5.49,0,.95.13,1.81.4,2.59.26.77.66,1.47,1.2,2.11.58.67,1.36,1.36,2.34,2.05.98.69,2.22,1.43,3.72,2.24l.73.38c1.88.99,3.11,1.88,3.71,2.66.61.79.9,1.69.9,2.72,0,1.25-.4,2.25-1.19,2.98-.79.73-1.87,1.09-3.25,1.09-1.15,0-2.2-.26-3.17-.79-.96-.52-2.04-1.42-3.22-2.69l-3.19,3.27.32.29c1.45,1.45,2.91,2.49,4.37,3.13,1.46.63,3.12.95,4.99.95,2.76,0,4.96-.74,6.58-2.23,1.61-1.48,2.42-3.51,2.42-6.09,0-2.21-.56-4.01-1.67-5.39M764.88,169.29c-.26,0-.46.03-.6.07-.14.05-.29.14-.44.26l-.14-.15c.11-.15.18-.3.24-.44.05-.15.08-.34.08-.59v-6.48c0-.21-.03-.39-.08-.55-.06-.16-.14-.32-.24-.46l.16-.17c.15.13.29.2.42.25.12.04.32.06.6.08h9.91v-4.45h-9.91c-.25,0-.44.02-.57.06-.13.04-.28.13-.46.27l-.16-.17c.13-.21.23-.38.27-.52.05-.14.07-.31.07-.5v-5.98c0-.21-.03-.39-.08-.55-.06-.16-.14-.32-.24-.49l.14-.16c.21.13.38.23.53.28.14.05.31.07.5.07h11.34l-.5-4.53h-16.4v29.36h16.36l.54-4.54h-11.34ZM740.62,169.29c-.26,0-.46.03-.6.07-.13.05-.27.14-.41.26l-.17-.17c.13-.14.22-.27.26-.4.05-.12.07-.33.07-.62v-24.02h-4.85v29.4h14.92l.72-4.54h-9.95ZM716.18,169.29c-.26,0-.47.03-.6.07-.14.05-.27.14-.42.26l-.16-.17c.13-.14.21-.27.25-.4.05-.12.08-.33.08-.62v-24.02h-4.84v29.4h14.92l.72-4.54h-9.95ZM688.69,169.29c-.26,0-.46.03-.6.07-.14.05-.28.14-.44.26l-.14-.15c.11-.15.19-.3.24-.44.06-.15.08-.34.08-.59v-6.48c0-.21-.03-.39-.08-.55-.05-.16-.14-.32-.24-.46l.16-.17c.15.13.29.2.41.25.13.04.32.06.6.08h9.91v-4.45h-9.91c-.25,0-.44.02-.57.06-.13.04-.29.13-.47.27l-.16-.17c.14-.21.23-.38.28-.52.04-.14.07-.31.07-.5v-5.98c0-.21-.03-.39-.08-.55-.05-.16-.14-.32-.24-.49l.14-.16c.21.13.38.23.53.28.15.05.32.07.51.07h11.33l-.5-4.53h-16.4v29.36h16.36l.54-4.54h-11.33ZM665.99,159.55c-.13-.26-.25-.43-.34-.51-.09-.07-.22-.14-.36-.17v-.17c.14-.04.27-.1.36-.17.09-.08.21-.25.34-.51l7.72-13.55h-5.3l-4.4,8.26c-.36.66-.6,1.2-.72,1.61-.13.41-.23,1.08-.29,1.98h-.21c-.07-.85-.17-1.5-.3-1.94-.13-.43-.37-.99-.73-1.66l-4.4-8.26h-5.29l7.67,13.55c.13.22.23.38.34.47.11.1.24.16.38.21v.17c-.15.04-.28.11-.38.21-.11.09-.21.25-.34.47l-7.96,14.28h5.34l4.65-8.94c.42-.8.68-1.41.79-1.84.12-.43.2-1.01.24-1.76h.21c.07.84.16,1.48.28,1.9.11.42.36.99.73,1.7l4.66,8.94h5.33l-8.01-14.28ZM643.1,144.47h-4.83v16.99c0,2.81-.56,4.92-1.69,6.3-1.13,1.39-2.84,2.08-5.13,2.08s-4-.7-5.13-2.08c-1.13-1.38-1.69-3.49-1.69-6.3v-16.99h-4.82v16.51c0,2.43.24,4.41.72,5.94.48,1.53,1.22,2.82,2.24,3.87,1.1,1.16,2.4,2.05,3.9,2.67,1.5.62,3.09.93,4.79.93s3.3-.31,4.79-.93c1.5-.62,2.8-1.51,3.9-2.67,1-1.05,1.75-2.34,2.24-3.87.49-1.52.72-3.51.72-5.94v-16.51ZM603.7,162.18c-.27-.4-.61-.78-1.01-1.13-.4-.35-.87-.69-1.41-1l.08-.15c.36.1.69.17.98.22.29.05.56.07.83.07,1.82,0,3.35-.72,4.6-2.16,1.24-1.44,1.87-3.21,1.87-5.31,0-2.68-.82-4.72-2.44-6.14-1.62-1.41-4.01-2.12-7.14-2.12h-7.76v29.36h4.63v-10.35c0-1.1-.03-1.91-.08-2.44-.06-.53-.16-1.13-.31-1.83l.2-.06c.23.62.47,1.16.71,1.61.25.45.65,1.07,1.22,1.87l7.53,11.19h5.26l-7.76-11.65ZM604.09,155.94c-.76.68-1.94,1.02-3.56,1.02h-2.85c-.26,0-.46.02-.59.07-.13.05-.27.13-.42.26l-.16-.16c.16-.18.27-.35.34-.5.06-.15.09-.33.09-.52v-6.72c-.05-.25-.11-.45-.17-.6-.06-.14-.14-.29-.25-.44l.16-.16c.18.13.33.23.45.26.12.04.31.06.56.06h2.85c1.6,0,2.79.34,3.55,1.02.76.69,1.14,1.74,1.14,3.18s-.37,2.53-1.13,3.22M580.56,160.55c-.98-1.21-2.34-1.97-4.06-2.28v-.25c1.45-.43,2.53-1.12,3.23-2.08.7-.96,1.06-2.22,1.06-3.78,0-2.5-.81-4.41-2.41-5.72-1.6-1.32-3.96-1.98-7.08-1.98h-8.2v29.36h8.82c3.17,0,5.64-.82,7.43-2.45,1.78-1.64,2.67-3.74,2.67-6.32,0-1.79-.49-3.29-1.47-4.5M575.31,155.46c-.74.71-1.79,1.07-3.15,1.07h-3.79c-.25,0-.43.03-.56.07-.13.05-.27.14-.45.28l-.16-.16s.04-.06.06-.11c.2-.32.31-.63.31-.93v-6.31c-.02-.2-.05-.36-.09-.49-.05-.13-.14-.3-.28-.52l.16-.16c.16.13.31.23.43.26.13.04.32.06.58.06h3.23c1.7,0,2.92.32,3.69.94.75.63,1.13,1.6,1.13,2.93s-.37,2.36-1.11,3.07M576.2,168.41c-.93.83-2.21,1.25-3.87,1.25h-3.91c-.25,0-.43.02-.56.07-.12.05-.27.14-.45.28l-.16-.18c.15-.2.24-.34.27-.46.04-.11.06-.3.06-.55v-7.57c0-.21-.02-.38-.06-.5-.03-.13-.13-.3-.27-.52l.16-.18c.18.14.33.23.45.28.13.05.31.07.56.07h3.74c1.05,0,1.89.1,2.53.3.63.2,1.19.55,1.66,1.04.38.41.69.9.91,1.46.22.55.33,1.13.33,1.72,0,1.49-.46,2.65-1.38,3.49M552.01,161.04h-10.16v4.34h10.16v-4.34ZM521.41,169.29c-.26,0-.46.03-.6.07-.14.05-.28.14-.44.26l-.15-.15c.12-.15.2-.3.25-.44.06-.15.08-.34.08-.59v-6.48c0-.21-.02-.39-.08-.55-.05-.16-.14-.32-.25-.46l.17-.17c.15.13.29.2.42.25.12.04.32.06.6.08h9.91v-4.45h-9.91c-.25,0-.44.02-.57.06-.13.04-.29.13-.46.27l-.17-.17c.14-.21.24-.38.28-.52.05-.14.07-.31.07-.5v-5.98c0-.21-.02-.39-.08-.55-.05-.16-.14-.32-.25-.49l.15-.16c.21.13.38.23.53.28.14.05.32.07.51.07h11.34l-.5-4.53h-16.41v29.36h16.37l.54-4.54h-11.34ZM503.88,144.42h-4.83v29.4h4.83v-29.4ZM487.06,144.47h-4.66v18.04c0,.84.07,1.71.21,2.62.14.9.37,1.99.69,3.28l-.21.04c-.38-1.12-.75-2.06-1.12-2.84-.36-.77-.8-1.52-1.29-2.26l-12.97-18.89h-4.32v29.36h4.67v-18.08c0-.77-.06-1.54-.17-2.31-.12-.78-.36-1.95-.72-3.54l.21-.04c.46,1.32.84,2.29,1.15,2.92.29.62.71,1.32,1.27,2.12l12.95,18.93h4.33v-29.36ZM449.07,148.16c-2.76-2.83-6.32-4.25-10.7-4.25s-7.72,1.43-10.46,4.3c-2.74,2.87-4.1,6.5-4.1,10.91s1.37,8.11,4.11,10.95c2.75,2.85,6.27,4.27,10.57,4.27s7.82-1.42,10.57-4.27c2.76-2.85,4.14-6.49,4.14-10.92s-1.38-8.16-4.14-11M445.63,166.83c-1.8,1.95-4.18,2.92-7.13,2.92s-5.33-.97-7.12-2.92c-1.8-1.95-2.7-4.51-2.7-7.72s.91-5.75,2.72-7.71c1.81-1.96,4.19-2.93,7.15-2.93s5.25.99,7.07,2.97c1.81,1.98,2.72,4.54,2.72,7.67s-.9,5.77-2.7,7.72M407.4,169.29c-.26,0-.47.03-.6.07-.13.05-.27.14-.41.26l-.16-.17c.12-.14.21-.27.26-.4.05-.12.08-.33.08-.62v-24.02h-4.84v29.4h14.92l.72-4.54h-9.95ZM382.95,169.29c-.26,0-.46.03-.6.07-.14.05-.28.14-.41.26l-.17-.17c.12-.14.21-.27.26-.4.04-.12.07-.33.07-.62v-24.02h-4.84v29.4h14.92l.73-4.54h-9.95ZM357.87,144.47h-4.2l-10.67,29.36h4.84l3.12-8.81h9.66l3.11,8.81h4.82l-10.67-29.36ZM359.48,160.89c-.15-.06-.3-.1-.43-.12-.14-.03-.3-.04-.5-.04h-5.57c-.18,0-.32.01-.44.03-.12.02-.27.06-.47.13l-.15-.21c.13-.1.22-.2.29-.29.07-.09.13-.23.19-.4l2.79-8.05c.12-.34.22-.83.3-1.46.08-.63.13-1.34.16-2.14h.23c.03.8.08,1.51.15,2.14.08.63.18,1.11.3,1.46l2.75,8.05c.05.17.12.3.19.4.08.09.19.19.32.29l-.12.21ZM333.55,144.47l-5.55,19.29c-.22.77-.37,1.46-.45,2.07-.08.61-.15,1.59-.19,2.96h-.25c-.14-1.42-.26-2.44-.37-3.04-.11-.61-.28-1.27-.52-1.98l-5.05-14.88-5.03,14.92c-.25.69-.43,1.34-.54,1.95-.11.61-.24,1.62-.37,3.04h-.25c-.04-1.38-.1-2.37-.18-2.96-.08-.6-.23-1.29-.46-2.07l-5.55-19.29h-5.13l8.9,29.36h4.37l3.66-11.73c.11-.37.21-.89.28-1.55.08-.66.14-1.47.18-2.42l.21-.02c.04.95.1,1.76.18,2.42.07.67.18,1.19.3,1.57l3.68,11.73h4.32l8.94-29.36h-5.13Z"/><path class="cls-1" d="M802.69,71.92h-8.45v32.76c0,1.53.13,3.11.37,4.75.25,1.64.66,3.62,1.24,5.95l-.38.07c-.7-2.03-1.38-3.74-2.04-5.14-.66-1.4-1.45-2.77-2.35-4.1l-23.55-34.3h-7.85v53.31h8.49v-32.83c0-1.4-.11-2.8-.32-4.21-.21-1.4-.64-3.54-1.29-6.42l.37-.07c.85,2.4,1.54,4.17,2.09,5.29.54,1.13,1.31,2.42,2.31,3.87l23.52,34.37h7.85v-53.31ZM734.2,78.63c-5-5.14-11.48-7.72-19.42-7.72s-14.02,2.61-18.99,7.81c-4.98,5.21-7.45,11.81-7.45,19.8s2.48,14.72,7.47,19.89c4.98,5.17,11.38,7.76,19.2,7.76s14.19-2.59,19.2-7.76c5-5.17,7.52-11.78,7.52-19.82s-2.51-14.82-7.52-19.97M727.95,112.53c-3.27,3.53-7.58,5.29-12.94,5.29s-9.67-1.77-12.94-5.29c-3.26-3.53-4.91-8.2-4.91-14.01s1.65-10.45,4.94-13.99c3.3-3.55,7.62-5.32,12.98-5.32s9.54,1.79,12.83,5.39c3.29,3.59,4.94,8.24,4.94,13.92s-1.63,10.48-4.9,14.01M669.8,71.84h-8.75v53.38h8.75v-53.38ZM643.93,71.92h-31.55l-1.12,8h11.04c.47,0,.84-.04,1.09-.13.25-.09.5-.25.75-.47l.34.3c-.28.4-.45.72-.53.96-.07.24-.11.53-.11.88v43.77h8.64v-43.77c0-.4-.04-.73-.13-.99-.09-.26-.25-.56-.47-.88l.3-.3c.32.25.6.42.83.51.22.09.56.13,1.01.13h11.08l-1.16-8ZM585.36,71.92h-7.63l-19.39,53.31h8.8l5.67-16h17.55l5.63,16h8.75l-19.38-53.31ZM588.29,101.75c-.28-.1-.54-.17-.79-.23-.25-.05-.55-.08-.91-.08h-10.1c-.33,0-.59.02-.8.06-.22.04-.5.12-.85.25l-.26-.37c.23-.18.4-.35.53-.53.13-.18.24-.41.34-.71l5.07-14.61c.23-.62.4-1.51.54-2.65.14-1.14.23-2.43.28-3.88h.42c.05,1.45.14,2.75.27,3.88.14,1.14.32,2.03.55,2.65l5,14.61c.1.3.22.54.35.71.14.18.33.35.58.53l-.22.37ZM531.06,104.07c-.5-.72-1.11-1.41-1.84-2.04-.72-.64-1.58-1.25-2.55-1.82l.15-.26c.65.17,1.25.31,1.77.4.52.09,1.03.13,1.5.13,3.31,0,6.09-1.31,8.36-3.93,2.26-2.62,3.4-5.83,3.4-9.64,0-4.86-1.48-8.57-4.43-11.14-2.95-2.57-7.27-3.85-12.96-3.85h-14.09v53.31h8.41v-18.78c0-2-.05-3.48-.15-4.43-.1-.95-.28-2.05-.56-3.31l.37-.11c.43,1.13.86,2.1,1.3,2.91.44.81,1.18,1.95,2.2,3.4l13.68,20.32h9.54l-14.09-21.15ZM531.78,92.75c-1.38,1.24-3.53,1.86-6.46,1.86h-5.18c-.48,0-.84.04-1.08.13-.24.09-.49.24-.77.47l-.3-.3c.3-.32.51-.62.62-.9.11-.28.17-.59.17-.94v-12.21c-.1-.45-.21-.81-.32-1.07-.11-.27-.27-.54-.47-.81l.3-.3c.33.25.6.42.83.49.23.07.56.11,1.02.11h5.18c2.91,0,5.05.62,6.44,1.86,1.4,1.24,2.09,3.16,2.09,5.77s-.69,4.6-2.07,5.84M473.37,55.51l-3.69,10.33h6.46l6.91-10.33h-9.69ZM471.37,117c-.47,0-.84.04-1.09.13-.25.09-.51.24-.79.47l-.25-.26c.19-.27.34-.54.44-.81.1-.26.15-.62.15-1.07v-11.76c0-.37-.05-.7-.15-.99-.1-.29-.25-.57-.44-.84l.29-.3c.27.23.53.38.75.45.23.07.59.13,1.09.15h17.99v-8.08h-17.99c-.45,0-.8.03-1.03.11-.24.08-.52.24-.85.49l-.3-.3c.25-.38.42-.69.5-.94.09-.25.14-.55.14-.9v-10.86c0-.38-.05-.71-.15-1-.1-.28-.25-.58-.44-.88l.25-.3c.38.25.7.42.96.51.26.09.57.13.92.13h20.59l-.9-8.23h-29.79v53.31h29.71l.98-8.22h-20.59ZM435.58,79.43c-5.32-5.01-12.05-7.51-20.21-7.51h-14.31v53.31h14.01c8.44,0,15.29-2.52,20.57-7.55,5.27-5.04,7.91-11.4,7.91-19.09s-2.66-14.15-7.96-19.16M429.46,111.99c-3.66,3.49-8.31,5.24-13.94,5.24h-4.2c-.5,0-.87.04-1.09.11-.23.08-.47.24-.75.49l-.34-.3c.27-.28.45-.52.52-.75.07-.23.11-.59.11-1.09v-34.22c0-.37-.04-.69-.13-.94-.09-.25-.26-.55-.51-.9l.34-.34c.33.25.6.42.83.51.23.09.56.13,1.01.13h4.62c5.46,0,9.99,1.76,13.6,5.28,3.61,3.52,5.41,7.98,5.41,13.39s-1.83,9.9-5.48,13.4M363.98,55.51l-3.68,10.33h6.46l6.91-10.33h-9.69ZM361.99,117c-.48,0-.84.04-1.09.13-.25.09-.51.24-.79.47l-.26-.26c.2-.27.35-.54.45-.81.1-.26.15-.62.15-1.07v-11.76c0-.37-.05-.7-.15-.99-.1-.29-.25-.57-.45-.84l.3-.3c.27.23.52.38.75.45.23.07.59.13,1.09.15h17.99v-8.08h-17.99c-.45,0-.79.03-1.03.11-.24.08-.52.24-.85.49l-.3-.3c.25-.38.42-.69.5-.94.09-.25.13-.55.13-.9v-10.86c0-.38-.05-.71-.15-1-.1-.28-.25-.58-.45-.88l.26-.3c.38.25.7.42.96.51.26.09.57.13.92.13h20.59l-.9-8.23h-29.79v53.31h29.71l.97-8.22h-20.59ZM334.43,71.92h-30.02v53.31h8.79v-21.53c0-.45-.04-.79-.13-1.03-.09-.24-.24-.52-.47-.84l.3-.3c.33.25.6.42.83.51.23.09.57.13,1.01.13h17.85v-8.08h-18c-.55,0-.93.03-1.13.11-.2.08-.45.23-.75.45l-.3-.26c.33-.38.54-.69.64-.94.1-.25.15-.55.15-.9v-10.78c-.1-.53-.2-.9-.3-1.13-.1-.23-.26-.46-.49-.71l.34-.3c.32.25.6.41.82.49.23.08.56.11,1.01.11h21.23l-1.39-8.3Z"/></g><path class="cls-1" d="M68.67,18.47c-5.75,0-9.68,3.16-9.91,5.3-.24,2.37,1.29,4.68,3.36,6.27,15.19,11.73-28.64,34.53-23.24,80.97,3.83,32.85,42.16,77.65,50.06,77.65.3,0,.56-.06.76-.2,6.11-3.9-17.96-46.92-23.47-61.12-12.24-31.87,6.24-52.25,13.45-64.11,9.46-15.59,11.78-30.36,4.38-37.49-5.63-5.45-11.04-7.26-15.4-7.26"/><path class="cls-1" d="M177.17,31.45c-.51,0-1.03.01-1.57.03-55.83,2.48-64,70.03-64.14,94.5,0,2.1.17,12.82-2.32,12.82-.51,0-1.12-.44-1.87-1.49-2.9-4.09-11.19-15.97-13.66-19.17-.71-.92-1.68-1.37-2.62-1.37-1.98,0-3.85,2.03-3,6.1.43,2.07,5.97,25.14,13.93,34.63,2.29,2.76,7.56,6.64,13,6.64s10.76-3.67,13.84-15.65c5.33-18.52-1-92.18,62.6-100.6,5.03-.67,6.97-6.56,4.01-10.03-2.09-2.45-8.48-6.41-18.2-6.41"/><path class="cls-1" d="M211.23,97.51c-2.01-.62-2.1-1.85-.62-4.04,2.54-3.74,12.92-26.31.13-38.15-1.04-.97-2.39-1.97-3.85-2.66-2.35-1.11-5.31.07-5.27,3.97.31,28.61-13.95,34.1-33.91,34.31h-2.37v13.15l17.67,1.2.32.03c19.09,1.48,30.58,13.93,30.58,28.27,0,17.25-14.52,28.39-30.57,28.39-5.33,0-10.79-1.09-15.21-3.81-.83-.52-1.96-1.32-2.83-1.97,0,2.23.02,28.06.02,28.06,6.09,2.86,13,4.56,21.94,4.56,25.7,0,57.84-18.69,57.84-51.35,0-17.02-14.31-33.9-33.85-39.95"/></svg>