<svg width="20" height="17" viewBox="0 0 20 17"  xmlns="http://www.w3.org/2000/svg">
<path d="M1.50794 16.309H2.9798C3.90332 16.309 4.50939 15.6595 4.50939 14.9676C4.50939 14.5651 4.33622 14.1486 3.92497 13.9439C5.2886 13.4073 6.13998 12.4965 6.41414 11.1763C7.47476 11.7834 9.06927 11.8752 10.7287 11.7058C10.7071 12.6801 10.5556 14.071 10.5556 14.6993C10.5556 15.7654 11.1183 16.3372 12.179 16.3372H13.4127C14.4949 16.3372 15.0722 15.6595 15.0722 14.8405C15.0722 14.2757 14.8196 13.6614 13.9538 13.3226C14.0044 12.6377 14.329 11.1128 14.5455 10.4844C14.9062 9.46064 15.6349 8.58521 15.6349 7.1449C15.6349 6.51655 15.7576 6.17766 15.8802 5.90231C16.3636 6.18472 16.8037 6.31886 17.316 6.31886C18.6364 6.31886 20 4.97037 20 3.55833C20 2.78171 18.9178 2.30868 18.3189 1.93449C17.6046 1.44734 17.1212 0.804863 16.3565 0.473032L16.14 1.46852C16.6811 1.7368 17.0707 2.27338 17.7056 2.68287C18.3838 3.12766 18.8817 3.17002 18.8817 3.67836C18.8817 4.40556 18.0809 5.21747 17.316 5.21747C16.8903 5.21747 16.5512 5.09039 15.9596 4.68796C15.6855 4.50439 15.404 4.53969 15.2381 4.79386C14.6898 5.57754 14.5166 6.2059 14.5166 7.1449C14.5166 8.18273 13.9105 8.8535 13.4632 10.1737C13.2251 10.908 12.8211 12.7436 12.8211 13.5768C12.8211 13.7815 12.8932 13.958 13.1529 14.0498C13.8456 14.2404 13.9467 14.5581 13.9467 14.7769C13.9467 15.0664 13.759 15.2076 13.4127 15.2076H12.215C11.8542 15.2076 11.6883 15.0241 11.6883 14.6498C11.6883 13.2943 11.9481 11.4587 11.9481 10.8021C11.9481 10.4844 11.6523 10.3149 11.3059 10.4279C9.3218 11.0774 7.27995 10.6467 6.14719 9.76421C5.82972 9.51009 5.46176 9.70066 5.46176 10.0396C5.46176 11.8894 4.55989 12.786 2.53247 13.2943C2.114 13.4073 2.114 14.0215 2.53247 14.0922C3.09524 14.1768 3.38384 14.431 3.38384 14.7769C3.38384 15.0523 3.16739 15.2076 2.84993 15.2076H1.64502C1.32757 15.2076 1.11833 14.9817 1.11833 14.6498V13.3014C1.11833 12.7648 1.33478 12.4471 2.31602 11.6846C3.06638 11.0986 3.27561 10.3008 3.27561 8.62049C3.27561 7.74505 3.38384 6.74953 3.76624 6.25532L2.72728 5.11157C2.39539 4.74444 2.89322 4.35613 3.21068 4.7162L4.20635 5.84583C4.33622 5.74698 4.52381 5.69051 4.77633 5.67639L10.8947 5.17511C13.6003 4.28553 13.4776 3.14178 14.329 2.27338L13.658 1.39792C12.179 2.71111 12.4892 3.45243 10.6638 4.08784L5.02886 4.55381C4.82684 4.56793 4.63925 4.58912 4.46609 4.6103L3.93939 3.99606C2.8355 2.71817 0.721501 4.27141 1.93362 5.68344L2.48918 6.33298C2.27273 6.97546 2.15008 7.74505 2.15008 8.62049C2.15008 10.1172 2.03464 10.5055 1.63059 10.8233C0.476191 11.7128 0 12.3765 0 13.3014V14.7699C0 15.6736 0.627706 16.309 1.50794 16.309ZM14.8702 3.23356C16.0462 3.23356 16.645 1.29907 16.645 0.748378C16.645 0.261227 16.3853 0 15.8658 0H13.8817C13.3622 0 13.0952 0.261227 13.0952 0.748378C13.0952 1.29907 13.7013 3.23356 14.8702 3.23356ZM14.8702 2.28044C14.5022 2.28044 14.2063 1.51088 14.127 1.08021C14.1126 1.00961 14.163 0.953121 14.2352 0.953121H15.5123C15.5845 0.953121 15.6349 1.00961 15.6205 1.08021C15.5412 1.51088 15.2381 2.28044 14.8702 2.28044ZM16.7388 3.67129C17.0346 3.67129 17.2727 3.43125 17.2727 3.13472C17.2727 2.83819 17.0346 2.61227 16.7388 2.61227C16.4358 2.61227 16.1977 2.83819 16.1977 3.13472C16.1977 3.43125 16.4358 3.67129 16.7388 3.67129Z"/>
</svg>
