<svg width="14" height="11" viewBox="0 0 14 11" xmlns="http://www.w3.org/2000/svg">
<path d="M14 5.50001C14 5.29608 13.9221 5.07416 13.6688 4.85224L8.54546 0.425846C8.20131 0.125955 7.98703 0 7.66884 0C7.2143 0 6.88963 0.32988 6.88963 0.731735V2.99891H1.62341C0.597432 2.99891 3.05176e-05 3.53872 3.05176e-05 4.46838V6.53763C3.05176e-05 7.46729 0.597432 8.0071 1.62341 8.0071H6.88963V10.2983C6.88963 10.7001 7.2143 11 7.65585 11C7.97404 11 8.23378 10.88 8.54546 10.6101L13.6688 6.14177C13.9156 5.92585 14 5.69794 14 5.50001ZM12.8312 5.50001C12.8312 5.53599 12.8182 5.56599 12.7663 5.61397L8.13638 9.65651C8.10391 9.69246 8.06495 9.71047 8.02599 9.71047C7.97404 9.71047 7.93508 9.67452 7.93508 9.62048V7.29935C7.93508 7.16141 7.87014 7.10143 7.7208 7.10143H1.63639C1.2208 7.10143 0.98055 6.87951 0.98055 6.48964V4.51637C0.98055 4.1265 1.2208 3.90459 1.63639 3.90459H7.7208C7.87014 3.90459 7.93508 3.8446 7.93508 3.70666V1.32552C7.93508 1.27754 7.97404 1.24155 8.03248 1.24155C8.07144 1.24155 8.1104 1.26554 8.14287 1.28954L12.7663 5.38605C12.8117 5.42803 12.8312 5.46402 12.8312 5.50001Z"/>
</svg>
