<svg width="20" height="26" viewBox="0 0 20 26" xmlns="http://www.w3.org/2000/svg">
<path d="M11.3105 13.6231L19.4582 5.42923C20.4636 4.4287 19.9818 2.98582 18.7356 2.59613C16.5992 1.90103 14.337 1.71144 11.7608 1.85889L11.4362 1.51134C10.2842 0.28963 8.58758 0.247501 7.36228 1.45868C6.15793 2.70145 6.19982 4.44976 7.41464 5.56614L7.76025 5.89264C7.61363 8.47298 7.80213 10.7268 8.47238 12.8859C8.87034 14.1602 10.3051 14.6447 11.3105 13.6231ZM10.2737 12.5699C10.1061 12.7384 9.9595 12.7174 9.81288 12.2329C9.23689 10.3898 9.0798 8.32553 9.25783 5.80838C9.27878 5.46083 9.13216 5.12381 8.87034 4.8921L8.40955 4.47082C7.82308 3.92316 7.79166 3.15433 8.40955 2.50135C9.05886 1.87996 9.81289 1.90103 10.3679 2.51187L10.7869 2.97528C11.0277 3.23858 11.3837 3.38603 11.7503 3.35443C14.2009 3.19646 16.264 3.35443 18.0968 3.94423C18.5471 4.09168 18.5681 4.22859 18.4214 4.37604L10.2737 12.5699ZM14.8921 12.5594C16.8191 12.5594 18.4005 10.9796 18.4005 9.05224C18.4005 8.13595 18.0444 7.25126 17.3742 6.56669L16.6097 8.04117C16.8086 8.33606 16.9134 8.68361 16.9134 9.05224C16.9134 10.1686 15.9917 11.0744 14.8921 11.0744C14.5256 11.0744 14.1695 10.969 13.8763 10.7794L12.5462 11.6641C13.1956 12.2645 14.0333 12.5594 14.8921 12.5594ZM7.44606 2.66986L8.52475 1.51134L7.24708 0.23697C6.9329 -0.0789899 6.45116 -0.0789899 6.13698 0.23697C5.83327 0.542397 5.8228 1.02687 6.13698 1.34283L7.44606 2.66986ZM1.97933 14.571L8.60853 8.44138L8.13726 6.58775L0.837813 13.3388L1.97933 14.571ZM1.63374 15.3819C2.54486 15.3819 3.26748 14.6657 3.26748 13.739C3.26748 12.8227 2.54486 12.0959 1.63374 12.0959C0.712141 12.0959 0 12.8227 0 13.739C0 14.6657 0.712141 15.3819 1.63374 15.3819ZM5.88563 19.1208L7.07952 17.9201L1.87461 12.7174L0.691196 13.9075L5.88563 19.1208ZM6.19982 20.2161C7.12141 20.2161 7.83355 19.542 7.83355 18.5731C7.83355 17.6569 7.10046 16.9302 6.19982 16.9302C5.27823 16.9302 4.56608 17.6569 4.56608 18.5731C4.56608 19.5 5.27823 20.2161 6.19982 20.2161ZM5.35153 23.7022H7.03763V18.6153H5.35153V23.7022ZM1.20436 25.1872H12.3473C12.7348 25.1872 12.9965 24.9028 12.9965 24.4921C12.9965 23.7022 12.3159 23.144 11.2581 23.144H2.29351C1.23577 23.144 0.555051 23.7022 0.555051 24.4921C0.555051 24.9028 0.816868 25.1872 1.20436 25.1872Z"/>
</svg>
