<svg width="14" height="17" viewBox="0 0 14 17" fill="none" xmlns="http://www.w3.org/2000/svg">
<path d="M13.5688 3.56267V14.4538C13.5688 15.9845 12.8071 16.7462 11.2983 16.7462H6.17983C7.42694 16.5717 8.72271 16.3128 10.1704 15.9113C11.6572 15.4865 12.3383 14.5343 12.3383 12.8278V2.10515C12.3383 1.85665 12.3194 1.6222 12.2807 1.40441C13.1375 1.69017 13.5688 2.41075 13.5688 3.56267Z" fill="black" fill-opacity="0.85"/>
<path d="M0.319336 14.2267C0.319336 15.5011 1.11035 16.1603 2.46533 16.0797C4.92627 15.9479 7.10156 15.7208 9.89944 14.9518C10.9394 14.6588 11.3422 14.1095 11.3422 12.8278V2.10515C11.3422 0.647628 10.5586 -0.062824 9.15234 0.266768C7.10156 0.728188 4.92627 1.09441 2.28955 1.24821C1.10303 1.32146 0.319336 1.99528 0.319336 3.32097V14.2267ZM1.49853 14.0143V3.29167C1.49853 2.67644 1.87939 2.43474 2.42871 2.40544C4.94824 2.2736 7.07959 1.90739 9.08642 1.45329C9.76754 1.29948 10.163 1.65105 10.163 2.31023V12.7838C10.163 13.4577 9.93604 13.7579 9.37204 13.9044C7.07959 14.5416 4.94824 14.776 2.5166 14.9005C1.87939 14.9298 1.49853 14.6076 1.49853 14.0143Z" fill="black" fill-opacity="0.85"/>
<path d="M3.10986 4.99821C5.18262 4.86638 6.85254 4.58073 8.55908 4.19987C8.89599 4.12663 8.97656 3.95817 8.97656 3.7531C8.97656 3.52605 8.80078 3.32829 8.47851 3.39421C6.85254 3.7531 5.18262 4.04607 3.10986 4.1779C2.81689 4.19987 2.68506 4.37566 2.68506 4.60271C2.68506 4.83708 2.86084 5.01286 3.10986 4.99821ZM3.10986 7.35661C5.18262 7.22478 6.85254 6.93181 8.55908 6.55827C8.89599 6.48503 8.97656 6.31657 8.97656 6.11149C8.97656 5.88444 8.80078 5.68669 8.47851 5.75261C6.85254 6.11149 5.18262 6.40446 3.10986 6.5363C2.81689 6.55827 2.68506 6.73405 2.68506 6.95378C2.68506 7.18816 2.86084 7.37126 3.10986 7.35661ZM3.10986 9.71503C5.18262 9.58313 6.85254 9.29023 8.55908 8.91667C8.89599 8.84343 8.97656 8.67497 8.97656 8.46989C8.97656 8.24284 8.80078 8.04509 8.47851 8.11101C6.85254 8.46989 5.18262 8.76286 3.10986 8.8947C2.81689 8.91667 2.68506 9.09245 2.68506 9.31213C2.68506 9.54653 2.86084 9.72963 3.10986 9.71503ZM3.10986 12.0661C4.31103 12.0001 5.10937 11.8829 5.90039 11.7584C6.14209 11.7145 6.27392 11.5241 6.27392 11.3336C6.27392 11.1139 6.09814 10.9015 5.76855 10.9601C5.06543 11.07 4.28906 11.1798 3.10986 11.2457C2.81689 11.2677 2.68506 11.4435 2.68506 11.6632C2.68506 11.8976 2.86084 12.0807 3.10986 12.0661Z" fill="black" fill-opacity="0.85"/>
</svg>
