<svg width="20" height="18" viewBox="0 0 20 18" xmlns="http://www.w3.org/2000/svg">
<path d="M16.4575 2.81069V7.64662C16.2445 7.61473 16.0264 7.6006 15.8051 7.6006C15.5754 7.6006 15.3489 7.61594 15.128 7.6506V5.23952C15.128 4.46094 14.7151 4.05473 13.9802 4.05473H2.46904C1.73411 4.05473 1.32949 4.46094 1.32949 5.23952V13.2199C1.32949 14.007 1.73411 14.4047 2.46904 14.4047H10.6502C10.7647 14.89 10.9485 15.3476 11.1897 15.7673H2.59291C0.867053 15.7673 0 14.8956 0 13.1438V2.81069C0 1.05889 0.867053 0.187225 2.59291 0.187225H13.8728C15.5987 0.187225 16.4575 1.06735 16.4575 2.81069Z" />
<path d="M4.74815 11.7474V12.2467C4.74815 12.5429 4.65732 12.636 4.36004 12.636H3.8811C3.58383 12.636 3.49299 12.5429 3.49299 12.2467V11.7474C3.49299 11.4512 3.58383 11.3666 3.8811 11.3666H4.36004C4.65732 11.3666 4.74815 11.4512 4.74815 11.7474ZM7.48968 11.7474V12.2467C7.48968 12.5429 7.39886 12.636 7.10984 12.636H6.62262C6.3336 12.636 6.23449 12.5429 6.23449 12.2467V11.7474C6.23449 11.4512 6.3336 11.3666 6.62262 11.3666H7.10984C7.39886 11.3666 7.48968 11.4512 7.48968 11.7474ZM10.2395 11.7474V12.2467C10.2395 12.5429 10.1404 12.636 9.85139 12.636H9.36417C9.07515 12.636 8.97605 12.5429 8.97605 12.2467V11.7474C8.97605 11.4512 9.07515 11.3666 9.36417 11.3666H9.85139C10.1404 11.3666 10.2395 11.4512 10.2395 11.7474ZM4.74815 8.98004V9.47937C4.74815 9.77557 4.65732 9.86024 4.36004 9.86024H3.8811C3.58383 9.86024 3.49299 9.77557 3.49299 9.47937V8.98004C3.49299 8.68384 3.58383 8.59926 3.8811 8.59926H4.36004C4.65732 8.59926 4.74815 8.68384 4.74815 8.98004ZM7.48968 8.98004V9.47937C7.48968 9.77557 7.39886 9.86024 7.10984 9.86024H6.62262C6.3336 9.86024 6.23449 9.77557 6.23449 9.47937V8.98004C6.23449 8.68384 6.3336 8.59926 6.62262 8.59926H7.10984C7.39886 8.59926 7.48968 8.68384 7.48968 8.98004ZM10.2395 8.98004V9.47937C10.2395 9.77557 10.1404 9.86024 9.85139 9.86024H9.36417C9.07515 9.86024 8.97605 9.77557 8.97605 9.47937V8.98004C8.97605 8.68384 9.07515 8.59926 9.36417 8.59926H9.85139C10.1404 8.59926 10.2395 8.68384 10.2395 8.98004ZM7.48968 6.21276V6.71209C7.48968 7.00829 7.39886 7.09287 7.10984 7.09287H6.62262C6.3336 7.09287 6.23449 7.00829 6.23449 6.71209V6.21276C6.23449 5.91655 6.3336 5.82346 6.62262 5.82346H7.10984C7.39886 5.82346 7.48968 5.91655 7.48968 6.21276ZM10.2395 6.21276V6.71209C10.2395 7.00829 10.1404 7.09287 9.85139 7.09287H9.36417C9.07515 7.09287 8.97605 7.00829 8.97605 6.71209V6.21276C8.97605 5.91655 9.07515 5.82346 9.36417 5.82346H9.85139C10.1404 5.82346 10.2395 5.91655 10.2395 6.21276ZM12.9811 6.21276V6.71209C12.9811 7.00829 12.882 7.09287 12.5929 7.09287H12.1057C11.8167 7.09287 11.7259 7.00829 11.7259 6.71209V6.21276C11.7259 5.91655 11.8167 5.82346 12.1057 5.82346H12.5929C12.882 5.82346 12.9811 5.91655 12.9811 6.21276Z" />
<path d="M20 13.0592C20 15.4118 18.076 17.3582 15.8051 17.3582C13.5013 17.3582 11.6103 15.4287 11.6103 13.0592C11.6103 10.7065 13.5013 8.76002 15.8051 8.76002C18.1007 8.76002 20 10.6981 20 13.0592ZM15.3014 10.8842V12.5429H13.6829C13.3857 12.5429 13.1792 12.746 13.1792 13.0592C13.1792 13.3723 13.3857 13.5754 13.6829 13.5754H15.3014V15.2341C15.3014 15.5472 15.4996 15.7503 15.8051 15.7503C16.1107 15.7503 16.3089 15.5472 16.3089 15.2341V13.5754H17.9191C18.2246 13.5754 18.4311 13.3723 18.4311 13.0592C18.4311 12.746 18.2246 12.5429 17.9191 12.5429H16.3089V10.8842C16.3089 10.5795 16.1107 10.368 15.8051 10.368C15.4996 10.368 15.3014 10.5795 15.3014 10.8842Z" />
</svg>
