<svg width="20" height="22" viewBox="0 0 20 22" xmlns="http://www.w3.org/2000/svg">
<path d="M13.6045 4.29954C14.7761 4.29954 15.7057 3.34518 15.7057 2.14486C15.7057 0.954361 14.7761 0 13.6045 0C12.4232 0 11.4743 0.954361 11.4743 2.14486C11.4743 3.34518 12.4232 4.29954 13.6045 4.29954ZM7.01045 21.8617C7.5527 21.8617 8.01748 21.4092 8.01748 20.8484V11.6097C10.2252 11.2457 12.1424 9.76006 13.0623 7.73327C13.1398 7.52666 13.3721 7.42827 13.7595 7.56602L18.6591 9.2386C19.3369 9.4649 19.8016 9.09103 19.9469 8.60892C20.1018 8.11699 19.9275 7.51682 19.2981 7.31021L4.61876 2.33179C3.94096 2.09566 3.46649 2.47937 3.32125 2.96147C3.16632 3.4534 3.3503 4.04373 3.97969 4.26019L9.2569 6.05084C9.49897 6.13939 9.62484 6.43456 9.46992 6.69036C8.90831 7.5857 8.07557 8.12683 7.01045 8.12683H2.00436V3.02051C2.00436 2.42033 1.60736 2.00711 0.997344 2.00711C0.397001 2.00711 0 2.42033 0 3.02051V9.06151C0 9.73054 0.32922 10.0454 0.832733 10.1339L5.26752 10.8817L6.0131 15.3288V20.8484C6.0131 21.4092 6.45852 21.8617 7.01045 21.8617Z"/>
</svg>
