<?xml version="1.0" encoding="UTF-8"?>
<svg id="Calque_1" data-name="Calque 1" xmlns="http://www.w3.org/2000/svg" width="20" height="19" version="1.1" viewBox="0 0 20 19">
  <defs>
    <style>
      .cls-1 {
        fill: #253166;
      }

      .cls-1, .cls-2, .cls-3, .cls-4 {
        stroke-width: 0px;
      }

      .cls-2 {
        fill: #ca292d;
      }

      .cls-3 {
        fill: #f5ab08;
      }

      .cls-4 {
        fill: #fff;
      }
    </style>
  </defs>
  <path class="cls-3" d="M8.3,10.4c-.8-.6-.7-2.6.2-3.9.9-1.3,2.1-1.6,2.9-1,.8.6.1,2-.8,3.2-.9,1.3-1.6,2.3-2.3,1.7"/>
  <path class="cls-1" d="M14.1,10.9c1.8-2.1,0-3.2-.6-1.9-.9,2.4-3.8,3-5.7,2.8-.2,0-.5.1-.3.3,1.4.8,3.8,1.4,6.5-1.2"/>
  <path class="cls-2" d="M6.2,10.7c-1.2-2.2-2.1-5.8,1.3-9.4,3-2.9,4.8-.3,2.8.7-1.5.7-2.5,1.9-3.1,3.2-.8,1.8-.9,4-.6,5.5,0,.4-.2.4-.5,0"/>
  <path class="cls-4" d="M.4,16.5s0,0,0,0h.8v-.3H0v2h1.1v-.3s-.7,0-.7,0c0,0,0,0,0,0,0,0,0,0,0,0h0s0,0,0,0c0,0,0,0,0,0v-.4s0,0,0,0c0,0,0,0,0,0h0s0,0,0,0c0,0,0,0,0,0h.7v-.3H.4s0,0,0,0c0,0,0,0,0,0h0s0,0,0,0c0,0,0,0,0,0v-.4s0,0,0,0c0,0,0,0,0,0h0s0,0,0,0"/>
  <path class="cls-4" d="M2.8,17.4c0,0,0,.1,0,.2,0,0,0,.1,0,.2h0c0,0,0-.1,0-.2,0,0,0-.1,0-.2l-.9-1.3h-.3v2h.3v-1.2c0,0,0-.1,0-.2,0,0,0-.1,0-.2h0c0,0,0,.2,0,.2,0,0,0,0,0,.1l.9,1.3h.3v-2h-.3v1.2h0Z"/>
  <path class="cls-4" d="M4.1,17h0c-.1,0-.2-.1-.2-.2,0,0,0,0,0-.1s0-.1,0-.2c0,0,.1,0,.2,0s.1,0,.2,0c0,0,.1,0,.1.1l.2-.2h0c0,0-.1-.1-.2-.2s-.2,0-.3,0c-.2,0-.3,0-.4.1,0,0-.2.2-.2.4s0,.1,0,.2c0,0,0,0,0,.1,0,0,0,0,.2.1,0,0,.1,0,.2.2h0c.1,0,.2.2.2.2,0,0,0,.1,0,.2s0,.2,0,.2c0,0-.1,0-.2,0s-.1,0-.2,0c0,0-.1,0-.2-.2l-.2.2h0c0,.1.2.2.3.2,0,0,.2,0,.3,0,.2,0,.3,0,.4-.1.1,0,.2-.2.2-.4s0-.3-.1-.4c0,0-.2-.2-.4-.3"/>
  <path class="cls-4" d="M5.3,16.5s0,0,0,0h.8v-.3h-1.1v2h1.1v-.3s-.7,0-.7,0c0,0,0,0,0,0,0,0,0,0,0,0h0s0,0,0,0c0,0,0,0,0,0v-.4s0,0,0,0c0,0,0,0,0,0h0s0,0,0,0c0,0,0,0,0,0h.7v-.3h-.7s0,0,0,0c0,0,0,0,0,0h0s0,0,0,0c0,0,0,0,0,0v-.4s0,0,0,0c0,0,0,0,0,0h0s0,0,0,0"/>
  <path class="cls-4" d="M6.8,16.2h-.3v2h.3v-2Z"/>
  <path class="cls-4" d="M8.3,17.3h.4s0,0,0,0c0,0,0,0,0,0h0s0,0,0,0c0,0,0,0,0,0v.3c0,0-.1.1-.2.2-.1,0-.2,0-.3,0-.2,0-.4,0-.5-.2-.1-.1-.2-.3-.2-.5s0-.4.2-.5c.1-.1.3-.2.5-.2s.2,0,.3,0c.1,0,.2.1.3.2l.2-.2c-.1-.1-.2-.2-.4-.3-.1,0-.3,0-.5,0-.3,0-.5,0-.7.3-.2.2-.3.4-.3.7s.1.5.3.7c.2.2.4.3.8.3s.4,0,.5-.1c.2,0,.3-.2.3-.3v-.7h-.7v.3h0Z"/>
  <path class="cls-4" d="M10.8,17.4c0,0,0,.1,0,.2,0,0,0,.1,0,.2h0c0,0,0-.1,0-.2,0,0,0-.1,0-.2l-.9-1.3h-.3v2h.3v-1.2c0,0,0-.1,0-.2,0,0,0-.1,0-.2h0c0,0,0,.2,0,.2,0,0,0,0,0,.1l.9,1.3h.3v-2h-.3v1.2h0Z"/>
  <path class="cls-4" d="M11.9,16.5s0,0,0,0h.8v-.3h-1.1v2h1.1v-.3s-.7,0-.7,0c0,0,0,0,0,0,0,0,0,0,0,0h0s0,0,0,0c0,0,0,0,0,0v-.4s0,0,0,0c0,0,0,0,0,0h0s0,0,0,0c0,0,0,0,0,0h.7v-.3h-.7s0,0,0,0c0,0,0,0,0,0h0s0,0,0,0c0,0,0,0,0,0v-.4s0,0,0,0c0,0,0,0,0,0h0s0,0,0,0"/>
  <path class="cls-4" d="M14.1,17.2s0,0,0,.1c0,0,0,0,0,.1h0c0,0,0,0,0-.1,0,0,0,0,0-.1l-.6-1h-.3v2h.3v-1.2c0,0,0-.1,0-.2,0,0,0-.1,0-.2h0c0,0,0,.2,0,.2,0,0,0,.1,0,.2l.6.9.5-.9c0,0,0-.2.2-.4h0s0,0,0,0c0,.1,0,.2,0,.3v1.2h.3v-2h-.3l-.6,1Z"/>
  <path class="cls-4" d="M15.7,16.5s0,0,0,0h.8v-.3h-1.1v2h1.1v-.3s-.7,0-.7,0c0,0,0,0,0,0,0,0,0,0,0,0h0s0,0,0,0c0,0,0,0,0,0v-.4s0,0,0,0c0,0,0,0,0,0h0s0,0,0,0c0,0,0,0,0,0h.7v-.3h-.7s0,0,0,0c0,0,0,0,0,0h0s0,0,0,0c0,0,0,0,0,0v-.4s0,0,0,0c0,0,0,0,0,0h0s0,0,0,0"/>
  <path class="cls-4" d="M18.2,17.4c0,0,0,.1,0,.2,0,0,0,.1,0,.2h0c0,0,0-.1,0-.2,0,0,0-.1,0-.2l-.9-1.3h-.3v2h.3v-1.2c0,0,0-.1,0-.2,0,0,0-.1,0-.2h0c0,0,0,.2,0,.2,0,0,0,0,0,.1l.9,1.3h.3v-2h-.3v1.2h0Z"/>
  <path class="cls-4" d="M18.8,16.2v.3s.4,0,.4,0c0,0,0,0,0,0,0,0,0,0,0,0h0s0,0,0,0c0,0,0,0,0,0v1.6h.3v-1.6s0,0,0,0c0,0,0,0,0,0h0s0,0,0,0c0,0,0,0,0,0h.4v-.3h-1.2,0Z"/>
  <path class="cls-4" d="M17.9,15.4h-.4s0,0,0,0h0s0,0,0,0h0v-1h-.2v1.2h.6v-.2s0,0,0,0Z"/>
  <path class="cls-4" d="M8,14.4h-.2v1.2h.2v-1.2Z"/>
  <path class="cls-4" d="M11.7,15.2h0c0-.1,0-.1,0-.2h0s0,0,0,0c0,0,0,0,0,0l.3.4h.2l-.3-.5s0,0,0,0c0,0,0,0,0,0h0s0,0,0,0h0c0,0,.1,0,.2,0,0,0,0-.1,0-.2s0-.2,0-.2c0,0-.2,0-.3,0h-.3v1.2h.2v-.4h0ZM11.7,14.6s0,0,0,0h0s0,0,0,0h.1c0,0,.1,0,.1,0,0,0,0,0,0,.1s0,.1,0,.1c0,0,0,0-.1,0h-.1s0,0,0,0h0s0,0,0,0c0,0,0,0,0,0v-.3s0,0,0,0"/>
  <path class="cls-4" d="M19.6,15.4s0,0-.1,0c0,0,0,0-.1-.1h-.1c0,.1,0,.1,0,.1,0,0,.1,0,.2.1,0,0,.1,0,.2,0,.1,0,.2,0,.3,0,0,0,0-.1,0-.2s0-.2,0-.2c0,0-.1-.1-.3-.2h0c0,0-.1,0-.1-.1,0,0,0,0,0,0s0,0,0,0c0,0,0,0,.1,0s0,0,.1,0c0,0,0,0,0,0h.1c0-.1,0-.1,0-.1,0,0,0,0-.1,0,0,0-.1,0-.2,0-.1,0-.2,0-.2,0,0,0,0,.1,0,.2s0,0,0,.1c0,0,0,0,0,0,0,0,0,0,0,0,0,0,0,0,.1,0h0c0,0,.1,0,.1.1,0,0,0,0,0,.1s0,0,0,.1c0,0,0,0-.1,0"/>
  <path class="cls-4" d="M9.9,15.1h-.4v.2h.4v-.2Z"/>
  <path class="cls-4" d="M18.9,15.4h-.5s0,0,0,0h0s0,0,0,0h0v-.3h0s0,0,0,0h0s0,0,0,0h.4v-.2h-.4s0,0,0,0h0s0,0,0,0h0v-.3h0s0,0,0,0h0s0,0,0,0h.5v-.2h-.7v1.2h.7v-.2s0,0,0,0Z"/>
  <path class="cls-4" d="M14.3,15s0,0,0,0l-.3.6h.2l.2-.4s0,0,0,0c0,0,0,0,0,0h0s0,0,0,0c0,0,0,0,0,0l.2.4h.2l-.3-.6s0,0,0,0c0,0,0,0,0,0h0s0,0,0,0c0,0,0,0,0,0l.3-.5h-.2l-.2.3s0,0,0,0c0,0,0,0,0,0h0s0,0,0,0c0,0,0,0,0,0l-.2-.3h-.2l.3.5s0,0,0,0c0,0,0,0,0,0h0s0,0,0,0"/>
  <path class="cls-4" d="M7.3,14.4h-.2v.7s0,0,0,.1c0,0,0,0,0,.1h0s0,0,0-.1c0,0,0,0,0,0l-.5-.8h-.2v1.2h.2v-.7s0,0,0,0c0,0,0,0,0-.1h0c0,0,0,0,0,.1,0,0,0,0,0,0l.5.8h.2v-1.2Z"/>
  <path class="cls-4" d="M4.6,15.4h-.4s0,0,0,0h0s0,0,0,0h0v-1h-.2v1.2h.6v-.2s0,0,0,0Z"/>
  <path class="cls-4" d="M13.3,15.6c0,0,.1,0,.2-.1,0,0,0,0,0-.2,0,0,0-.1,0-.2v-.7h-.2v.7c0,.1,0,.2,0,.3,0,0-.1,0-.2,0s-.2,0-.2,0c0,0,0-.1,0-.3v-.7h-.2v.7c0,0,0,.2,0,.2,0,0,0,.1,0,.2,0,0,0,0,.2.1,0,0,.1,0,.2,0s.1,0,.2,0"/>
  <path class="cls-4" d="M5.8,15.4c.1-.1.2-.3.2-.4s0-.3-.2-.4c-.1-.1-.3-.2-.4-.2s-.3,0-.4.2c-.1.1-.2.3-.2.4s0,.3.2.4c.1.1.2.2.4.2s.3,0,.4-.2M5,15c0-.1,0-.2.1-.3,0,0,.2-.1.3-.1s.2,0,.3.1c0,0,.1.2.1.3s0,.2-.1.3-.2.1-.3.1-.2,0-.3-.1c0,0-.1-.2-.1-.3"/>
  <path class="cls-4" d="M10.9,15h0c0,0,.1,0,.1,0,0,0,0,0,0-.2,0,0,0-.2,0-.2,0,0-.2,0-.3,0h-.3v1.2h.4c.1,0,.2,0,.3,0,0,0,.1-.1.1-.3s0-.1,0-.2c0,0,0,0-.2,0ZM10.6,14.6s0,0,0,0h0s0,0,0,0h.2c0,0,.1,0,.1,0,0,0,0,0,0,.1s0,0,0,.1c0,0,0,0-.1,0h-.2s0,0,0,0h0s0,0,0,0v-.3s0,0,0,0M10.9,15.4s0,0-.2,0h-.2s0,0,0,0h0s0,0,0,0h0v-.3h0s0,0,0,0h0s0,0,0,0h.2s0,0,.1,0c0,0,0,0,0,0,0,0,0,0,0,0,0,0,0,0,0,0,0,0,0,.1,0,.1Z"/>
  <path class="cls-4" d="M3.6,15.4h-.4s0,0,0,0h0s0,0,0,0h0v-1h-.2v1.2h.6v-.2s0,0,0,0Z"/>
  <path class="cls-4" d="M8.7,14.6h.5v-.2h-.7v1.2h.7v-.2s-.4,0-.4,0h0s0,0,0,0h0s0,0,0,0c0,0,0,0,0,0v-.3s0,0,0,0c0,0,0,0,0,0h0s0,0,0,0h.4v-.2h-.4s0,0,0,0h0s0,0,0,0h0v-.3s0,0,0,0c0,0,0,0,0,0h0s0,0,0,0"/>
  <path class="cls-4" d="M15.9,15.4h-.5s0,0,0,0h0s0,0,0,0c0,0,0,0,0,0v-.3s0,0,0,0c0,0,0,0,0,0h0s0,0,0,0h.4v-.2h-.4s0,0,0,0h0s0,0,0,0h0v-.3s0,0,0,0c0,0,0,0,0,0h0s0,0,0,0h.5v-.2h-.7v1.2h.7v-.2s0,0,0,0Z"/>
  <path class="cls-4" d="M1.9,15.2h.4v.4h.3l-.4-1.2h-.2l-.4,1.2h.2v-.4c.1,0,.1,0,.1,0ZM2,15s0,0,0,0v-.3c.1,0,.1,0,.1,0,0,0,0,0,0,0h0s0,0,0,0c0,0,0,0,0,0v.3c.1,0,.1,0,.1,0,0,0,0,0,0,0h0s0,0,0,0h-.3s0,0,0,0h0s0,0,0,0"/>
  <path class="cls-4" d="M16.5,15.4h0s0,0,0,0h0s0,0,0,0h0v-1h-.2v1.2h.6v-.2s-.4,0-.4,0h0Z"/>
  <path class="cls-4" d="M1,15.2s0,0,0,0c0,0,0,0,0,.1h0c0,0,0,0,0-.1,0,0,0,0,0,0l-.2-.6-.2.6s0,0,0,0c0,0,0,0,0,.1h0c0,0,0,0,0-.1,0,0,0,0,0,0l-.2-.8h-.2l.4,1.2h.2v-.5c.1,0,.2,0,.2,0s0,0,0,0h0s0,0,0,0c0,0,0,0,0,0v.5h.3l.4-1.2h-.2l-.2.8h0Z"/>
</svg>
