<svg width="20" height="19" viewBox="0 0 20 19" xmlns="http://www.w3.org/2000/svg">
<path d="M5.58077 18.9716C6.02542 18.9716 6.33395 18.7356 6.88749 18.2453L10.0181 15.4581H15.844C18.5481 15.4581 20 13.9601 20 11.2999V4.34539C20 1.68526 18.5481 0.187225 15.844 0.187225H4.15609C1.45191 0.187225 0 1.67617 0 4.34539V11.2999C0 13.9691 1.45191 15.4581 4.15609 15.4581H4.59166V17.8185C4.59166 18.5177 4.94557 18.9716 5.58077 18.9716ZM5.95282 17.3102V14.6772C5.95282 14.187 5.76226 13.9963 5.27224 13.9963H4.15609C2.32305 13.9963 1.46099 13.0612 1.46099 11.2908V4.34539C1.46099 2.57499 2.32305 1.64894 4.15609 1.64894H15.844C17.6679 1.64894 18.5391 2.57499 18.5391 4.34539V11.2908C18.5391 13.0612 17.6679 13.9963 15.844 13.9963H9.96376C9.45557 13.9963 9.20146 14.0689 8.85664 14.423L5.95282 17.3102Z" />
<path d="M7.0236 12.0988C7.35029 12.0988 7.57715 11.9445 7.72234 11.5178L8.38477 9.58393H11.6244L12.2868 11.5178C12.432 11.9354 12.6588 12.0988 12.9946 12.0988C13.3939 12.0988 13.657 11.8446 13.657 11.4724C13.657 11.3271 13.6298 11.2 13.5571 11.0003L11.0164 4.14565C10.8439 3.67355 10.4901 3.42842 10 3.42842C9.51002 3.42842 9.16517 3.67355 8.99275 4.14565L6.45192 11.0003C6.37932 11.2 6.3521 11.3271 6.3521 11.4633C6.3521 11.8446 6.61525 12.0988 7.0236 12.0988ZM8.74774 8.49443L9.95465 4.98092H10.0545L11.2613 8.49443H8.74774Z" />
</svg>
