<svg width="20" height="21" viewBox="0 0 20 21" xmlns="http://www.w3.org/2000/svg">
<path d="M1.57843 6.03035C4 8.60878 7.41175 10.099 11.0392 10.0892C13.902 10.0794 16.6176 9.12839 18.8333 7.3833L18.2745 6.28526C16.2549 7.97153 13.7157 8.8931 11.0392 8.9029C7.56862 8.91271 4.32352 7.4029 2.12745 4.81468L1.57843 6.03035ZM0.529411 11.6284C5.62745 15.9813 12.9216 16.7951 18.8039 13.7167L18.7745 12.3735C13.0588 15.6774 5.75489 14.8539 0.823528 10.2951L0.529411 11.6284ZM5.39215 18.3637L6.79411 18.6872C6.13725 17.1088 5.78431 15.4421 5.75489 13.7264C5.48038 8.85388 7.57842 4.20683 11.3235 1.1382L10.0686 0.648009C6.35293 3.94212 4.30392 8.73623 4.56862 13.7461C4.58823 15.3147 4.87255 16.8636 5.39215 18.3637ZM11.8529 19.3343L12.9608 18.8441C11.1275 16.2559 10.1274 13.1872 10.1274 9.98133C10.1274 6.94212 11.0098 4.04016 12.6667 1.56957L11.5097 1.15781C9.83332 3.78526 8.94116 6.83427 8.94116 9.98133C8.94116 13.3637 9.96078 16.5892 11.8529 19.3343ZM17.6274 15.6873L18.4215 14.7852C15.1275 12.893 13.0686 9.43231 13.0196 5.58918C13 4.21663 13.2451 2.85389 13.7352 1.59899L12.5883 1.27545C12.0686 2.648 11.8137 4.09898 11.8333 5.59898C11.8823 9.76565 14.0882 13.5696 17.6274 15.6873ZM5.74509 9.97152C6.57842 9.97152 7.2647 9.27544 7.2647 8.43231C7.2647 7.58918 6.57842 6.9029 5.74509 6.9029C4.89215 6.9029 4.20587 7.58918 4.20587 8.43231C4.20587 9.27544 4.89215 9.97152 5.74509 9.97152ZM13.2549 10.7852C14.0784 10.7852 14.7549 10.1088 14.7549 9.26565C14.7549 8.44212 14.0784 7.76565 13.2549 7.76565C12.4118 7.76565 11.7353 8.44212 11.7353 9.26565C11.7353 10.1088 12.4118 10.7852 13.2549 10.7852ZM10.3334 16.4519C11.1764 16.4519 11.8529 15.7754 11.8529 14.9225C11.8529 14.0794 11.1764 13.3931 10.3334 13.3931C9.48038 13.3931 8.79411 14.0794 8.79411 14.9225C8.79411 15.7754 9.48038 16.4519 10.3334 16.4519ZM9.99999 20.1872C15.4706 20.1872 20 15.648 20 10.1872C20 4.71663 15.4608 0.187225 9.99018 0.187225C4.52941 0.187225 0 4.71663 0 10.1872C0 15.648 4.53921 20.1872 9.99999 20.1872ZM9.99999 18.8539C5.2647 18.8539 1.33333 14.9225 1.33333 10.1872C1.33333 5.45192 5.2549 1.52055 9.99018 1.52055C14.7255 1.52055 18.6667 5.45192 18.6667 10.1872C18.6667 14.9225 14.7352 18.8539 9.99999 18.8539Z"/>
</svg>
