<svg width="20" height="24" viewBox="0 0 20 24" xmlns="http://www.w3.org/2000/svg">
<path d="M20 18.7023C20 21.4194 15.861 23.3152 10.0158 23.3152C4.16009 23.3152 0 21.4194 0 18.7023C0 16.4413 2.90276 14.7462 7.27753 14.2539V15.0793C7.27753 15.3841 7.28553 15.6754 7.30419 15.9484C4.25776 16.3467 2.1485 17.4145 2.1485 18.7023C2.1485 20.3663 5.58189 21.6512 10.0053 21.6512C14.4076 21.6512 17.8621 20.3452 17.8621 18.7023C17.8621 17.421 15.7341 16.3474 12.6859 15.9479C12.7042 15.6751 12.712 15.384 12.712 15.0793V14.25C17.096 14.7369 20 16.4351 20 18.7023Z" />
<path d="M13.9548 4.15774C13.9548 6.01135 12.6909 7.57006 10.9742 7.99134V14.658C10.9742 17.7754 10.4266 19.4605 10.0053 19.4605C9.57347 19.4605 9.02581 17.765 9.02581 14.658V7.99134C7.30911 7.55954 6.04529 6.01135 6.04529 4.15774C6.04529 1.97764 7.80412 0.187225 10.0053 0.187225C12.1959 0.187225 13.9548 1.97764 13.9548 4.15774ZM7.51976 3.00977C7.51976 3.747 8.15166 4.37891 8.86784 4.37891C9.6156 4.37891 10.2264 3.747 10.2264 3.00977C10.2264 2.28307 9.6156 1.66169 8.86784 1.66169C8.15166 1.66169 7.51976 2.28307 7.51976 3.00977Z" />
</svg>
