<svg width="100%" height="100%" viewBox="0 0 20 9" xmlns="http://www.w3.org/2000/svg">
    <path d="M0 0.140564H3.76104V1.26293H1.21994V2.29195H3.62003V3.41431H1.21994V4.53668H3.90205V5.65904H0V0.140564Z"
          fill="#003E46"/>
    <path
        d="M6.7005 0.140564H7.70921L10.1175 5.65962H8.74134L8.26448 4.49059H6.11422L5.65316 5.65962H4.30859L6.7005 0.140564ZM7.16975 1.74594L6.49747 3.46098H7.85022L7.16975 1.74594Z"
        fill="#003E46"/>
    <path d="M10.7197 0.140564H14.434V1.26293H11.9397V2.38529H14.2461V3.50765H11.9397V5.65904H10.7197V0.140564Z"
          fill="#003E46"/>
    <path
        d="M18.9291 1.57446C18.8091 1.4292 18.6617 1.3172 18.4873 1.23903C18.3124 1.16086 18.1105 1.12178 17.8812 1.12178C17.6518 1.12178 17.4394 1.16611 17.244 1.2542C17.0486 1.34287 16.8789 1.46595 16.7355 1.62462C16.5922 1.7833 16.4798 1.97172 16.3991 2.18989C16.3184 2.40806 16.278 2.6449 16.278 2.89924C16.278 3.15358 16.3184 3.39684 16.3991 3.61268C16.4798 3.82851 16.5904 4.01519 16.7314 4.17386C16.8724 4.33253 17.0374 4.45561 17.2282 4.54428C17.4183 4.63295 17.6231 4.6767 17.842 4.6767C18.0924 4.6767 18.3136 4.62478 18.5066 4.52095C18.6997 4.41711 18.8583 4.27128 18.9835 4.0846L19.9998 4.84062C19.7652 5.16788 19.468 5.40939 19.1081 5.56572C18.7483 5.72148 18.3785 5.79965 17.9982 5.79965C17.5652 5.79965 17.1668 5.73198 16.8016 5.59723C16.4365 5.46189 16.1212 5.2688 15.8555 5.01621C15.5899 4.7642 15.3822 4.45853 15.2342 4.10035C15.0855 3.7416 15.0112 3.34142 15.0112 2.89982C15.0112 2.45823 15.0855 2.05805 15.2342 1.69929C15.3828 1.34053 15.5899 1.03544 15.8555 0.783437C16.1212 0.53143 16.4365 0.337759 16.8016 0.202422C17.1662 0.0676684 17.5652 0 17.9982 0C18.1544 0 18.3171 0.0145837 18.4867 0.0431678C18.6558 0.0717518 18.8232 0.117253 18.987 0.179671C19.1508 0.242089 19.3088 0.325508 19.4598 0.429344C19.6107 0.53318 19.7465 0.660933 19.8664 0.811437L18.9279 1.57562L18.9291 1.57446Z"
        fill="#003E46"/>
    <path d="M3.62115 2.29199H2.49365V3.4161H3.62115V2.29199Z" fill="#E11F21"/>
    <path d="M14.27 2.383H11.9507V3.50711H14.27V2.383Z" fill="#004B91"/>
    <path d="M6.49756 3.46102L7.16984 1.74597L7.84973 3.46102H6.49756Z" fill="#FBBA00"/>
    <path
        d="M0 6.69452H0.323562L1.32584 8.18556H1.33111V6.69452H1.57802V8.50815H1.26441L0.25218 7.01711H0.246914V8.50815H0V6.69452Z"
        fill="#003E46"/>
    <path
        d="M2.61565 6.69452H2.83916L3.61735 8.50815H3.32948L3.14693 8.06014H2.28097L2.10135 8.50815H1.81348L2.61507 6.69452H2.61565ZM3.05741 7.84488L2.71805 7.01244H2.71278L2.36874 7.84488H3.05741Z"
        fill="#003E46"/>
    <path
        d="M3.83594 6.69452H4.20338L4.78146 8.06772H4.792L5.36481 6.69452H5.73226V8.50815H5.48593V7.01711H5.48066L4.86689 8.50815H4.70248L4.0887 7.01711H4.08344V8.50815H3.83711V6.69452H3.83594Z"
        fill="#003E46"/>
    <path
        d="M6.39477 6.69452V7.80638C6.39477 7.86297 6.40237 7.9213 6.41817 7.98197C6.43397 8.04264 6.45913 8.09864 6.4954 8.14997C6.5311 8.20131 6.57849 8.24273 6.63641 8.27539C6.69434 8.30806 6.76631 8.32381 6.85232 8.32381C6.93833 8.32381 7.00971 8.30748 7.06822 8.27539C7.12615 8.24273 7.17354 8.20131 7.20923 8.14997C7.24492 8.09864 7.27067 8.04264 7.28646 7.98197C7.30226 7.9213 7.30928 7.86297 7.30928 7.80638V6.69452H7.5562V7.8443C7.5562 7.95047 7.53806 8.04614 7.50237 8.13247C7.46668 8.21881 7.41694 8.29348 7.35317 8.35648C7.28939 8.41948 7.21508 8.46848 7.12966 8.50231C7.04423 8.53615 6.95178 8.55365 6.85232 8.55365C6.75285 8.55365 6.6604 8.53673 6.57498 8.50231C6.48955 8.4679 6.41466 8.41948 6.35147 8.35648C6.28828 8.29348 6.23854 8.21881 6.20227 8.13247C6.16658 8.04614 6.14844 7.95047 6.14844 7.8443V6.69452H6.39535H6.39477Z"
        fill="#003E46"/>
    <path
        d="M7.98975 6.69452H8.62926C8.7457 6.69452 8.84166 6.71027 8.91713 6.74177C8.99261 6.77327 9.05171 6.81352 9.09559 6.86194C9.13947 6.91036 9.1699 6.96519 9.18687 7.02586C9.20383 7.08653 9.21261 7.14486 9.21261 7.20145C9.21261 7.25803 9.20208 7.3152 9.1816 7.36945C9.16112 7.42312 9.13128 7.47212 9.09325 7.51529C9.05522 7.55846 9.00783 7.59579 8.95224 7.62554C8.89666 7.65529 8.83464 7.67396 8.76618 7.68096L9.28282 8.50815H8.97448L8.51224 7.70896H8.23724V8.50815H7.99033V6.69452H7.98975ZM8.23666 7.49371H8.56022C8.6082 7.49371 8.65559 7.48962 8.70299 7.48204C8.7498 7.47446 8.79192 7.46046 8.82878 7.44004C8.86565 7.41962 8.8949 7.38987 8.91713 7.35195C8.93937 7.31345 8.95049 7.26387 8.95049 7.20203C8.95049 7.1402 8.93937 7.09061 8.91713 7.05211C8.8949 7.01361 8.86506 6.98386 8.82878 6.96403C8.79192 6.94361 8.7498 6.92961 8.70299 6.92144C8.65559 6.91386 8.6082 6.90977 8.56022 6.90977H8.23666V7.49371Z"
        fill="#003E46"/>
    <path d="M10.0479 7.99596H9.41602V7.7807H10.0479V7.99596Z" fill="#003E46"/>
    <path
        d="M11.6376 7.08654C11.5861 7.02004 11.5211 6.9687 11.4422 6.93254C11.3632 6.89695 11.2818 6.87887 11.1982 6.87887C11.0952 6.87887 11.0027 6.89812 10.9197 6.93662C10.8366 6.97512 10.7652 7.02762 10.7067 7.09412C10.6476 7.16062 10.602 7.23879 10.5692 7.32863C10.5364 7.41846 10.52 7.51413 10.52 7.6168C10.52 7.71247 10.5352 7.80289 10.5663 7.88806C10.5973 7.97323 10.6417 8.04848 10.6997 8.11323C10.7576 8.17798 10.829 8.22932 10.9126 8.26665C10.9963 8.30399 11.0917 8.32324 11.1976 8.32324C11.3035 8.32324 11.3936 8.30224 11.4726 8.25907C11.5516 8.2159 11.6183 8.1564 11.6727 8.07998L11.881 8.23632C11.8675 8.25499 11.8435 8.28182 11.809 8.31682C11.7745 8.35182 11.7294 8.38682 11.6727 8.42182C11.6159 8.45682 11.5481 8.48774 11.4685 8.51399C11.3889 8.54024 11.2971 8.55366 11.1923 8.55366C11.0484 8.55366 10.9185 8.52624 10.8032 8.47141C10.688 8.41657 10.5891 8.34482 10.5077 8.25615C10.4264 8.16748 10.3644 8.06715 10.3217 7.95514C10.279 7.84314 10.2573 7.72997 10.2573 7.61564C10.2573 7.47563 10.2801 7.34613 10.327 7.22771C10.3732 7.10929 10.4375 7.00662 10.5206 6.92028C10.6037 6.83395 10.7032 6.76686 10.8202 6.71903C10.9366 6.6712 11.0654 6.64728 11.2058 6.64728C11.3257 6.64728 11.4433 6.67003 11.5592 6.7167C11.6744 6.76278 11.7692 6.83337 11.843 6.92904L11.6376 7.08537V7.08654Z"
        fill="#003E46"/>
    <path
        d="M12.7508 6.69452H12.9743L13.7531 8.50815H13.4652L13.2827 8.06014H12.4167L12.2371 8.50815H11.9492L12.7508 6.69452ZM13.1926 7.84488L12.8532 7.01244H12.8479L12.5039 7.84488H13.1926Z"
        fill="#003E46"/>
    <path
        d="M13.9479 6.69452H14.5827C14.7114 6.69452 14.8238 6.7091 14.9203 6.73827C15.0168 6.76744 15.1011 6.80652 15.1719 6.85494C15.2433 6.90336 15.3024 6.95936 15.3492 7.02294C15.3966 7.08595 15.4334 7.15128 15.4609 7.21778C15.4884 7.28428 15.5077 7.35079 15.52 7.41729C15.5317 7.48379 15.5382 7.54562 15.5382 7.60163C15.5382 7.71771 15.5171 7.8303 15.4738 7.9388C15.4311 8.0473 15.3673 8.14356 15.2836 8.22814C15.2 8.31273 15.0958 8.38039 14.9712 8.43173C14.8466 8.48306 14.7038 8.50873 14.5406 8.50873H13.9473V6.6951L13.9479 6.69452ZM14.1942 8.27773H14.5049C14.609 8.27773 14.7085 8.26373 14.8015 8.23514C14.8945 8.20714 14.9765 8.16456 15.0467 8.10855C15.1169 8.05197 15.1725 7.98197 15.2134 7.89738C15.2544 7.8128 15.2749 7.71421 15.2749 7.60163C15.2749 7.54387 15.2655 7.47562 15.2468 7.39804C15.2281 7.32045 15.1924 7.24637 15.1403 7.17636C15.0882 7.10636 15.0157 7.04686 14.9232 6.99844C14.8308 6.95003 14.7108 6.92552 14.5634 6.92552H14.1936V8.27773H14.1942Z"
        fill="#003E46"/>
    <path
        d="M15.8926 6.69455H17.0669V6.92498H16.1395V7.46516H17.0025V7.69558H16.1395V8.27718H17.1131V8.5076H15.8926V6.69397V6.69455Z"
        fill="#003E46"/>
    <path d="M17.842 6.92494H17.2563V6.69452H18.6746V6.92494H18.089V8.50815H17.842V6.92494Z" fill="#003E46"/>
    <path
        d="M18.9907 8.12898C19.0352 8.19548 19.0919 8.24448 19.1616 8.27656C19.2312 8.30806 19.3026 8.32381 19.3763 8.32381C19.4173 8.32381 19.4594 8.3174 19.5021 8.30456C19.5448 8.29173 19.584 8.27248 19.6191 8.24681C19.6542 8.22114 19.6829 8.18964 19.7051 8.15231C19.7274 8.11497 19.7385 8.07122 19.7385 8.02164C19.7385 7.95164 19.7163 7.89855 19.6718 7.8618C19.6273 7.82505 19.5723 7.79413 19.5062 7.76963C19.4401 7.74513 19.3681 7.72122 19.2903 7.69788C19.2125 7.67513 19.1405 7.64305 19.0744 7.60163C19.0083 7.56079 18.9533 7.50538 18.9088 7.43654C18.8643 7.36771 18.8421 7.27379 18.8421 7.15595C18.8421 7.10287 18.8538 7.04686 18.8766 6.98678C18.8994 6.92728 18.9363 6.87244 18.9855 6.82286C19.0352 6.77327 19.099 6.73186 19.1768 6.69861C19.2546 6.66535 19.3482 6.64844 19.4582 6.64844C19.5577 6.64844 19.6525 6.66185 19.7432 6.68927C19.8339 6.71669 19.9134 6.77211 19.9819 6.85553L19.7818 7.03753C19.7508 6.9897 19.7075 6.9512 19.6507 6.92203C19.594 6.89286 19.5302 6.87828 19.4582 6.87828C19.3863 6.87828 19.333 6.88703 19.2874 6.90511C19.2417 6.92319 19.2055 6.94594 19.1785 6.97453C19.151 7.00253 19.1317 7.03286 19.1206 7.06553C19.1095 7.0982 19.1037 7.12795 19.1037 7.15537C19.1037 7.23237 19.1259 7.29129 19.1704 7.33212C19.2148 7.37296 19.2698 7.40621 19.3359 7.43187C19.4021 7.45754 19.474 7.48029 19.5518 7.50129C19.6297 7.52171 19.7016 7.55029 19.7677 7.58704C19.8339 7.6238 19.8889 7.67338 19.9333 7.7358C19.9778 7.79822 20 7.88397 20 7.99306C20 8.07997 19.9836 8.15873 19.9497 8.22873C19.9164 8.29873 19.8713 8.35765 19.8151 8.40548C19.7584 8.45332 19.6917 8.49007 19.6144 8.51573C19.5372 8.5414 19.4553 8.55424 19.3681 8.55424C19.2517 8.55424 19.1411 8.53382 19.0364 8.4924C18.9316 8.45157 18.8491 8.38857 18.7871 8.30281L18.9901 8.12839L18.9907 8.12898Z"
        fill="#003E46"/>
</svg>
