<svg width="20" height="15" viewBox="0 0 20 15" xmlns="http://www.w3.org/2000/svg">
<path d="M2.60257 14.6574H17.646C19.1297 14.6574 20 13.7732 20 12.0218V2.63561C20 0.884205 19.1214 0 17.3974 0H2.35391C0.870284 0 0 0.884205 0 2.63561V12.0218C0 13.7732 0.878576 14.6574 2.60257 14.6574ZM2.55283 13.3566C1.73228 13.3566 1.26813 12.889 1.26813 12.0133V2.62711C1.26813 1.75991 1.73228 1.30081 2.55283 1.30081H17.4389C18.2594 1.30081 18.7318 1.75991 18.7318 2.63561V12.0218C18.7318 12.889 18.2594 13.3566 17.4389 13.3566H2.55283ZM9.9958 9.56473C10.5263 9.56473 11.0402 9.36066 11.5127 8.91857L19.312 1.7174L18.45 0.824692L10.7915 7.90684C10.5346 8.14489 10.2693 8.25542 9.9958 8.25542C9.72234 8.25542 9.45711 8.14489 9.20011 7.90684L1.54165 0.824692L0.67965 1.7174L8.47905 8.91857C8.95152 9.36066 9.46534 9.56473 9.9958 9.56473ZM1.66597 13.5692L7.55075 7.52425L6.68876 6.64005L0.803977 12.6764L1.66597 13.5692ZM18.3423 13.5777L19.2043 12.685L13.3112 6.64005L12.4409 7.52425L18.3423 13.5777Z" />
</svg>
