<svg width="20" height="14" viewBox="0 0 20 14" xmlns="http://www.w3.org/2000/svg">
<path fill-rule="evenodd" clip-rule="evenodd" d="M4.18152 13.05V7.11236C4.18515 6.28139 4.38306 5.56706 4.77453 4.9687C4.91662 4.75255 5.08119 4.55424 5.26823 4.37377C5.69015 4.75049 6.25851 4.98105 6.88342 4.98105C8.05277 4.98105 9.02348 4.1734 9.2069 3.11529C10.0239 3.16333 10.738 3.32115 11.3491 3.58808C11.6195 3.70679 11.8667 3.84334 12.0908 3.99911C12.3148 3.84334 12.562 3.70679 12.8324 3.58808C13.5051 3.2937 14.3033 3.13245 15.2262 3.10431H15.3204C16.2433 3.13245 17.0415 3.2937 17.7142 3.58808C18.4508 3.91059 19.0148 4.37103 19.407 4.9687C19.7985 5.56706 19.9964 6.28139 20 7.11236V13.05H16.7732L16.779 7.34567C16.7892 6.67046 16.621 6.13866 16.2404 5.78184C15.4944 5.30082 14.8485 5.34542 14.2634 5.79625C13.8821 6.15238 13.6973 6.6684 13.7074 7.3443V13.05H10.4081L10.4139 7.34567C10.4248 6.67046 10.2559 6.13866 9.8753 5.78184C9.12933 5.30082 8.48412 5.34542 7.89836 5.79625C7.51776 6.15238 7.33217 6.6684 7.34232 7.3443V13.05H4.18152Z" fill="#E98636"/>
<path fill-rule="evenodd" clip-rule="evenodd" d="M1.7812 8.17805C1.7783 6.97515 1.8914 5.77157 1.68986 4.65171C1.64636 4.40948 2.14513 4.49937 1.8131 3.95179L0.0529149 3.99365L1.81093 3.94905C1.81093 3.94905 1.98492 3.94218 1.98564 3.94424L7.49166 3.80426L13.0912 0.125583L9.95795 2.19583C10.464 2.63087 10.8707 3.0769 11.0628 3.54488C10.1863 4.36625 9.34899 5.22536 8.66898 6.23269C8.48557 6.466 8.21734 6.55452 7.87661 6.51884C6.89212 6.16888 5.7757 5.88068 4.40916 5.71119C4.22575 5.08607 4.1344 4.52888 4.40336 3.89072L1.98709 3.94767C2.02624 4.04923 2.2401 4.37037 2.21328 4.47055C2.1705 4.62632 1.8653 4.7814 1.92329 4.89325C1.97259 4.98863 2.22415 5.21987 2.1995 5.33859C2.11613 5.74413 1.96462 6.76449 2.01754 7.21875C2.11468 8.05316 2.60258 9.50515 2.32347 10.249C2.23067 10.4953 2.03494 11.6838 2.02189 11.924C1.19109 10.7856 1.78338 9.18126 1.7812 8.17805Z" fill="#333333"/>
<path fill-rule="evenodd" clip-rule="evenodd" d="M7.43802 3.67868L0 3.86807L6.08743 0.597674L13.0383 0L7.43802 3.67868Z" fill="#333333"/>
</svg>
