<svg width="20" height="17" viewBox="0 0 20 17" xmlns="http://www.w3.org/2000/svg">
<path d="M2.42153 1.12856C2.42153 1.35416 2.48876 1.56494 2.60479 1.74141H2.32437C1.57698 1.74141 1.20329 2.18985 1.20329 3.01943C1.20329 5.38865 3.39313 9.41706 5.52318 9.41706C7.65323 9.41706 9.85059 5.38865 9.85059 3.01943C9.85059 2.18985 9.47685 1.74141 8.722 1.74141H8.43409C8.55014 1.56494 8.61736 1.35416 8.61736 1.12856C8.61736 0.912286 8.55558 0.709638 8.44777 0.538118H8.6622C10.2392 0.538118 11.0539 1.38266 11.0539 3.03438C11.0539 5.92434 8.58217 10.1303 6.12091 10.5752C6.19705 13.3883 7.09694 14.9701 8.6323 14.9701C10.4111 14.9701 11.0762 13.3857 11.6069 10.4485C12.2048 7.18237 13.1914 5.94171 15.015 5.94171C16.9285 5.94171 17.8675 7.46721 18.1496 10.5083C17.9853 10.4695 17.8139 10.4494 17.6383 10.4485C17.4029 10.4471 17.1754 10.4806 16.9613 10.5452C16.7979 8.26198 16.1923 7.14501 15.015 7.14501C13.9238 7.14501 13.2661 7.99702 12.7878 10.7175C12.1599 14.3647 10.9791 16.1734 8.70705 16.1734C6.37236 16.1734 5.01124 14.178 4.91947 10.5738C2.46265 10.1149 0 5.91906 0 3.03438C0 1.38266 0.814649 0.538118 2.38416 0.538118H2.59113C2.48331 0.709638 2.42153 0.912286 2.42153 1.12856Z"  />
<path d="M3.55009 2.2571C4.16294 2.2571 4.67116 1.74889 4.67116 1.12856C4.67116 0.508222 4.16294 0 3.55009 0C2.92976 0 2.42153 0.508222 2.42153 1.12856C2.42153 1.74889 2.92976 2.2571 3.55009 2.2571ZM7.48881 2.2571C8.10914 2.2571 8.61736 1.74889 8.61736 1.12856C8.61736 0.508222 8.10914 0 7.48881 0C6.87595 0 6.36773 0.508222 6.36773 1.12856C6.36773 1.74889 6.87595 2.2571 7.48881 2.2571ZM17.6383 15.1794C18.9388 15.1794 20 14.1256 20 12.8102C20 11.5097 18.9388 10.4559 17.6383 10.4485C16.3303 10.4409 15.2691 11.5097 15.2691 12.8102C15.2691 14.1256 16.3303 15.1794 17.6383 15.1794ZM17.6383 14.1256C16.9133 14.1256 16.3154 13.5352 16.3154 12.8102C16.3154 12.0777 16.9133 11.4947 17.6383 11.4947C18.3632 11.4947 18.9538 12.0777 18.9538 12.8102C18.9538 13.5352 18.3632 14.1256 17.6383 14.1256Z"  />
</svg>
