<?xml version="1.0" encoding="UTF-8"?>
<svg xmlns="http://www.w3.org/2000/svg" width="15" height="15" version="1.1" viewBox="0 0 15 15">
  <defs>
    <style>
      .cls-1 {
        fill-opacity: .9;
      }
    </style>
  </defs>
  <!-- Generator: Adobe Illustrator 28.6.0, SVG Export Plug-In . SVG Version: 1.2.0 Build 709)  -->
  <g>
    <g id="Calque_1">
      <path class="cls-1" d="M10.9,14.4c1.2,0,2-.3,2.8-1.1,0,0,.1-.1.2-.2.4-.5.6-.9.6-1.4s-.3-1-.9-1.4l-2.1-1.4c-.6-.4-1.4-.5-2,0l-.5.5c-.2.2-.3.2-.5,0-.4-.2-1.2-.9-1.7-1.4-.6-.5-1.1-1.2-1.4-1.6,0-.2,0-.3,0-.5l.5-.5c.6-.6.5-1.3.1-2l-1.4-2.1c-.4-.6-.9-.9-1.4-.9-.4,0-.9.2-1.4.6,0,0-.1.1-.2.2-.8.7-1.1,1.5-1.1,2.8,0,2,1.2,4.5,3.5,6.8,2.3,2.3,4.7,3.5,6.7,3.5ZM10.9,13.3c-1.8,0-4.1-1.3-5.9-3.2-1.8-1.8-3.3-4.2-3.3-6,0-.8.3-1.4.8-1.9,0,0,0,0,.1-.1.2-.2.4-.3.6-.3s.4,0,.5.3l1.4,2.1c.1.2.2.5,0,.7l-.6.6c-.5.5-.5,1.1,0,1.6.4.5,1.1,1.3,1.6,1.9.5.5,1.4,1.3,1.9,1.7.5.4,1.1.4,1.6,0l.6-.6c.2-.2.5-.2.7,0l2.1,1.4c.2.1.3.3.3.5s0,.4-.3.6c0,0,0,0-.1.1-.5.6-1.2.8-1.9.8Z"/>
    </g>
  </g>
</svg>