<?xml version="1.0" encoding="UTF-8"?>
<svg id="Calque_1" data-name="Calque 1" xmlns="http://www.w3.org/2000/svg" width="177.94mm" height="61.68mm" version="1.1" viewBox="0 0 504.4 174.85">
  <defs>
    <style>
      .cls-1 {
        fill: #e5c066;
      }

      .cls-1, .cls-2 {
        stroke-width: 0px;
      }

      .cls-2 {
        fill: #fff;
      }
    </style>
  </defs>
  <path class="cls-2" d="M280.68,64.5h15.21c0-.16.01-.31.01-.47,0-32.87-27.01-59.52-60.33-59.52-19.97,0-37.62,9.61-48.6,24.36,3.33,5.49,5.86,11.47,7.46,17.84,6.87-15.92,22.83-27.2,41.37-27.2,24.79,0,44.89,19.83,44.89,44.29,0,.24-.01.47-.02.7Z"/>
  <rect class="cls-1" x="280.37" y="96.44" width="15.53" height="30"/>
  <path class="cls-2" d="M25.82,112.32c-.24,0-.47-.01-.7-.02v15.21c.16,0,.31.01.47.01,19.88,0,37.44-9.92,48.25-25.1-3.29-5.08-5.91-10.61-7.69-16.51-6.96,15.56-22.38,26.4-40.33,26.4Z"/>
  <path class="cls-2" d="M25.59,6.86l-.1,15.58c17.92,0,33.49,10.85,40.56,26.39,1.78-6.04,4.42-11.71,7.78-16.89C63.02,16.77,45.46,6.86,25.59,6.86Z"/>
  <rect class="cls-2" x="3.33" y="5.33" width="15.53" height="165.02"/>
  <path class="cls-2" d="M69.9,69.03c.79,8.79,3.48,17.04,7.71,24.3,10.37,17.96,29.9,30.11,52.38,30.11h.08v-14.51h-.12c-24.47,0-44.37-19.37-44.83-43.42,0-.29-.04-.58-.04-.87,0-.54.04-1.08.08-1.58.12-4.11.79-8.05,1.99-11.78,5.43-18.41,22.64-31.89,43.09-31.89,24.76,0,44.87,19.82,44.87,44.29v.7h14.93c-.08-10.04-2.65-19.49-7.17-27.74-10.2-18.62-30.19-31.31-53.17-31.31-22.15,0-41.47,11.82-51.96,29.4-2.28,3.82-4.19,7.92-5.56,12.23-.29.95-.58,1.95-.83,2.94-.71,3.03-1.2,6.14-1.45,9.29"/>
  <rect class="cls-1" x="174.98" y="96.44" width="15.53" height="30"/>
  <g>
    <path class="cls-2" d="M308.26,8.38c1.57-.26,3.62-.49,6.23-.49,3.21,0,5.56.75,7.05,2.09,1.38,1.19,2.2,3.02,2.2,5.26s-.67,4.07-1.94,5.37c-1.72,1.83-4.52,2.76-7.69,2.76-.97,0-1.87-.04-2.61-.22v10.08h-3.25V8.38ZM311.51,20.51c.71.19,1.6.26,2.69.26,3.92,0,6.31-1.9,6.31-5.37s-2.35-4.93-5.93-4.93c-1.42,0-2.5.11-3.06.26v9.78Z"/>
    <path class="cls-2" d="M343.42,24.06c0,6.68-4.63,9.59-9,9.59-4.89,0-8.66-3.58-8.66-9.29,0-6.05,3.96-9.59,8.96-9.59s8.7,3.77,8.7,9.29ZM329.09,24.24c0,3.96,2.28,6.94,5.49,6.94s5.49-2.95,5.49-7.02c0-3.06-1.53-6.94-5.41-6.94s-5.56,3.58-5.56,7.02ZM335.7,7.37l3.58,5.34h-2.54l-2.17-3.55h-.07l-2.17,3.55h-2.43l3.51-5.34h2.28Z"/>
    <path class="cls-2" d="M347.57,6.74h3.28v26.5h-3.28V6.74Z"/>
    <path class="cls-2" d="M358.2,24.8c.07,4.44,2.91,6.27,6.2,6.27,2.35,0,3.77-.41,5-.93l.56,2.35c-1.16.52-3.14,1.12-6.01,1.12-5.56,0-8.88-3.66-8.88-9.11s3.21-9.74,8.47-9.74c5.9,0,7.46,5.19,7.46,8.51,0,.67-.08,1.19-.11,1.53h-12.69ZM367.83,22.45c.04-2.09-.86-5.34-4.55-5.34-3.32,0-4.78,3.06-5.04,5.34h9.59Z"/>
    <path class="cls-2" d="M312.33,70.11l-2.61,7.91h-3.36l8.55-25.16h3.92l8.58,25.16h-3.47l-2.69-7.91h-8.92ZM320.58,67.58l-2.46-7.24c-.56-1.64-.93-3.14-1.31-4.59h-.08c-.37,1.49-.78,3.02-1.27,4.55l-2.46,7.28h7.58Z"/>
    <path class="cls-2" d="M343.42,77.36c-.86.45-2.76,1.04-5.19,1.04-5.45,0-9-3.69-9-9.22s3.81-9.59,9.7-9.59c1.94,0,3.66.49,4.55.93l-.75,2.54c-.78-.45-2.01-.86-3.81-.86-4.14,0-6.38,3.06-6.38,6.83,0,4.18,2.69,6.76,6.27,6.76,1.87,0,3.1-.49,4.03-.9l.56,2.46Z"/>
    <path class="cls-2" d="M357.27,78.03l-.26-2.28h-.11c-1.01,1.42-2.95,2.69-5.52,2.69-3.66,0-5.52-2.58-5.52-5.19,0-4.37,3.88-6.76,10.86-6.72v-.37c0-1.49-.41-4.18-4.11-4.18-1.68,0-3.43.52-4.7,1.34l-.75-2.17c1.49-.97,3.66-1.6,5.93-1.6,5.52,0,6.87,3.77,6.87,7.39v6.76c0,1.57.08,3.1.3,4.33h-2.99ZM356.78,68.81c-3.58-.07-7.65.56-7.65,4.07,0,2.13,1.42,3.13,3.1,3.13,2.35,0,3.84-1.49,4.37-3.02.11-.34.19-.71.19-1.04v-3.14Z"/>
    <path class="cls-2" d="M380.86,51.53v21.83c0,1.6.04,3.43.15,4.67h-2.95l-.15-3.14h-.07c-1.01,2.02-3.21,3.55-6.16,3.55-4.37,0-7.73-3.69-7.73-9.18-.04-6.01,3.7-9.7,8.1-9.7,2.76,0,4.63,1.31,5.45,2.76h.07v-10.79h3.28ZM377.57,67.32c0-.41-.04-.97-.15-1.38-.49-2.09-2.28-3.81-4.74-3.81-3.4,0-5.41,2.99-5.41,6.98,0,3.66,1.79,6.68,5.34,6.68,2.2,0,4.22-1.46,4.81-3.92.11-.45.15-.9.15-1.42v-3.14Z"/>
    <path class="cls-2" d="M388.14,69.59c.07,4.44,2.91,6.27,6.2,6.27,2.35,0,3.77-.41,5-.93l.56,2.35c-1.16.52-3.14,1.12-6.01,1.12-5.56,0-8.88-3.66-8.88-9.11s3.21-9.74,8.47-9.74c5.9,0,7.46,5.19,7.46,8.51,0,.67-.08,1.19-.11,1.53h-12.69ZM397.77,67.24c.04-2.09-.86-5.34-4.55-5.34-3.32,0-4.78,3.06-5.04,5.34h9.59ZM398.55,52.16l-4.55,5.34h-2.35l3.29-5.34h3.62Z"/>
    <path class="cls-2" d="M405.01,64.85c0-1.87-.04-3.4-.15-4.89h2.87l.15,2.91h.11c1.01-1.72,2.69-3.32,5.67-3.32,2.46,0,4.33,1.49,5.11,3.62h.07c.56-1.01,1.27-1.79,2.02-2.35,1.08-.82,2.28-1.27,3.99-1.27,2.39,0,5.93,1.57,5.93,7.84v10.64h-3.21v-10.23c0-3.47-1.27-5.56-3.92-5.56-1.87,0-3.32,1.38-3.88,2.99-.15.45-.26,1.04-.26,1.64v11.16h-3.21v-10.82c0-2.87-1.27-4.96-3.77-4.96-2.05,0-3.55,1.64-4.07,3.28-.19.49-.26,1.05-.26,1.6v10.9h-3.21v-13.17Z"/>
    <path class="cls-2" d="M439.79,54.89c.04,1.12-.78,2.02-2.09,2.02-1.16,0-1.98-.9-1.98-2.02s.86-2.05,2.05-2.05,2.01.9,2.01,2.05ZM436.13,78.03v-18.06h3.28v18.06h-3.28Z"/>
    <path class="cls-2" d="M457.18,75.23h-.07c-.97,1.79-2.99,3.21-5.9,3.21-4.22,0-7.65-3.66-7.65-9.14,0-6.76,4.37-9.74,8.17-9.74,2.8,0,4.67,1.38,5.56,3.14h.07l.11-2.72h3.1c-.07,1.53-.11,3.1-.11,4.96v20.49h-3.28v-10.19ZM457.18,67.28c0-.45-.04-.97-.15-1.38-.49-2.02-2.24-3.73-4.7-3.73-3.4,0-5.45,2.87-5.45,6.94,0,3.58,1.72,6.72,5.34,6.72,2.13,0,3.96-1.31,4.7-3.58.15-.45.26-1.08.26-1.57v-3.4Z"/>
    <path class="cls-2" d="M481,73.1c0,1.87.04,3.51.15,4.93h-2.91l-.19-2.95h-.07c-.86,1.46-2.76,3.36-5.97,3.36-2.84,0-6.23-1.57-6.23-7.91v-10.56h3.29v10c0,3.43,1.04,5.75,4.03,5.75,2.2,0,3.73-1.53,4.33-2.99.19-.49.3-1.08.3-1.68v-11.08h3.29v13.14Z"/>
    <path class="cls-2" d="M488.28,69.59c.07,4.44,2.91,6.27,6.2,6.27,2.35,0,3.77-.41,5-.93l.56,2.35c-1.16.52-3.14,1.12-6.01,1.12-5.56,0-8.88-3.66-8.88-9.11s3.21-9.74,8.47-9.74c5.9,0,7.46,5.19,7.46,8.51,0,.67-.08,1.19-.11,1.53h-12.69ZM497.9,67.24c.04-2.09-.86-5.34-4.55-5.34-3.32,0-4.78,3.06-5.04,5.34h9.59Z"/>
    <path class="cls-2" d="M323.75,96.32v21.83c0,1.6.04,3.43.15,4.67h-2.95l-.15-3.13h-.07c-1.01,2.01-3.21,3.54-6.16,3.54-4.37,0-7.73-3.69-7.73-9.18-.04-6.01,3.7-9.7,8.1-9.7,2.76,0,4.63,1.31,5.45,2.76h.07v-10.79h3.28ZM320.47,112.1c0-.41-.04-.97-.15-1.38-.49-2.09-2.28-3.81-4.74-3.81-3.4,0-5.41,2.99-5.41,6.98,0,3.66,1.79,6.68,5.34,6.68,2.2,0,4.22-1.46,4.81-3.92.11-.45.15-.9.15-1.42v-3.14Z"/>
    <path class="cls-2" d="M331.03,114.38c.07,4.44,2.91,6.27,6.2,6.27,2.35,0,3.77-.41,5-.93l.56,2.35c-1.16.52-3.14,1.12-6.01,1.12-5.56,0-8.88-3.66-8.88-9.11s3.21-9.74,8.47-9.74c5.9,0,7.46,5.19,7.46,8.51,0,.67-.08,1.19-.11,1.53h-12.69ZM340.66,112.03c.04-2.09-.86-5.34-4.55-5.34-3.32,0-4.78,3.06-5.04,5.34h9.59Z"/>
    <path class="cls-2" d="M355.92,122.82v-25.16h3.54l8.06,12.73c1.87,2.95,3.32,5.6,4.52,8.17l.08-.04c-.3-3.36-.37-6.42-.37-10.34v-10.52h3.06v25.16h-3.28l-7.99-12.76c-1.75-2.8-3.43-5.67-4.7-8.4l-.11.04c.19,3.17.26,6.2.26,10.38v10.75h-3.06Z"/>
    <path class="cls-2" d="M390.37,122.82l-.26-2.28h-.11c-1.01,1.42-2.95,2.69-5.52,2.69-3.66,0-5.52-2.58-5.52-5.19,0-4.37,3.88-6.76,10.86-6.72v-.37c0-1.49-.41-4.18-4.11-4.18-1.68,0-3.43.52-4.7,1.34l-.75-2.17c1.49-.97,3.66-1.6,5.93-1.6,5.52,0,6.87,3.77,6.87,7.39v6.76c0,1.57.08,3.1.3,4.33h-2.99ZM389.89,113.6c-3.58-.07-7.65.56-7.65,4.07,0,2.13,1.42,3.13,3.1,3.13,2.35,0,3.84-1.49,4.37-3.02.11-.33.19-.71.19-1.04v-3.13Z"/>
    <path class="cls-2" d="M398.36,109.64c0-1.87-.04-3.4-.15-4.89h2.87l.15,2.91h.11c1.01-1.72,2.69-3.32,5.67-3.32,2.46,0,4.33,1.49,5.11,3.62h.07c.56-1.01,1.27-1.79,2.02-2.35,1.08-.82,2.28-1.27,3.99-1.27,2.39,0,5.93,1.57,5.93,7.84v10.64h-3.21v-10.23c0-3.47-1.27-5.56-3.92-5.56-1.87,0-3.32,1.38-3.88,2.99-.15.45-.26,1.04-.26,1.64v11.16h-3.21v-10.82c0-2.87-1.27-4.96-3.77-4.96-2.05,0-3.55,1.64-4.07,3.29-.19.49-.26,1.04-.26,1.6v10.9h-3.21v-13.17Z"/>
    <path class="cls-2" d="M444.61,117.89c0,1.87.04,3.51.15,4.93h-2.91l-.19-2.95h-.07c-.86,1.46-2.76,3.36-5.97,3.36-2.84,0-6.23-1.57-6.23-7.91v-10.56h3.29v10c0,3.43,1.04,5.75,4.03,5.75,2.2,0,3.73-1.53,4.33-2.99.19-.49.3-1.08.3-1.68v-11.08h3.29v13.14Z"/>
    <path class="cls-2" d="M450.05,110.39c0-2.13-.04-3.96-.15-5.64h2.87l.11,3.55h.15c.82-2.43,2.8-3.96,5-3.96.37,0,.63.04.93.11v3.1c-.34-.08-.67-.11-1.12-.11-2.31,0-3.96,1.75-4.4,4.22-.08.45-.15.97-.15,1.53v9.63h-3.25v-12.43Z"/>
  </g>
</svg>