<svg width="20" height="20" viewBox="0 0 20 20" xmlns="http://www.w3.org/2000/svg">
<g clip-path="url(#clip0_176_25771)">
<path d="M0 7.92452C0 12.2939 3.55511 15.8491 7.92452 15.8491C9.65242 15.8491 11.2314 15.2929 12.5322 14.3594L17.4181 19.2552C17.6464 19.4836 17.9444 19.5928 18.2621 19.5928C18.9374 19.5928 19.4041 19.0863 19.4041 18.421C19.4041 18.1033 19.2849 17.8152 19.0764 17.6067L14.2205 12.7209C15.2433 11.3903 15.8491 9.73185 15.8491 7.92452C15.8491 3.55511 12.2939 0 7.92452 0C3.55511 0 0 3.55511 0 7.92452ZM1.69811 7.92452C1.69811 4.48858 4.48858 1.69811 7.92452 1.69811C11.3605 1.69811 14.1509 4.48858 14.1509 7.92452C14.1509 11.3605 11.3605 14.1509 7.92452 14.1509C4.48858 14.1509 1.69811 11.3605 1.69811 7.92452Z" fill="black"/>
</g>
<defs>
<clipPath id="clip0_176_25771">
<rect width="20" height="19.5928" fill="white"/>
</clipPath>
</defs>
</svg>
