<svg width="20" height="20" viewBox="0 0 20 20" xmlns="http://www.w3.org/2000/svg">
<path fill-rule="evenodd" clip-rule="evenodd" d="M0 2.001V18.009C0 19.158 0.851563 20.01 2 20.01H18C19.1484 20.01 20 19.158 20 18.009V2.001C20 0.851988 19.1484 0 18 0H2C0.851563 0 0 0.851988 0 2.001Z" fill="url(#paint0_linear_176_187)"/>
<path fill-rule="evenodd" clip-rule="evenodd" d="M5.35814 16.3773C6.16634 16.8662 7.78236 17.291 9.35462 17.291C13.1327 17.291 14.9234 15.2936 14.9234 12.9772C14.9234 10.916 13.7003 9.66223 11.1452 8.727C9.17962 7.98327 8.32806 7.47325 8.32806 6.3684C8.32806 5.51837 9.04876 4.64723 10.7523 4.64723C12.1281 4.64723 13.1546 5.05094 13.7003 5.32725L14.3335 3.22347C13.5691 2.84086 12.4117 2.50084 10.8175 2.50084C7.60736 2.50084 5.59798 4.26461 5.59798 6.62321C5.59798 8.6844 7.14837 9.93815 9.59447 10.7882C11.4507 11.4471 12.1933 12.0845 12.1933 13.1683C12.1933 14.3372 11.2324 15.1232 9.52884 15.1232C8.15306 15.1232 6.82103 14.6983 5.96908 14.2094L5.35814 16.3773Z" fill="white"/>
<defs>
<linearGradient id="paint0_linear_176_187" x1="10.0469" y1="0.0468984" x2="10.0469" y2="20.0569" gradientUnits="userSpaceOnUse">
<stop stop-color="#FF840E"/>
<stop offset="0.08" stop-color="#FF710E"/>
<stop offset="0.73" stop-color="#FF0000"/>
<stop offset="1" stop-color="#F10A00"/>
</linearGradient>
</defs>
</svg>
