<svg width="20" height="17" viewBox="0 0 20 17" xmlns="http://www.w3.org/2000/svg">
<path d="M0.95896 7.91677C3.68035 8.83931 6.7473 9.28817 9.99566 9.28817C13.2527 9.28817 16.3197 8.83931 19.041 7.91677L19.0324 6.51215C16.3801 7.50952 13.3305 7.99988 9.99566 7.99988C6.66955 7.99988 3.61988 7.50952 0.967603 6.50384L0.95896 7.91677ZM8.6566 10.7925H11.3435C11.9482 10.7925 12.3023 10.4684 12.3023 9.88657V8.60661H7.69763V9.88657C7.69763 10.4684 8.05184 10.7925 8.6566 10.7925ZM2.66955 16.2946H17.3304C19.1188 16.2946 20 15.4634 20 13.7597V5.6727C20 3.96888 19.1188 3.13775 17.3304 3.13775H2.66955C0.88985 3.13775 0 3.96888 0 5.6727V13.7597C0 15.4634 0.88985 16.2946 2.66955 16.2946ZM2.68683 14.9648C1.84018 14.9648 1.39093 14.5492 1.39093 13.6931V5.7392C1.39093 4.89144 1.84018 4.46757 2.68683 4.46757H17.3132C18.1598 4.46757 18.6091 4.89144 18.6091 5.7392V13.6931C18.6091 14.5492 18.1598 14.9648 17.3132 14.9648H2.68683ZM5.61556 3.86084H6.95465V2.38973C6.95465 1.75806 7.34342 1.40068 8.01729 1.40068H11.9827C12.6566 1.40068 13.0367 1.75806 13.0367 2.38973V3.84422H14.3758V2.48115C14.3758 0.918623 13.5205 0.187225 11.9568 0.187225H8.03456C6.55724 0.187225 5.61556 0.918623 5.61556 2.48115V3.86084Z" />
</svg>
