<svg width="13" height="16" viewBox="0 0 13 16" xmlns="http://www.w3.org/2000/svg">
<path d="M2.27051 15.8903H10.0488C11.5649 15.8903 12.3193 15.1213 12.3193 13.5978V6.94748C12.3193 6.00266 12.2095 5.59249 11.6235 4.99192L7.58789 0.883026C7.03125 0.311737 6.56982 0.187225 5.74951 0.187225H2.27051C0.761719 0.187225 0 0.963592 0 2.48703V13.5978C0 15.1286 0.754395 15.8903 2.27051 15.8903ZM2.32178 14.7111C1.56738 14.7111 1.1792 14.3083 1.1792 13.5759V2.50901C1.1792 1.78391 1.56738 1.36643 2.3291 1.36643H5.58838V5.6218C5.58838 6.54465 6.0498 6.99875 6.96533 6.99875H11.1401V13.5759C11.1401 14.3083 10.752 14.7111 9.99023 14.7111H2.32178ZM7.09717 5.8928C6.8042 5.8928 6.69434 5.77561 6.69434 5.48264V1.59348L10.9131 5.8928H7.09717Z" fill="black" fill-opacity="0.85"/>
<path d="M6.71631 8.38303C6.71631 8.08274 6.45996 7.84104 6.15967 7.84104C5.85938 7.84104 5.60303 8.08274 5.60303 8.38303V11.0417L5.64697 12.2355L5.02441 11.591L4.36523 10.9172C4.2627 10.8073 4.10889 10.7487 3.96973 10.7487C3.66943 10.7487 3.45703 10.9611 3.45703 11.2541C3.45703 11.4226 3.52295 11.5471 3.64014 11.6496L5.74951 13.5905C5.90332 13.7297 6.02051 13.781 6.15967 13.781C6.29883 13.781 6.41602 13.7297 6.56982 13.5905L8.6792 11.6496C8.79639 11.5471 8.8623 11.4226 8.8623 11.2541C8.8623 10.9611 8.64258 10.7487 8.34961 10.7487C8.20312 10.7487 8.05664 10.8073 7.9541 10.9172L7.29492 11.591L6.67236 12.2355L6.71631 11.0417V8.38303Z" fill="black" fill-opacity="0.85"/>
</svg>
