<?xml version="1.0" encoding="UTF-8"?>
<svg xmlns="http://www.w3.org/2000/svg" width="50" height="50" version="1.1" viewBox="0 0 50 50">
  <defs>
    <style>
      .cls-1 {
        fill-opacity: .9;
      }

      .cls-2 {
        fill-opacity: 0;
      }
    </style>
  </defs>
  <!-- Generator: Adobe Illustrator 28.6.0, SVG Export Plug-In . SVG Version: 1.2.0 Build 709)  -->
  <g>
    <g id="Calque_1">
      <g>
        <rect class="cls-2" x="2.4" y="3" width="45.3" height="44"/>
        <path class="cls-1" d="M46.3,25c0,12-10,22-22,22S2.4,37,2.4,25,12.3,3,24.3,3s22,10,22,22ZM11.1,38.2c3.3,3.5,8.3,5.5,13.2,5.5s9.9-2,13.3-5.5c-2.4-3.7-7.5-5.8-13.3-5.8s-10.9,2.2-13.2,5.8ZM16.9,20.5c0,4.6,3.3,8.1,7.4,8.1,4.2,0,7.4-3.5,7.4-8.1s-3.3-8-7.4-8-7.4,3.6-7.4,8Z"/>
      </g>
    </g>
  </g>
</svg>