<svg width="20" height="16" viewBox="0 0 20 16" xmlns="http://www.w3.org/2000/svg">
<path d="M2.90001 0C2.34863 0 1.97172 0.29285 1.95018 0.49168C1.92703 0.711061 2.07402 0.925818 2.27271 1.07276C3.72976 2.1599 -0.47393 4.2751 0.0445991 8.58206C0.412362 11.6282 4.08729 15.7836 4.84489 15.7836C4.87343 15.7836 4.89874 15.7774 4.91866 15.7651C5.50396 15.4034 3.19616 11.4129 2.6674 10.0961C1.49411 7.14092 3.26562 5.25024 3.95699 4.15077C4.86428 2.70398 5.08612 1.33478 4.37698 0.674069C3.83637 0.168517 3.31785 0 2.90001 0Z" fill="#DC0814"/>
<path d="M13.4879 1.2043C13.4389 1.2043 13.3888 1.20533 13.3376 1.20739C7.98434 1.43704 7.20035 7.70147 7.18743 9.97132C7.18743 10.166 7.20358 11.1602 6.96451 11.1602C6.91605 11.1602 6.85736 11.1191 6.7852 11.0215C6.50683 10.6423 5.71207 9.53975 5.47515 9.2433C5.40677 9.15904 5.31416 9.1164 5.2237 9.1164C5.03362 9.1164 4.85378 9.30392 4.93616 9.68206C4.97762 9.87421 5.50854 12.0141 6.27206 12.8947C6.49175 13.15 6.99628 13.5102 7.51858 13.5102C8.04087 13.5102 8.55079 13.1695 8.84586 12.0588C9.35685 10.3407 8.75055 3.5096 14.8496 2.72867C15.3315 2.6665 15.5173 2.12036 15.234 1.79822C15.0327 1.57062 14.4204 1.20379 13.4889 1.20379" fill="#FBBA00"/>
<path d="M16.7542 7.33105C16.5614 7.27299 16.5528 7.15894 16.695 6.956C16.9384 6.6092 17.934 4.51661 16.7074 3.41816C16.6078 3.32876 16.478 3.23577 16.338 3.17155C16.1124 3.06828 15.8286 3.17823 15.8329 3.53992C15.862 6.19305 14.4949 6.70219 12.5812 6.72172H12.354V7.9409L14.048 8.05239L14.0786 8.05547C15.9094 8.19265 17.0111 9.34709 17.0111 10.6767C17.0111 12.2761 15.6186 13.3098 14.0786 13.3098C13.5677 13.3098 13.0437 13.2091 12.6205 12.9563C12.5403 12.9086 12.4326 12.8341 12.3486 12.7734C12.3486 12.9805 12.3502 15.3757 12.3502 15.3757C12.9344 15.6408 13.5967 15.7985 14.4539 15.7985C16.9179 15.7985 20 14.0656 20 11.0364C20 9.45755 18.628 7.89209 16.7542 7.33105Z" fill="#004B91"/>
</svg>
