<?xml version="1.0" encoding="UTF-8"?>
<svg id="Calque_1" data-name="Calque 1" xmlns="http://www.w3.org/2000/svg" width="265.38" height="65.52" version="1.1" viewBox="0 0 265.38 65.52">
  <path d="M16.54,53.1c-4.03-3.02-3.6-13.37,1.21-19.79,4.81-6.42,10.95-8.21,14.98-5.19,4.03,3.02.58,10.05-4.23,16.47-4.81,6.42-7.93,11.53-11.96,8.51" fill="#fbba00" stroke-width="0"/>
  <path d="M46.29,55.42c9.36-10.88-.04-16.49-2.82-9.46-4.83,12.23-19.55,15.42-28.92,14.16-1.27-.17-2.33.76-1.44,1.61,7.23,4.21,19.59,7.39,33.17-6.31" fill="#001d77" stroke-width="0"/>
  <path d="M5.84,54.51C-.13,43.27-5.05,24.77,12.52,6.77c15.4-14.85,24.53-1.33,14.31,3.4-7.63,3.53-12.64,9.62-15.65,16.53-4.1,9.4-4.53,20.29-2.88,28.24.41,2-1.26,1.82-2.45-.43" fill="#e11f21" stroke-width="0"/>
  <path d="M76.57,43.82c.1.03.2.04.33.04h7.3l-.32-2.91h-10.56v18.89h10.53l.35-2.92h-7.3c-.17,0-.3.02-.38.05-.09.03-.18.09-.28.17l-.09-.1c.07-.1.12-.19.16-.29.04-.09.06-.22.06-.38v-4.17c0-.13-.02-.25-.06-.35-.03-.1-.09-.21-.16-.3l.1-.11c.1.08.19.14.27.16.08.03.21.04.38.06h6.38v-2.86h-6.38c-.16,0-.28.01-.36.04-.09.02-.19.08-.3.17l-.11-.11c.09-.14.15-.25.18-.34.03-.09.04-.2.04-.32v-3.85c0-.13-.02-.25-.06-.35-.03-.1-.09-.21-.16-.31l.09-.11c.13.09.25.15.34.18" fill="#fff" stroke-width="0"/>
  <path d="M99.94,52.56c0,.54.04,1.11.13,1.69.09.58.23,1.28.44,2.11l-.13.02c-.25-.72-.49-1.33-.73-1.82-.23-.5-.51-.98-.83-1.45l-8.35-12.16h-2.78v18.89h3.01v-11.64c0-.49-.04-.99-.12-1.49-.07-.5-.23-1.26-.46-2.28l.13-.03c.3.85.55,1.48.74,1.88.19.4.46.86.82,1.37l8.33,12.18h2.78v-18.89h-2.99v11.61h0Z" fill="#fff" stroke-width="0"/>
  <path d="M112.76,48.42l-.46-.26c-1.08-.56-1.81-1.03-2.18-1.41-.37-.38-.55-.85-.55-1.42,0-.7.2-1.22.61-1.57.41-.35,1.01-.52,1.82-.52.66,0,1.25.12,1.76.37.51.24.98.64,1.44,1.19l2.09-1.97-.21-.21c-.66-.66-1.42-1.16-2.28-1.51-.87-.35-1.8-.52-2.79-.52-1.65,0-2.96.43-3.92,1.29-.96.87-1.44,2.05-1.44,3.54,0,.61.09,1.17.25,1.66.17.5.43.95.77,1.36.37.43.87.87,1.51,1.32.63.44,1.43.92,2.39,1.44l.47.24c1.21.64,2,1.21,2.39,1.72.39.51.58,1.09.58,1.74,0,.81-.26,1.44-.77,1.92-.51.47-1.21.7-2.1.7-.74,0-1.42-.17-2.04-.51-.62-.34-1.31-.91-2.08-1.73l-2.05,2.1.2.19c.93.93,1.87,1.6,2.81,2.01.94.4,2.01.61,3.21.61,1.78,0,3.19-.48,4.23-1.43,1.04-.95,1.56-2.26,1.56-3.92,0-1.42-.36-2.58-1.07-3.47-.71-.89-2.09-1.87-4.14-2.96" fill="#fff" stroke-width="0"/>
  <path d="M124.49,43.82c.09.03.2.04.33.04h7.29l-.32-2.91h-10.56v18.89h10.53l.34-2.92h-7.29c-.17,0-.3.02-.39.05-.09.03-.18.08-.28.17l-.09-.1c.07-.1.12-.19.16-.29.04-.09.05-.22.05-.38v-4.17c0-.13-.02-.25-.05-.35-.03-.1-.09-.21-.16-.3l.11-.11c.1.08.18.13.27.16.08.03.21.04.39.05h6.38v-2.86h-6.38c-.16,0-.28.01-.36.04-.09.02-.18.08-.3.17l-.11-.11c.09-.13.15-.24.18-.33.03-.09.05-.2.05-.32v-3.85c0-.13-.02-.25-.05-.35-.03-.1-.09-.21-.16-.31l.09-.11c.14.09.25.15.34.18" fill="#fff" stroke-width="0"/>
  <polygon points="138.85 40.92 135.75 40.92 135.75 59.84 138.85 59.84 138.85 40.92 138.85 40.92" fill="#fff" fill-rule="evenodd" stroke-width="0"/>
  <path d="M153.14,51.61h4.03c.15,0,.27-.01.35-.05.08-.03.18-.09.3-.18l.11.11c-.09.13-.14.24-.17.33-.02.09-.04.2-.04.32v2.79c-.37.7-1.07,1.29-2.08,1.77-1.02.48-2.09.72-3.21.72-1.99,0-3.66-.69-5-2.06-1.34-1.38-2-3.09-2-5.14s.65-3.61,1.96-4.9c1.31-1.3,2.96-1.94,4.96-1.94,1.21,0,2.3.24,3.27.71.97.48,1.8,1.17,2.48,2.1l2.23-1.88c-.98-1.24-2.15-2.18-3.49-2.81-1.35-.63-2.84-.95-4.5-.95-2.84,0-5.22.91-7.13,2.75-1.92,1.83-2.88,4.17-2.88,7.01s.96,5.26,2.9,7.13c1.93,1.89,4.34,2.82,7.21,2.82,1.82,0,3.5-.45,5.05-1.36,1.54-.91,2.55-1.9,3.04-3.01v-6.98h-6.66l-.73,2.7h0Z" fill="#fff" stroke-width="0"/>
  <path d="M176.55,52.56c0,.54.04,1.11.13,1.69.09.58.24,1.28.44,2.11l-.13.02c-.25-.72-.49-1.33-.73-1.82-.23-.5-.51-.98-.83-1.45l-8.35-12.16h-2.78v18.89h3.01v-11.64c0-.49-.04-.99-.11-1.49-.07-.5-.23-1.26-.46-2.28l.13-.03c.3.85.55,1.48.74,1.88.19.4.46.86.82,1.37l8.34,12.18h2.78v-18.89h-3v11.61h0Z" fill="#fff" stroke-width="0"/>
  <path d="M187.18,43.82c.09.03.2.04.33.04h7.29l-.32-2.91h-10.56v18.89h10.53l.35-2.92h-7.29c-.17,0-.3.02-.39.05-.09.03-.18.08-.28.17l-.09-.1c.07-.1.12-.19.16-.29.04-.09.05-.22.05-.38v-4.17c0-.13-.02-.25-.05-.35-.04-.1-.09-.21-.16-.3l.11-.11c.09.08.18.13.26.16.08.03.21.04.39.05h6.38v-2.86h-6.38c-.16,0-.28.01-.37.04-.08.02-.18.08-.3.17l-.11-.11c.09-.13.15-.24.18-.33.03-.09.05-.2.05-.32v-3.85c0-.13-.02-.25-.05-.35-.04-.1-.09-.21-.16-.31l.09-.11c.13.09.25.15.34.18" fill="#fff" stroke-width="0"/>
  <path d="M208.38,50.58c-.28.48-.47.85-.56,1.11-.09.26-.16.66-.2,1.19h-.13c-.05-.52-.11-.91-.21-1.18-.09-.27-.28-.64-.56-1.12l-5.62-9.63h-2.81v18.89h2.95v-11.58c0-.51-.04-1.03-.13-1.59-.09-.55-.25-1.3-.48-2.23l.15-.05c.27.85.52,1.53.74,2.06.22.53.46,1.02.72,1.48l5.32,9.13,5.29-9.13c.43-.74.93-1.91,1.49-3.51v-.02s.15.05.15.05c-.05.21-.12.49-.2.84-.32,1.36-.48,2.35-.48,2.98v11.58h2.99v-18.89h-2.78l-5.65,9.63h0Z" fill="#fff" stroke-width="0"/>
  <path d="M224.45,43.82c.09.03.2.04.32.04h7.29l-.32-2.91h-10.55v18.89h10.53l.34-2.92h-7.29c-.17,0-.3.02-.39.05-.09.03-.18.08-.28.17l-.09-.1c.07-.1.12-.19.16-.29.03-.09.05-.22.05-.38v-4.17c0-.13-.02-.25-.05-.35-.04-.1-.09-.21-.16-.3l.11-.11c.1.08.19.13.26.16.08.03.21.04.39.05h6.38v-2.86h-6.38c-.16,0-.28.01-.37.04-.08.02-.18.08-.3.17l-.11-.11c.09-.13.15-.24.18-.33.03-.09.05-.2.05-.32v-3.85c0-.13-.02-.25-.05-.35-.04-.1-.09-.21-.16-.31l.09-.11c.13.09.25.15.34.18" fill="#fff" stroke-width="0"/>
  <path d="M247.81,52.56c0,.54.04,1.11.13,1.69.09.58.24,1.28.44,2.11l-.13.02c-.25-.72-.49-1.33-.73-1.82-.24-.5-.51-.98-.83-1.45l-8.35-12.16h-2.78v18.89h3.01v-11.64c0-.49-.04-.99-.12-1.49-.07-.5-.23-1.26-.46-2.28l.13-.03c.3.85.55,1.48.74,1.88.19.4.46.86.82,1.37l8.33,12.18h2.78v-18.89h-2.99v11.61h0Z" fill="#fff" stroke-width="0"/>
  <path d="M253.71,40.95l-.4,2.83h3.91c.17,0,.3-.01.38-.05.09-.03.18-.08.27-.16l.12.11c-.1.14-.16.26-.18.33-.03.09-.04.19-.04.32v15.51h3.06v-15.51c0-.14-.02-.26-.05-.35-.03-.09-.09-.2-.17-.31l.1-.11c.12.08.21.15.29.18.08.03.2.05.36.05h3.93l-.41-2.83h-11.18Z" fill="#fff" stroke-width="0"/>
  <path d="M245.05,33.35h-3.83c-.1,0-.17,0-.23.03-.05.02-.1.05-.16.1l-.06-.06c.05-.05.08-.1.1-.15.02-.05.03-.13.03-.24v-9.23h-1.86v11.3h5.73l.28-1.74h0Z" fill="#fff" stroke-width="0"/>
  <polygon points="148.35 23.79 150.2 23.79 150.2 35.09 148.35 35.09 148.35 23.79 148.35 23.79" fill="#fff" fill-rule="evenodd" stroke-width="0"/>
  <path d="M185.98,31.11c0-.42-.01-.73-.03-.94-.02-.2-.06-.44-.12-.7l.08-.02c.09.24.18.44.27.62.1.17.25.41.47.72l2.89,4.3h2.02l-2.98-4.48c-.1-.15-.23-.3-.39-.43-.15-.13-.33-.26-.54-.38l.03-.06c.14.04.26.07.37.08.11.02.22.03.32.03.7,0,1.29-.28,1.77-.83.48-.56.72-1.23.72-2.04,0-1.03-.31-1.81-.94-2.36-.62-.54-1.54-.82-2.74-.82h-2.98v11.29h1.78v-3.98h0ZM185.91,25.47c-.02-.05-.06-.11-.1-.17l.06-.06c.07.05.13.09.18.1.05.02.12.02.21.02h1.1c.62,0,1.07.13,1.36.4.29.26.44.67.44,1.22s-.14.97-.44,1.24c-.29.26-.75.39-1.37.39h-1.1c-.1,0-.18,0-.23.03-.05.02-.1.05-.17.1l-.06-.06c.06-.07.1-.14.13-.19.02-.06.04-.12.04-.2v-2.58c-.02-.1-.04-.17-.07-.23" fill="#fff" stroke-width="0"/>
  <path d="M261.89,33.71c-.44,0-.85-.1-1.22-.3-.37-.2-.78-.55-1.24-1.04l-1.23,1.26.12.11c.56.56,1.12.96,1.68,1.2.56.24,1.2.37,1.92.37,1.06,0,1.91-.29,2.53-.85.62-.57.93-1.35.93-2.34,0-.85-.21-1.54-.64-2.07-.43-.53-1.25-1.12-2.48-1.77l-.27-.15c-.64-.33-1.08-.61-1.3-.84-.22-.23-.33-.51-.33-.85,0-.41.12-.73.36-.94.24-.21.6-.31,1.09-.31.39,0,.74.07,1.05.22.3.14.59.38.86.71l1.25-1.18-.13-.13c-.39-.39-.84-.69-1.36-.9-.52-.21-1.07-.31-1.67-.31-.99,0-1.77.26-2.34.77-.57.52-.86,1.22-.86,2.11,0,.37.05.7.15.99.1.3.25.57.46.81.22.26.52.52.9.79.38.26.85.55,1.43.86l.28.14c.72.38,1.2.72,1.43,1.03.23.3.34.65.34,1.04,0,.48-.15.86-.46,1.14-.31.28-.72.42-1.25.42" fill="#fff" stroke-width="0"/>
  <polygon points="164.81 30.18 168.71 30.18 168.71 31.85 164.81 31.85 164.81 30.18 164.81 30.18" fill="#fff" fill-rule="evenodd" stroke-width="0"/>
  <path d="M254.91,33.35h-4.36c-.1,0-.18,0-.23.03-.06.02-.11.05-.17.1l-.05-.06c.04-.06.07-.12.09-.17.02-.06.03-.13.03-.23v-2.49c0-.08,0-.15-.03-.21-.02-.06-.05-.12-.09-.18l.06-.06c.06.05.11.08.16.09.05.01.12.03.23.03h3.81v-1.71h-3.81c-.09,0-.17,0-.22.02-.05.01-.11.05-.18.1l-.06-.07c.05-.08.09-.15.1-.2.02-.05.03-.12.03-.19v-2.3c0-.08,0-.15-.03-.21-.02-.06-.05-.12-.09-.19l.05-.06c.08.05.15.09.21.11.05.02.12.03.19.03h4.36l-.19-1.74h-6.31v11.29h6.29l.21-1.74h0Z" fill="#fff" stroke-width="0"/>
  <path d="M210.25,29.42s-.08.1-.13.18l-3.06,5.49h2.05l1.79-3.44c.16-.31.26-.54.3-.71.05-.16.07-.39.09-.68h.08c.02.32.06.57.11.73.04.16.14.38.28.65l1.79,3.44h2.05l-3.08-5.49c-.05-.1-.1-.17-.13-.19-.04-.03-.08-.05-.14-.07v-.06c.06-.02.1-.04.14-.07.04-.03.08-.09.13-.2l2.97-5.21h-2.04l-1.69,3.18c-.14.25-.23.46-.28.62-.05.16-.09.41-.11.76h-.08c-.02-.33-.06-.58-.11-.74-.05-.17-.14-.38-.28-.64l-1.69-3.18h-2.04l2.95,5.21c.05.09.09.15.13.18.04.04.09.06.15.08v.06c-.06.02-.11.04-.15.08" fill="#fff" stroke-width="0"/>
  <path d="M143.74,23.8h-1.79v6.94c0,.32.03.66.08,1.01.05.35.14.77.26,1.26l-.08.02c-.15-.43-.29-.79-.43-1.09-.14-.3-.31-.59-.5-.87l-4.99-7.26h-1.66v11.29h1.79v-6.95c0-.3-.02-.59-.06-.89-.05-.3-.14-.75-.28-1.36l.08-.02c.18.51.33.88.44,1.12.11.24.28.51.49.82l4.98,7.28h1.67v-11.29h0Z" fill="#fff" stroke-width="0"/>
  <path d="M116.94,33.35h-3.83c-.1,0-.18,0-.23.03-.05.02-.1.05-.16.1l-.06-.06c.05-.05.08-.1.1-.15.02-.05.03-.13.03-.24v-9.23h-1.86v11.3h5.73l.28-1.74h0Z" fill="#fff" stroke-width="0"/>
  <path d="M201.09,34.95c.58-.24,1.08-.58,1.5-1.03.39-.4.68-.9.86-1.49.18-.59.28-1.35.28-2.28v-6.35h-1.85v6.53c0,1.08-.21,1.89-.65,2.42s-1.09.8-1.98.8-1.53-.27-1.97-.8-.65-1.34-.65-2.42v-6.53h-1.85v6.35c0,.93.09,1.69.28,2.28.18.59.47,1.08.86,1.49.43.44.93.79,1.5,1.03.58.24,1.19.36,1.84.36s1.27-.12,1.84-.36" fill="#fff" stroke-width="0"/>
  <path d="M129.14,33.65c1.06-1.09,1.59-2.49,1.59-4.2s-.53-3.14-1.59-4.23c-1.06-1.09-2.43-1.63-4.11-1.63s-2.97.55-4.02,1.65c-1.05,1.1-1.58,2.5-1.58,4.19s.53,3.12,1.58,4.21c1.06,1.09,2.41,1.64,4.07,1.64s3-.55,4.06-1.64M121.29,29.44c0-1.22.35-2.21,1.05-2.96.7-.75,1.61-1.13,2.74-1.13s2.02.38,2.72,1.14c.7.76,1.05,1.74,1.05,2.95s-.35,2.22-1.04,2.97c-.7.75-1.61,1.12-2.74,1.12s-2.05-.37-2.74-1.12c-.69-.75-1.04-1.74-1.04-2.97" fill="#fff" stroke-width="0"/>
  <path d="M178.13,29.11v-.09c.56-.17.97-.43,1.24-.8.27-.37.41-.85.41-1.45,0-.96-.31-1.69-.92-2.2-.62-.51-1.53-.76-2.72-.76h-3.15v11.29h3.39c1.22,0,2.17-.31,2.85-.94.69-.63,1.03-1.44,1.03-2.43,0-.69-.19-1.27-.56-1.73-.38-.46-.9-.76-1.56-.88M174.66,25.5s-.05-.12-.11-.2l.07-.06c.06.05.11.09.16.1.05.02.12.02.22.02h1.24c.65,0,1.13.12,1.42.36.29.24.43.61.43,1.12s-.14.91-.42,1.18c-.28.27-.69.41-1.21.41h-1.46c-.1,0-.17,0-.22.03-.05.02-.11.06-.17.11l-.07-.06s.01-.03.02-.04c.08-.12.12-.24.12-.36v-2.43c0-.07-.02-.14-.04-.19M178.01,33.01c-.36.32-.85.48-1.49.48h-1.5c-.1,0-.17,0-.22.03-.05.02-.1.05-.18.11l-.06-.07c.06-.08.09-.13.11-.17.02-.04.02-.11.02-.22v-2.91c0-.08,0-.14-.02-.19-.01-.05-.05-.12-.11-.2l.06-.07c.07.05.13.09.18.11.05.02.12.03.22.03h1.44c.4,0,.73.04.97.12.24.08.46.21.64.4.15.16.26.35.35.56.09.22.13.44.13.66,0,.57-.18,1.02-.53,1.34" fill="#fff" stroke-width="0"/>
  <path d="M107.54,33.35h-3.83c-.1,0-.18,0-.23.03-.05.02-.11.05-.16.1l-.07-.06c.05-.05.08-.1.1-.15.02-.05.03-.13.03-.24v-9.23h-1.86v11.3h5.73l.28-1.74h0Z" fill="#fff" stroke-width="0"/>
  <path d="M156.75,25.52c.06.02.12.03.19.03h4.36l-.19-1.74h-6.31v11.29h6.3l.2-1.74h-4.36c-.1,0-.18,0-.23.03-.06.02-.11.05-.17.1l-.06-.06c.04-.06.08-.12.1-.17.02-.06.03-.13.03-.23v-2.49c0-.08,0-.15-.03-.21-.02-.06-.05-.12-.1-.18l.06-.06c.06.05.11.08.16.09.05.01.13.03.23.03h3.81v-1.71h-3.81c-.1,0-.17,0-.22.02-.05.01-.11.05-.18.1l-.07-.07c.06-.08.09-.15.11-.2.02-.05.03-.12.03-.19v-2.3c0-.08,0-.15-.03-.21-.02-.06-.05-.12-.1-.19l.06-.06c.08.05.14.09.2.11" fill="#fff" stroke-width="0"/>
  <path d="M225.61,33.35h-4.36c-.1,0-.18,0-.23.03-.05.02-.11.05-.17.1l-.05-.06c.04-.06.07-.12.09-.17.02-.06.03-.13.03-.23v-2.49c0-.08-.01-.15-.03-.21-.02-.06-.05-.12-.09-.18l.06-.06c.06.05.11.08.16.09.05.01.12.03.23.03h3.81v-1.71h-3.81c-.1,0-.17,0-.22.02-.05.01-.11.05-.18.1l-.06-.07c.05-.08.09-.15.11-.2.02-.05.03-.12.03-.19v-2.3c0-.08-.01-.15-.03-.21-.02-.06-.05-.12-.09-.19l.05-.06c.08.05.15.09.2.11.06.02.12.03.19.03h4.36l-.19-1.74h-6.3v11.29h6.29l.21-1.74h0Z" fill="#fff" stroke-width="0"/>
  <path d="M91.42,31.7h3.71l1.2,3.39h1.85l-4.1-11.29h-1.61l-4.11,11.29h1.86l1.2-3.39h0ZM91.9,29.93s.05-.09.07-.15l1.07-3.09c.05-.13.09-.32.12-.56.03-.24.05-.52.06-.82h.09c.01.31.03.58.06.82.03.24.07.43.11.56l1.06,3.09c.02.06.05.12.07.15.03.04.07.08.12.11l-.05.08c-.06-.02-.11-.04-.17-.05-.05-.01-.11-.02-.19-.02h-2.14c-.07,0-.13,0-.17.01-.05,0-.11.02-.18.05l-.06-.08s.08-.07.11-.11" fill="#fff" stroke-width="0"/>
  <path d="M231.83,33.35c-.1,0-.18,0-.23.03-.05.02-.11.05-.16.1l-.07-.06c.05-.05.08-.1.1-.15.02-.05.03-.13.03-.24v-9.23h-1.86v11.3h5.74l.28-1.74h-3.83Z" fill="#fff" stroke-width="0"/>
  <path d="M82.59,31.22c-.08.3-.14.56-.18.79-.03.23-.06.61-.07,1.14h-.09c-.06-.54-.1-.94-.14-1.17-.04-.23-.11-.49-.2-.76l-1.94-5.72-1.93,5.73c-.09.27-.16.52-.21.75-.04.23-.09.62-.14,1.17h-.1c-.01-.53-.04-.91-.07-1.14-.03-.23-.09-.49-.18-.79l-2.13-7.42h-1.97l3.42,11.29h1.68l1.41-4.51c.04-.14.08-.34.11-.6.03-.25.05-.56.07-.93h.08c.01.36.04.67.07.92.03.25.07.46.11.6l1.41,4.51h1.66l3.44-11.29h-1.97l-2.13,7.42h0Z" fill="#fff" stroke-width="0"/>
</svg>