<?xml version="1.0" encoding="UTF-8"?>
<svg id="Calque_1" data-name="Calque 1" xmlns="http://www.w3.org/2000/svg" width="105" height="6.4" version="1.1" viewBox="0 0 105 6.4">
  <defs>
    <style>
      .cls-1 {
        fill: #fbba40;
        stroke-width: 0px;
      }
    </style>
  </defs>
  <path class="cls-1" d="M81.5,4.6c7.8-.5,15.6-1.3,23.4-2,.1,0,.1-.2,0-.2C77.8,1.9,50.7,1.2,23.7.5c-3.7-.1-7.4-.2-11.1-.2-3.6,0-8.1-.6-11.5.9C-.1,1.7-.5,3.5.8,4.2c2.8,1.5,6.5,1.5,9.6,1.6,3.3.2,6.6.3,9.9.4,6.9.1,13.8.2,20.7.1,13.5-.2,27-.8,40.5-1.7Z"/>
</svg>