<svg width="131" height="168" viewBox="0 0 131 168" xmlns="http://www.w3.org/2000/svg">
<path d="M39.3013 5.85847C16.9536 16.0832 3.33552 40.2257 6.74238 64.5342C8.36143 76.0806 15.2499 86.2753 24.0595 93.6079C28.7613 97.5215 34.1836 100.198 39.7895 102.528C50.903 107.149 62.7926 106.175 67.8034 119.305C67.7155 119.461 67.6386 119.63 67.5745 119.815C63.3753 131.732 75.8103 146.202 83.6716 153.715C88.8014 158.614 94.8647 160.232 101.165 159.716C104.604 166.253 111.167 169.805 118.263 167.07C125.155 164.415 127.482 155.254 123.926 149.093C128.015 144.719 130.358 139.097 129.342 132.303C127.421 119.501 121.137 102.941 109.171 96.3348C108.847 96.1566 108.526 96.0494 108.217 95.9978C106.281 89.2177 105.326 82.9644 107.746 76.0896C109.526 71.0285 112.788 66.5725 114.743 61.5706C119.546 49.2798 118.248 36.5481 112.292 24.8203C98.8961 -1.55456 63.442 -5.18386 39.3013 5.85847ZM81.3509 103.193C76.3383 95.7572 71.9202 88.9508 63.9276 84.6372C58.545 81.7306 53.25 79.3779 48.8283 75.0266C41.3433 67.6596 41.2504 54.8855 52.0803 50.9207C53.0552 50.5637 54.272 50.4377 55.611 50.4998C52.4406 57.6982 53.782 67.1547 63.0019 68.3088C69.0689 69.0687 76.3462 62.4743 73.1276 56.2416C70.9939 52.1109 66.7306 49.0619 61.9662 47.6084C68.4834 41.4045 80.2433 42.7191 83.5919 52.0168C87.6393 63.2523 80.034 72.1736 79.0827 82.6811C78.0984 93.515 87.6321 106.243 94.3631 115.243C93.81 115.625 93.2231 115.994 92.5964 116.355C91.8957 116.755 91.1675 117.113 90.4231 117.441C88.2481 112.341 84.3008 107.57 81.3464 103.191L81.3509 103.193ZM67.1663 63.848C59.1329 68.8289 56.3779 57.5844 58.9384 51.9021C59.0654 51.6208 59.2049 51.3481 59.3447 51.0831C66.9019 52.9761 74.96 59.0129 67.1633 63.8496L67.1663 63.848ZM108.821 102.77C112.208 105.343 114.851 108.9 116.963 112.807C113.285 128.223 86.0139 140.452 73.2079 130.045C72.4994 127.97 72.0752 125.886 72.0417 123.849C86.9303 129.304 107.935 118.939 108.821 102.77ZM122.258 126.014C117.976 140.683 97.8745 148.127 83.1127 145.491C80.3739 142.526 77.6473 139.008 75.5839 135.294C88.3112 142.751 112.059 130.422 118.917 116.828C120.263 119.906 121.348 123.057 122.258 126.014ZM115.738 162.451C111.788 164.376 109.223 161.456 106.764 158.729C108.475 158.28 110.187 157.703 111.89 157.016C114.633 155.909 117.264 154.504 119.623 152.823C120.486 156.777 120.374 160.194 115.738 162.451ZM112.591 150.714C104.393 155.028 94.8257 156.215 87.6183 149.897C87.2909 149.608 86.9555 149.305 86.6152 148.993C92.5609 149.587 99.3571 147.945 103.748 146.253C111.783 143.154 119.457 138.326 123.427 130.943C124.727 139.577 121.351 146.105 112.591 150.714ZM110.983 41.4969C113.088 53.4037 106.466 62.1676 102.208 72.4345C98.433 81.5392 99.0245 89.942 103.541 98.5962C102.35 104.818 100.778 109.808 96.3262 113.723C90.8063 104.489 80.4971 89.9919 83.237 80.945C86.923 68.7874 93.2735 53.2899 82.0995 42.7697C75.5879 36.6397 63.2087 40.383 57.8734 46.777C51.9768 46.1596 46.0148 48.0463 42.7826 53.3382C35.4717 65.3084 44.2325 77.5737 54.8741 83.6818C58.656 85.8512 62.6258 87.6676 66.3923 89.8722C70.6993 92.3961 74.0109 98.447 76.8002 102.341C80.5771 107.61 84.1171 113.058 87.7216 118.448C82.8869 119.926 77.5121 120.016 72.7147 118.769C72.7043 118.694 72.6955 118.622 72.6834 118.543C70.6621 107.845 63.4549 103.088 53.5706 99.9042C39.138 95.2535 26.5787 90.6286 18.1702 77.1148C4.24496 54.7309 17.431 26.9433 37.6699 14.2019C64.3989 -2.62664 105.04 7.8769 110.983 41.4969Z"/>
<path d="M54.644 10.8355C54.4611 10.8811 54.4938 11.1448 54.6774 11.1568C63.9584 11.726 72.571 12.2347 81.4388 15.5166C92.5711 19.6375 98.2526 27.8238 103.825 37.6545C104.026 38.0079 104.508 37.7842 104.457 37.4152C101.659 16.9138 72.4047 6.33908 54.6394 10.8342L54.644 10.8355Z"/>
<path d="M104.875 40.2964C105.043 41.1307 105.348 41.9286 105.431 42.7825C105.53 43.7932 105.572 44.6651 105.912 45.6373C105.985 45.8483 106.291 45.9514 106.417 45.7171C107.262 44.1582 107.273 40.6192 105.095 40.0876C104.965 40.0542 104.844 40.1627 104.872 40.298L104.875 40.2964Z"/>
<path d="M29.8773 81.5824C24.9115 77.3342 21.6368 71.7377 17.6316 66.6775C17.4757 66.477 17.1108 66.6755 17.1926 66.9164C20.8335 77.7328 32.1729 89.7791 43.6948 91.96C43.9357 92.0063 44.2072 91.7005 43.9727 91.5041C39.5381 87.8115 34.311 85.3718 29.8802 81.5808L29.8773 81.5824Z"/>
<path d="M119.142 64.2337C114.408 71.7394 108.685 83.3273 111.124 92.453C111.204 92.7484 111.605 92.6924 111.638 92.4007C112.188 87.3072 112.64 82.5636 114.304 77.6699C115.836 73.1606 118.067 68.9378 119.514 64.3936C119.585 64.1702 119.266 64.0387 119.145 64.232L119.142 64.2337Z"/>
<path d="M62.9003 121.213C62.9027 121.077 62.7266 121.065 62.6764 121.177C58.7993 130.214 66.6383 142.68 73.4147 148.331C73.6116 148.494 73.9584 148.297 73.805 148.045C68.2328 139.109 62.7186 132.297 62.9003 121.213Z"/>
<path d="M13.5324 21.6207C13.6689 21.4269 13.3838 21.2156 13.2171 21.3681C-1.31843 34.9015 -3.72403 60.3711 5.30545 77.7204C5.364 77.8274 5.52503 77.7629 5.49939 77.6457C3.56868 68.2167 1.20921 59.4955 1.93356 49.748C2.72298 39.1628 7.59233 30.145 13.5324 21.6207Z"/>
<path d="M16.9923 18.4188C17.8362 17.6819 18.5554 17.0476 19.1972 16.1313C19.3078 15.9747 19.1088 15.8361 18.9702 15.8923C17.8828 16.3181 17.1316 16.8658 16.2801 17.6802C15.7017 18.234 14.7378 19.0401 14.7859 19.9088C14.7906 19.9525 14.8233 19.9771 14.867 19.9726C15.6959 19.8764 16.3947 18.9446 16.9953 18.4172L16.9923 18.4188Z"/>
<path d="M121.051 57.6986C120.44 59.2343 119.759 60.5772 119.909 62.2809C119.936 62.5676 120.32 62.659 120.417 62.3636C120.661 61.6288 120.994 60.9425 121.217 60.1963C121.481 59.3004 121.489 58.6751 121.433 57.7568C121.422 57.5316 121.132 57.4885 121.049 57.6956L121.051 57.6986Z"/>
<path d="M128.087 150.084C128.824 153.486 129.884 156.203 128.91 159.726C128.065 162.782 125.719 165.115 123.43 167.163C123.326 167.255 123.426 167.459 123.565 167.41C129.852 165.323 133.875 154.899 128.475 149.873C128.312 149.722 128.039 149.856 128.09 150.082L128.087 150.084Z"/>
</svg>
