<svg width="239" height="281" viewBox="0 0 239 281" fill="none" xmlns="http://www.w3.org/2000/svg">
<g opacity="0.1" clip-path="url(#clip0_399_9939)">
<path d="M160.3 126.09C160.22 124.72 160.13 123.36 160.03 122.07C159.65 117.24 156.13 114.61 152.44 114.22C137.15 98.4601 115.79 99.6601 95.43 110.14C68.3 124.11 60.88 159.4 71.71 185.76C82.37 211.72 112.54 217.85 135.37 204.58C144.67 199.17 150.7 190.17 154.55 179.72C159.98 191.3 167.78 201.01 178.83 206.02C210.17 220.24 224.43 161.94 227.46 143.29C240.7 61.9001 161.53 -3.72987 84.75 27.0701C25.32 50.9101 0.639978 126.9 17.61 184.93C37.14 251.72 136.49 288.3 190.19 239.14C196.05 233.77 188.3 223.54 181.66 228.08C135.2 259.8 66.1 242.53 39.31 193.8C17.47 154.09 30.15 100.43 57.89 67.2301C95.62 22.0601 167.62 27.6501 198.99 77.0101C218.4 107.56 213.92 147.46 199.28 178.64C181.09 217.4 162.71 147.5 160.32 126.1L160.3 126.09ZM92.84 188.2C58.36 159.31 111.35 94.3201 143.61 125.89C143.63 127.71 143.69 129.58 143.79 131.5C143.15 161.92 131.54 220.64 92.85 188.2H92.84Z" fill="white"/>
<path d="M138.64 273.64C97.09 277.96 63.29 267.81 31.49 240.69C31.29 240.52 30.97 240.73 31.11 240.98C47.88 270.79 108.35 289.8 138.94 274.76C139.46 274.51 139.23 273.58 138.64 273.64Z" fill="white"/>
<path d="M162.17 261.78C156.03 264.44 149.79 267.55 144.48 271.65C144.31 271.78 144.33 272.13 144.6 272.1C151.68 271.37 158.49 268.49 162.93 262.77C163.37 262.19 162.84 261.5 162.17 261.78Z" fill="white"/>
<path d="M180.13 16.7398C200.97 27.4098 213.94 45.6598 226.47 64.6998C226.84 65.2598 227.87 64.9098 227.61 64.2098C211.8 21.6098 161.99 -6.38017 117.07 1.97983C116.58 2.07983 116.76 2.73983 117.18 2.77983C139.44 5.35983 159.72 6.29983 180.13 16.7398Z" fill="white"/>
<path d="M235.55 78.6299C234.45 76.1299 233.43 73.6599 232.13 71.2599C231.81 70.6599 231.02 71.0999 231.12 71.6799C231.56 74.4299 232.48 76.9199 233.51 79.4899C234.45 81.8499 235.17 84.8199 237.36 86.2799C237.7 86.4999 238.1 86.1999 238.12 85.8399C238.29 83.2999 236.55 80.8799 235.55 78.6299Z" fill="white"/>
<path d="M37.19 37.9802C12.57 49.4202 -4.43997 95.2302 1.02003 120.56C1.15003 121.15 1.96003 120.96 2.01003 120.43C5.25003 87.9402 16.63 63.1502 37.41 38.2902C37.55 38.1202 37.38 37.8902 37.18 37.9802H37.19Z" fill="white"/>
<path d="M233.58 171.44C228.93 177.53 226.87 185.23 223.64 192.09C220.09 199.66 215.18 205.56 209.88 211.93C209.56 212.31 209.95 212.83 210.41 212.61C223.87 206.22 233.49 185.99 234.57 171.7C234.61 171.12 233.87 171.06 233.58 171.44Z" fill="white"/>
</g>
<defs>
<clipPath id="clip0_399_9939">
<rect width="238.13" height="279.52" fill="white" transform="translate(0 0.5)"/>
</clipPath>
</defs>
</svg>
