<svg width="154" height="105" viewBox="0 0 154 105" xmlns="http://www.w3.org/2000/svg">
    <path
        d="M6.45647 12.0022C4.37569 26.0164 2.29493 40.0306 0.211821 54.0428C-0.0200048 55.5981 1.24115 57.2831 2.93032 57.0567C32.831 53.0021 61.1989 64.1568 86.018 80.0289C82.011 83.7894 78.0163 87.5686 73.9761 91.2926C73.2686 91.9445 73.2585 92.7139 73.6205 93.3264C73.7966 93.9208 74.2776 94.4133 75.1267 94.5278C96.2923 97.3726 117.171 102.044 138.391 104.585C139.233 104.685 140.117 104.33 140.694 103.723C144.472 100.29 148.693 97.386 152.716 94.2561C153.535 93.6194 154.111 92.4718 153.655 91.4323C153.407 90.8609 153.157 90.2875 152.906 89.7141C144.374 70.3183 134.738 52.0262 123.733 33.9314C123.056 32.8156 121.263 32.4204 120.217 33.2461C116.039 36.5575 111.858 39.8668 107.681 43.1758C107.677 43.1804 107.675 43.1828 107.671 43.1874C94.3314 32.4345 79.9586 23.0708 64.8575 14.9621C52.5085 8.33178 38.7664 1.82667 24.6783 0.153533C24.5793 0.137311 24.4784 0.12341 24.3735 0.114166C22.4674 -0.0226754 20.906 -0.279569 19.3757 0.937624C17.964 2.05879 16.5523 3.17995 15.1405 4.30111C12.6547 6.27627 10.1709 8.2491 7.68512 10.2243C7.04696 10.6211 6.55365 11.3194 6.45416 12.0002L6.45647 12.0022ZM16.4087 9.8223C17.8981 8.63867 19.3899 7.45703 20.8793 6.2734C21.3335 5.91253 21.7897 5.54933 22.2439 5.18845C22.4076 5.05853 22.5181 4.9718 22.5962 4.91365C22.7519 4.99061 22.9262 5.05528 23.1185 5.09902C23.2032 5.1272 23.3158 5.15106 23.4642 5.16128C24.9582 5.3322 26.4436 5.56024 27.922 5.83877C27.0807 6.89621 26.3331 8.04194 25.5822 9.1445C24.8781 10.1783 24.1069 11.2151 23.6472 12.3776C20.9414 11.6122 18.2104 10.9986 15.4718 10.568C15.7848 10.3201 16.0979 10.0722 16.4087 9.8223ZM47.2634 22.1958C48.0622 21.1504 48.748 20.0203 49.4641 18.8879C50.3408 17.502 51.7448 15.9993 52.2791 14.3685C54.0508 15.2127 55.8093 16.0819 57.5448 16.9636C55.415 19.0502 53.4916 22.1804 52.5477 25.0045C50.8165 24.066 49.0547 23.1254 47.2614 22.1982L47.2634 22.1958ZM49.0918 16.7627C48.1623 18.3937 47.1654 20.0234 46.3498 21.7238C44.5097 20.7806 42.6383 19.855 40.7454 18.9594C41.756 17.8172 42.5215 16.4529 43.3707 15.1886C44.1246 14.0684 45.518 12.8792 46.0567 11.5586C47.7089 12.2601 49.3527 12.9948 50.979 13.7548C50.1742 14.5814 49.6939 15.7021 49.0918 16.7627ZM42.4333 13.6761C41.5417 15.2347 40.5962 16.8843 39.9799 18.6061C37.7908 17.5857 35.5684 16.6136 33.3212 15.7128C34.0488 14.5056 34.7765 13.2985 35.5742 12.1271C36.364 10.9651 37.3052 9.76748 37.8279 8.43723C39.9961 9.1574 42.1444 9.95729 44.2671 10.8199C43.4773 11.5868 42.9409 12.7965 42.4333 13.6761ZM33.5791 11.7084C32.9251 12.7731 32.231 13.9081 31.8005 15.1118C29.4487 14.2061 27.0686 13.3851 24.671 12.674C25.4153 11.8803 26.0238 10.9581 26.7024 10.1C27.7369 8.78874 28.9085 7.56674 29.9314 6.24554C31.9036 6.6769 33.8569 7.20093 35.7979 7.79104C35.0102 9.06365 34.3552 10.4541 33.5814 11.7104L33.5791 11.7084ZM5.7638 51.5653C7.56766 39.4225 9.37383 27.2817 11.1777 15.1389C25.4709 16.2903 39.6296 23.9465 51.9683 30.5277C69.3224 39.7799 85.7543 51.125 100.366 64.2939C101.552 65.3616 103.68 64.9514 104.307 63.4481C106.048 59.2507 107.792 55.0509 109.533 50.8535C118.932 66.5691 127.297 82.519 134.847 99.2268C116.54 96.8425 98.3998 93.0817 80.0532 91.063C83.7113 87.7334 87.3953 84.4299 91.0606 81.1106C91.8604 80.3885 91.7067 78.7046 90.8289 78.106C65.5278 60.8251 36.7906 48.4309 5.76613 51.5673L5.7638 51.5653ZM63.2524 24.6989C64.1319 23.658 65.44 22.6578 66.0538 21.4095C67.7286 22.3199 69.3917 23.2485 71.0456 24.1975C70.9091 24.3709 70.7983 24.5944 70.6436 24.9256C70.0534 26.1981 69.2201 27.3591 68.4138 28.5029C67.537 29.7477 66.3943 31.0912 65.7337 32.5493C63.7637 31.3578 61.7801 30.1869 59.7808 29.039C60.97 27.6224 62.0566 26.1138 63.2481 24.6992L63.2524 24.6989ZM148.296 91.3174C148.32 91.3699 148.341 91.4204 148.363 91.4708C145.466 93.6992 142.543 95.8798 139.742 98.2224C139.138 96.8708 138.531 95.5239 137.917 94.1796C139.821 93.1333 141.699 91.976 143.58 90.8944C144.761 90.2167 146.01 89.5164 147.101 88.6481C147.501 89.5356 147.902 90.423 148.298 91.3151L148.296 91.3174ZM141.94 89.9771C140.413 90.8705 138.697 91.937 137.539 93.3556C136.952 92.0787 136.358 90.8045 135.761 89.5349C137.503 88.8984 139.2 87.5858 140.622 86.7071C141.823 85.9583 143.678 85.2284 145.093 84.2633C145.52 85.1856 145.943 86.1083 146.364 87.0332C144.962 88.1189 143.504 89.0591 141.94 89.9771ZM140.423 84.7184C138.827 85.7018 136.645 86.6719 135.009 87.9473C134.345 86.5482 133.675 85.1518 132.999 83.7624C134.793 82.8961 136.514 81.5642 138.197 80.6306C139.436 79.9462 141.019 79.3632 142.409 78.6021C143.004 79.8414 143.597 81.0831 144.184 82.3318C142.828 82.9448 141.513 84.0477 140.423 84.7184ZM137.221 79.1819C135.639 80.0122 133.671 80.955 132.279 82.283C131.491 80.6765 130.695 79.0793 129.888 77.485C131.808 76.8521 133.62 75.739 135.379 74.806C136.67 74.1219 138.143 73.4802 139.526 72.7174C140.201 74.07 140.872 75.4228 141.535 76.785C140.021 77.4885 138.542 78.4911 137.223 79.1839L137.221 79.1819ZM135.426 72.9111C133.45 74.0369 131.208 75.0313 129.34 76.407C128.339 74.437 127.324 72.4789 126.298 70.5238C128.193 70.288 130.025 69.2885 131.753 68.564C133.282 67.9224 134.844 67.2238 136.272 66.3381C137.072 67.8786 137.865 69.424 138.649 70.9744C137.54 71.601 136.472 72.3155 135.428 72.9088L135.426 72.9111ZM130.315 67.1989C128.791 67.9097 127.059 68.426 125.764 69.5056C124.956 67.9787 124.143 66.4566 123.318 64.9354C124.783 64.4159 126.152 63.6172 127.517 62.871C129.088 62.0111 131.435 61.2236 132.861 59.8972C133.689 61.429 134.507 62.9681 135.317 64.5122C133.695 65.478 132.057 66.3844 130.315 67.1989ZM128.148 60.501C126.328 61.5018 124.362 62.4987 122.697 63.8023C121.948 62.4315 121.192 61.0657 120.428 59.6983C122.23 59.0398 123.967 58.1649 125.717 57.4105C127.203 56.7679 129.058 56.2203 130.181 55.013C130.834 56.1892 131.48 57.3638 132.121 58.5453C130.712 58.8346 129.359 59.8362 128.144 60.5013L128.148 60.501ZM124.161 55.8396C122.618 56.5822 121.026 57.3113 119.67 58.3434C118.843 56.8724 118.007 55.4064 117.162 53.941C118.681 53.5932 120.095 52.9778 121.529 52.2588C123.149 51.445 125.447 50.6439 127.031 49.416C127.829 50.809 128.62 52.2047 129.404 53.6053C127.575 53.8251 125.757 55.0776 124.163 55.8416L124.161 55.8396ZM122.182 50.1454C120.361 51.1658 118.473 52.0524 116.656 53.0725C116 51.9378 115.335 50.8038 114.668 49.672C116.283 48.9629 117.809 48.0001 119.316 47.1299C120.863 46.2372 122.633 45.4356 124.049 44.2859C124.759 45.4903 125.462 46.6974 126.159 47.9071C124.753 48.4329 123.402 49.4647 122.18 50.1477L122.182 50.1454ZM119.382 45.34C117.605 46.3657 115.668 47.3191 114.031 48.5987C113.5 47.7041 112.962 46.8077 112.426 45.9134C115.274 43.6474 118.119 41.3796 120.965 39.1116C121.761 40.4266 122.553 41.7462 123.332 43.0669C121.958 43.6879 120.692 44.5828 119.382 45.34ZM105.333 47.8328C103.904 51.2612 102.472 54.692 101.044 58.1248C99.3647 56.6545 97.6623 55.2165 95.9399 53.8017C97.2221 52.6624 98.2001 51.1536 99.2568 49.821C100.27 48.5397 101.839 47.2956 102.97 45.9335C103.761 46.5627 104.552 47.1962 105.335 47.8348L105.333 47.8328ZM99.259 47.2869C97.8424 49.049 96.1692 51.0025 95.086 53.0905C93.6892 51.9545 92.2787 50.8391 90.8562 49.7377C92.247 48.4857 93.4309 46.9718 94.6639 45.5887C95.7031 44.4225 97.1311 43.4 98.0596 42.123C99.1895 42.9779 100.316 43.8417 101.43 44.7152C100.606 45.4694 99.9266 46.4557 99.257 47.2893L99.259 47.2869ZM89.8911 48.9916C88.5086 47.9283 87.114 46.879 85.7099 45.8456C86.5615 44.9785 87.3393 44.028 88.1434 43.108C89.568 41.4778 91.2247 39.8165 92.4241 37.9692C93.8558 38.994 95.2776 40.0303 96.6877 41.085C95.7388 41.7881 94.9885 42.8146 94.1429 43.7313C92.6629 45.3463 91.0679 47.0766 89.8908 48.9873L89.8911 48.9916ZM87.4387 41.0369C86.4414 42.2953 85.3515 43.5631 84.4356 44.9194C82.7913 43.7288 81.1374 42.5541 79.4636 41.4026C80.355 40.4889 81.1481 39.4547 81.9343 38.5275C83.0564 37.1986 85.2214 35.118 85.5216 33.1818C87.3186 34.3824 89.098 35.6082 90.8638 36.8546C89.5816 38.1068 88.5492 39.6416 87.441 41.0389L87.4387 41.0369ZM80.7117 37.4844C79.9422 38.5146 79.0056 39.4904 78.1803 40.5292C76.4457 39.3499 74.6972 38.1868 72.9354 37.0487C74.0038 35.9237 74.8483 34.5143 75.7244 33.2891C76.7236 31.8872 78.2618 30.6043 79.2783 29.1446C80.9531 30.1961 82.6163 31.2659 84.2659 32.3562C82.7479 33.5074 81.8156 36.0028 80.7094 37.4824L80.7117 37.4844ZM74.943 31.2934C73.8627 32.7992 72.5773 34.4882 71.6724 36.241C70.0418 35.1991 68.3992 34.1712 66.7473 33.1635C68.0544 31.9527 69.1556 30.3519 70.1784 29.0024C70.9194 28.0244 72.3351 26.5034 72.5848 25.0966C74.2493 26.0707 75.9039 27.0565 77.5451 28.0672C76.5112 28.9355 75.7275 30.2034 74.943 31.2934ZM62.68 19.6124C63.3203 19.9471 63.9569 20.2908 64.5932 20.6302C63.6065 21.4622 62.8931 22.7703 62.1438 23.7534C60.9762 25.2812 59.8027 26.8442 58.9612 28.5748C57.3668 27.6647 55.7644 26.7639 54.1504 25.8814C53.8353 25.7082 53.5135 25.5334 53.194 25.3605C54.2979 24.1329 55.2055 22.7533 56.1882 21.4179C57.1081 20.1698 58.1652 19.0109 59.0097 17.7144C60.2418 18.3464 61.4632 18.9814 62.678 19.6147L62.68 19.6124Z"/>
</svg>
