<svg width="64" height="65" viewBox="0 0 64 65" fill="none" xmlns="http://www.w3.org/2000/svg">
<path d="M28.364 4.20419C30.1985 9.49589 32.3599 14.6005 33.7218 20.1014C34.7695 24.2862 35.6687 28.5508 36.2492 32.8293C30.8564 31.8827 25.428 31.0789 19.9531 30.649C16.611 30.3768 13.2662 30.1623 9.93812 30.2089C8.20125 30.2432 6.46438 30.2776 4.72481 30.3696C4.20266 30.403 3.56779 30.3733 3.09526 30.5825C2.23541 31.0339 1.91439 31.713 0.864704 31.8952C0.457992 31.934 0.546394 32.5166 0.920193 32.563C1.95637 32.6694 2.02267 33.1063 2.78156 33.5756C3.45792 33.9544 3.80422 33.9706 4.58203 34.0359C6.07993 34.1639 7.55302 34.204 9.05092 34.332C12.393 34.6042 15.7351 34.8764 19.0745 35.2063C25.6627 35.9487 32.1769 37.0346 38.5815 38.6071C40.1263 38.9686 42.1373 38.0217 42.0507 36.1667C41.8042 30.3131 41.3242 24.5064 39.9429 18.8021C38.5836 13.2434 36.897 7.26455 34.1255 2.21818C32.554 -0.66076 27.2483 0.854944 28.4492 4.2371L28.364 4.20419Z" fill="#FBBA40"/>
<path d="M56.2773 20.7818C55.2106 23.7974 56.0107 27.7103 56.0352 30.8928C56.1065 34.3088 56.0625 37.7194 55.9607 41.1273C55.7838 46.7587 55.3484 52.349 54.7977 57.9338C43.3776 56.6181 31.9517 54.8105 20.4582 54.4458C18.6388 54.3895 17.9869 57.1932 19.8726 57.6864C31.9538 60.9419 44.5173 62.5425 56.8424 64.9128C59.165 65.3397 60.868 64.1759 61.2372 61.8505C62.342 54.9323 63.0154 47.965 63.2545 41.0062C63.3865 37.5708 63.4305 34.1601 63.3866 30.7743C63.3401 27.4462 63.793 23.3317 62.2874 20.2824C60.9936 17.6478 57.2097 18.1647 56.2773 20.7818Z" fill="#FBBA40"/>
</svg>
