<svg width="171" height="194" viewBox="0 0 171 194" fill="none" xmlns="http://www.w3.org/2000/svg">
<path d="M161.884 113.236C157.422 97.383 151.966 81.7828 146.692 66.1867C141.969 52.2094 137.129 38.2728 132.269 24.3443C127.749 11.3863 126.771 3.09536 111.915 1.81191C111.603 1.78503 111.329 1.81963 111.073 1.88008C93.5512 0.891014 74.1542 7.95954 57.7353 12.8722C47.5629 15.9182 37.5141 19.4062 27.7102 23.483C20.6539 26.4158 19.5382 28.104 16.4243 34.7395C11.5605 45.1068 2.58277 57.8924 5.6087 69.5771C10.0952 86.8923 16.4171 103.834 22.3669 120.681C28.4775 137.988 34.751 155.263 41.5171 172.324C42.9835 176.028 44.5958 182.678 47.8291 185.215C51.2991 187.935 57.5661 185.244 61.4959 184.348C79.5598 180.239 97.4099 174.847 115.085 169.331C123.758 166.625 132.374 163.727 140.881 160.536C142.266 160.015 143.744 159.477 145.241 158.91C145.342 158.865 145.445 158.864 145.545 158.802C145.553 158.8 145.558 158.791 145.568 158.785C151.121 156.658 157 154.001 160.448 149.461C168.348 139.05 165.165 124.872 161.886 113.228L161.884 113.236ZM28.7605 121.901C22.6185 104.653 16.4084 87.3317 11.4906 69.687C8.8147 60.1015 15.1671 48.1778 20.5185 38.427C21.1049 42.78 22.3955 47.1915 23.3052 51.0849C26.1729 63.3405 29.9457 75.4106 33.7381 87.4024C41.0219 110.41 48.4862 134.351 59.3299 155.994C59.9203 157.176 61.0872 157.856 62.6458 158.169C63.009 159.526 63.4121 160.863 63.3944 162.353C63.3533 165.573 61.6659 168.619 60.0085 171.266C58.364 173.888 56.2901 176.239 54.1325 178.446C53.4932 179.098 52.5937 179.759 51.9113 180.516C51.8197 180.536 51.73 180.549 51.6384 180.569C50.6802 180.781 48.5129 174.579 48.1423 173.689C41.0905 156.672 34.9392 139.248 28.7605 121.901ZM79.6333 173.859C72.832 175.723 66.0092 177.54 59.133 179.099C58.2389 179.3 57.3362 179.463 56.4387 179.632C56.497 179.578 56.5601 179.513 56.6157 179.463C59.3974 176.904 61.7901 173.972 63.7563 170.751C65.4961 167.908 67.4852 162.168 66.2079 158.334C76.2406 157.662 93.4661 149.548 97.3046 148.273C107.319 144.948 117.329 141.616 127.367 138.367C129.861 137.56 132.355 136.69 134.898 136.043C146.157 133.163 150.318 146.085 144.187 153.2C142.874 153.779 141.528 154.325 140.169 154.866C120.549 162.63 99.9598 168.285 79.6333 173.859ZM152.867 148.282C154.261 138.217 144.451 127.324 132.008 131.032C112.16 136.947 92.6223 143.999 72.9432 150.461C70.4106 151.291 67.8618 151.981 65.3067 152.742C62.7276 153.513 59.664 142.86 58.502 140.098C52.894 126.782 48.1207 113.097 43.4547 99.4282C38.8569 85.9516 34.5739 72.361 30.7682 58.6389C28.3951 50.0877 24.5555 39.7693 25.333 30.7425C25.3433 30.622 25.334 30.5132 25.3318 30.4028C29.6078 26.8473 41.2758 24.2131 44.8998 22.938C53.2907 19.9906 61.8311 17.4685 70.3991 15.088C83.0126 11.583 97.878 6.23071 111.185 6.55984C111.336 6.60772 111.496 6.64621 111.667 6.66749C123.774 8.18969 123.859 16.2865 127.394 26.6316C130.092 34.5307 132.797 42.4282 135.506 50.3249C142.217 69.9119 148.941 89.5185 154.959 109.329C157.273 116.947 159.222 124.469 159.746 132.461C160.237 139.94 157.355 144.753 152.868 148.274L152.867 148.282Z" fill="#F8F8F8"/>
<path d="M51.3119 173.416C45.669 154.132 38.5218 135.248 31.9276 116.274C25.8832 98.8826 20.7967 80.7431 13.3322 63.8986C13.2588 63.7338 13.0004 63.8353 13.0414 64.0036C17.427 82.9671 25.0078 101.523 31.3265 119.903C37.5031 137.875 43.3798 156.095 50.8609 173.582C50.9687 173.836 51.388 173.676 51.3119 173.416Z" fill="#F8F8F8"/>
<path d="M140.303 150.194C127.644 153.125 115.398 157.706 103.052 161.702C90.8266 165.657 77.6001 168.363 65.8201 173.479C65.6952 173.533 65.7428 173.748 65.8778 173.74C78.4606 173.202 91.6226 167.551 103.502 163.735C115.934 159.742 128.494 155.897 140.506 150.741C140.816 150.609 140.623 150.12 140.303 150.194Z" fill="#F8F8F8"/>
<path d="M102.704 158.427C115.27 155.794 127.586 151.612 139.664 147.305C139.972 147.196 139.892 146.734 139.552 146.798C126.917 149.173 114.773 153.982 102.629 158.089C102.424 158.16 102.482 158.476 102.704 158.427Z" fill="#F8F8F8"/>
<path d="M72.458 162.195C84.5167 159.456 97.1148 155.998 108.195 150.408C108.488 150.262 108.318 149.76 107.993 149.862C96.0477 153.481 84.0586 157.369 72.3387 161.656C72.0142 161.776 72.0995 162.278 72.4588 162.198L72.458 162.195Z" fill="#F8F8F8"/>
<path d="M111.19 149.195C112.82 149.063 114.358 148.464 115.896 147.935C117.329 147.444 118.603 146.989 119.839 146.098C120.04 145.954 119.9 145.571 119.653 145.589C118.368 145.662 117.274 145.978 116.071 146.422C114.377 147.048 112.557 147.577 111.06 148.61C110.843 148.762 110.842 149.227 111.191 149.198L111.19 149.195Z" fill="#F8F8F8"/>
<path d="M47.1506 147.869C47.2549 148.123 47.6883 147.961 47.6016 147.703C42.1338 131.13 36.3476 114.671 30.664 98.1755C25.8803 84.2929 21.861 69.4724 15.3774 56.258C15.3243 56.1515 15.1536 56.2151 15.1828 56.3306C19.0796 71.6328 25.2674 86.6496 30.3966 101.576C35.7334 117.106 40.954 132.662 47.1479 147.873L47.1506 147.869Z" fill="#F8F8F8"/>
<path d="M50.9512 156.625C50.6917 154.417 49.9493 152.098 48.68 150.254C48.5882 150.123 48.3036 150.123 48.3207 150.334C48.5098 152.591 49.3857 154.862 50.5958 156.756C50.7142 156.94 50.9769 156.842 50.9512 156.625Z" fill="#F8F8F8"/>
<path d="M57.2206 166.801C54.7388 154.937 50.2046 142.733 45.1606 131.698C45.0656 131.486 44.6988 131.615 44.7742 131.839C48.7398 143.511 52.2821 155.492 56.7998 166.954C56.8946 167.199 57.2701 167.042 57.2198 166.798L57.2206 166.801Z" fill="#F8F8F8"/>
<path d="M98.943 159.566C99.2269 159.463 99.1541 159.017 98.8378 159.091C89.1207 161.423 78.993 164.237 69.7537 168.059C69.6758 168.091 69.7062 168.229 69.7896 168.222C79.4951 167.507 89.8447 162.874 98.9423 159.563L98.943 159.566Z" fill="#F8F8F8"/>
<path d="M139.338 140.688C134.353 141.895 128.717 143.531 124.313 146.205C124.163 146.298 124.244 146.527 124.418 146.496C129.426 145.58 135.274 144.167 139.573 141.335C139.882 141.13 139.741 140.592 139.334 140.689L139.338 140.688Z" fill="#F8F8F8"/>
<path d="M50.8962 160.618C51.5689 163.858 52.862 167.596 54.7265 170.343C54.8578 170.536 55.1511 170.441 55.1129 170.202C54.6006 166.953 53.3218 163.012 51.191 160.464C51.0757 160.327 50.8603 160.456 50.8927 160.619L50.8962 160.618Z" fill="#F8F8F8"/>
<path d="M27.8782 80.7131C32.4415 93.3326 36.0894 106.258 40.7956 118.839C40.8659 119.023 41.1763 118.906 41.1166 118.719C37.2259 105.933 33.4238 92.9119 28.0728 80.6405C28.0267 80.5324 27.8384 80.6 27.8775 80.7096L27.8782 80.7131Z" fill="#F8F8F8"/>
<path d="M22.9388 64.023C23.062 64.1953 23.363 64.0696 23.3597 63.8707C23.3038 61.481 22.4909 59.2107 21.8482 56.9249C21.2314 54.7221 20.5827 52.1087 18.8503 50.5261C18.7811 50.4638 18.6351 50.4887 18.6381 50.6026C18.7598 52.8559 19.7603 55.0884 20.3897 57.2477C21.0734 59.602 21.4905 62.0042 22.9353 64.0238L22.9388 64.023Z" fill="#F8F8F8"/>
<path d="M23.828 67.7399C24.1024 69.0465 24.3448 70.242 25.3722 71.1603C25.5337 71.3056 25.7635 71.2252 25.793 71.008C25.9903 69.6117 25.4747 68.3843 25.1213 67.0545C25.0409 66.7582 24.709 64.9912 23.983 65.4513C23.2178 65.9347 23.6803 67.0224 23.828 67.7399Z" fill="#F8F8F8"/>
<path d="M141.537 38.2174C139.67 30.8513 137.92 23.4446 135.541 16.2213C133.98 11.4891 131.664 4.88029 126.678 2.74265C126.576 2.69873 126.481 2.85286 126.56 2.92768C136.502 11.8771 135.376 27.1453 141.099 38.3771C141.218 38.6132 141.601 38.473 141.533 38.2182L141.537 38.2174Z" fill="#F8F8F8"/>
<path d="M141.565 40.7833C141.748 43.1117 142.831 45.3815 144.292 47.1572C144.398 47.2888 144.567 47.1332 144.515 46.9969C143.705 44.8922 142.975 42.7441 142.136 40.657C142.028 40.3853 141.54 40.4858 141.565 40.7833Z" fill="#F8F8F8"/>
<path d="M125.1 170.552C109.478 175.724 93.7292 180.592 77.9595 185.298C71.1228 187.336 64.2237 189.092 57.3546 191C54.7196 191.735 52.066 192.252 49.3213 192.257C45.1688 192.263 43.2219 188.91 41.5828 185.695C39.2721 181.166 38.0051 176.21 36.477 171.393C36.377 171.075 35.9218 171.172 35.9696 171.505C36.9529 178.302 39.4822 190.348 46.6701 193.236C50.7715 194.885 56.4341 192.752 60.3629 191.635C64.1488 190.557 67.9937 189.695 71.7839 188.62C89.7547 183.523 107.892 177.893 125.219 170.873C125.399 170.8 125.286 170.488 125.1 170.552Z" fill="#F8F8F8"/>
<path d="M1.21532 62.4672C0.909356 55.0069 5.49163 47.5919 8.64177 41.2035C8.71313 41.0583 8.54771 40.8954 8.41572 41.017C3.98459 45.1242 1.27341 53.0785 0.37455 58.9022C-0.909586 67.2096 3.01934 74.6589 5.68474 82.3102C5.76517 82.54 6.09437 82.4745 6.05818 82.2275C5.03269 75.4402 1.50137 69.4034 1.21532 62.4672Z" fill="#F8F8F8"/>
<path d="M6.64754 85.5082C7.38986 88.8621 8.65264 92.2967 10.1357 95.3906C10.2118 95.5511 10.4604 95.4555 10.4265 95.2856C9.71749 91.9317 8.68295 88.4096 7.22852 85.2946C7.07538 84.97 6.57268 85.1699 6.64754 85.5082Z" fill="#F8F8F8"/>
<path d="M165.786 112.014C165.717 111.834 165.396 111.905 165.413 112.097C165.919 119.228 168.057 126.146 168.467 133.328C168.893 140.81 166.652 146.865 162.77 153.123C162.629 153.354 162.927 153.595 163.128 153.421C173.894 144.057 170.207 123.605 165.789 112.01L165.786 112.014Z" fill="#F8F8F8"/>
<path d="M67.6601 6.08558C75.1734 3.76487 82.83 2.1922 90.5597 0.799227C90.7691 0.760268 90.7443 0.414663 90.5279 0.421915C75.1478 1.12816 59.1607 6.93937 45.0302 12.7905C44.854 12.8628 44.9673 13.1407 45.1426 13.0982C52.7666 11.2445 60.1637 8.39888 67.6601 6.08558Z" fill="#F8F8F8"/>
<path d="M115.455 99.9565C115.532 101.824 116.068 103.675 116.28 105.539C116.485 107.349 116.155 109.163 116.806 110.885C116.914 111.171 117.355 111.148 117.496 110.913C118.407 109.388 118.221 107.66 118.033 105.942C117.804 103.875 117.469 101.543 116.339 99.7608C116.113 99.408 115.436 99.4508 115.455 99.9565Z" fill="#F8F8F8"/>
<path d="M118.914 99.3387C118.701 99.3119 118.562 99.5016 118.533 99.6856C118.421 100.416 118.872 101.27 119.077 101.963C119.346 102.876 119.231 103.91 119.724 104.736C119.983 105.17 120.741 105.32 121.007 104.788C121.533 103.741 121.174 102.638 120.814 101.579C120.509 100.686 119.965 99.4758 118.918 99.3415L118.914 99.3387Z" fill="#F8F8F8"/>
<path d="M57.7966 33.3028C58.6713 33.7818 59.837 32.6036 58.9856 31.8792C58.117 31.1438 57.1646 30.4973 56.2697 29.7936C55.4049 29.1091 54.7119 28.516 53.5911 28.3945C53.2237 28.3539 52.963 28.7959 53.1358 29.1088C53.6375 30.0066 54.3067 30.5422 55.0916 31.2C55.9509 31.9263 56.808 32.7603 57.7966 33.3028Z" fill="#F8F8F8"/>
<path d="M58.6894 28.6039C59.2359 28.8525 59.7671 29.1821 60.327 29.3908C60.9996 29.6411 61.3551 29.4774 62.0107 29.384C62.2972 29.3428 62.4811 28.9547 62.3232 28.7088C62.0703 28.3176 62.0093 27.858 61.5539 27.604C60.9476 27.2689 60.3013 27.0202 59.6596 26.7594C58.5868 26.3205 57.527 25.8899 56.3624 26.1218C55.9416 26.2075 55.6957 26.8163 56.0489 27.1262C56.8338 27.8172 57.7407 28.1746 58.6894 28.6039Z" fill="#F8F8F8"/>
<path d="M80.3485 105.709C78.4498 106.414 76.6671 107.259 75.2987 108.774C75.1479 108.944 75.2733 109.194 75.5027 109.161C77.0567 108.936 78.4395 108.371 79.8904 107.78C81.3386 107.193 83.6419 107.131 84.4897 105.701C84.5943 105.523 84.5534 105.288 84.3727 105.173C83.0889 104.348 81.6593 105.219 80.3485 105.709Z" fill="#F8F8F8"/>
<path d="M80.3922 109.613C79.6014 109.814 78.6921 109.963 78.2367 110.711C78.134 110.881 78.1832 111.103 78.3482 111.214C79.0801 111.699 79.964 111.452 80.7657 111.3C81.8163 111.105 82.7455 110.962 83.4621 110.109C83.6321 109.908 83.5775 109.662 83.3389 109.552C82.3291 109.081 81.4272 109.347 80.3914 109.609L80.3922 109.613Z" fill="#F8F8F8"/>
<path d="M110.942 32.1282C106.538 26.3548 99.0647 28.7072 93.3292 30.4275C85.3173 32.8327 77.498 36.0749 69.6223 38.8786C64.0318 40.8699 58.3628 42.1726 53.3742 45.4645C46.6482 49.906 46.7829 57.6776 48.1193 64.7176C48.0576 65.0233 48.0416 65.352 48.1114 65.7172C49.8602 75.2381 51.3645 86.4429 59.3156 92.88C65.7634 98.1013 78.027 93.1327 84.4942 90.7442C99.2466 85.2986 129.276 81.6347 123.296 59.7275C120.723 50.3041 116.86 39.8836 110.942 32.1282ZM83.7898 82.803C78.7001 85.9214 70.0587 90.3581 64.1018 86.8537C61.0772 85.0767 59.3133 82.2999 58.1412 79.0411C56.1198 73.4314 54.0558 66.8776 54.2875 60.8616C54.2972 60.5712 54.7093 60.48 54.8406 60.7392C57.8719 66.6206 59.0386 84.0977 67.857 84.585C73.2296 84.8816 78.2059 82.0691 83.6421 82.152C84.0053 82.1566 84.0632 82.6353 83.7863 82.8037L83.7898 82.803ZM91.1417 81.1388C89.8835 81.8829 88.207 82.1727 86.7657 82.0889C86.0961 82.0523 85.8925 81.1328 86.4834 80.8135C87.6988 80.1602 89.1406 79.6785 90.4708 79.3101C90.7707 79.229 91.2168 79.3409 91.404 79.6025C91.5111 79.7525 91.5901 79.8755 91.6412 80.0563C91.7661 80.4869 91.5011 80.9262 91.1417 81.1388ZM111.292 46.0497C111.363 46.4849 110.81 46.8437 110.49 46.4674C108.464 44.0923 105.795 39.6644 102.603 38.8484C97.9566 37.6594 93.2908 40.1887 88.7119 39.0698C88.5866 39.0384 88.5469 38.8587 88.6471 38.7774C92.5428 35.6572 99.6516 33.9803 104.453 35.719C109 37.3623 110.604 41.7228 111.296 46.0489L111.292 46.0497Z" fill="#F8F8F8"/>
</svg>
