<svg width="136" height="139" viewBox="0 0 136 139" xmlns="http://www.w3.org/2000/svg">
<path d="M32.4243 50.0787C35.4162 53.4385 39.8045 54.3896 44.0279 55.4397C48.0753 56.4461 52.1558 57.5074 56.2032 58.5138C64.562 60.5922 72.9538 62.7255 81.3676 64.7708C97.8102 68.7191 114.418 73.6894 131.234 75.7687C132.455 75.9321 134.061 75.8642 134.864 74.7091C135.358 74.038 135.996 73.3558 135.93 72.4985C135.864 72.3886 135.908 72.2127 135.897 72.0698C135.798 70.7839 135.171 69.3668 133.95 68.8296C118.343 61.9126 101.472 57.6241 85.1717 52.5435C77.1538 50.036 69.1139 47.6165 61.0741 45.1969C56.8066 43.949 52.5612 42.6131 48.2938 41.3652C43.9054 40.0405 39.506 38.5728 34.9309 40.0512C30.3558 41.5296 29.4325 46.7188 32.4243 50.0787Z"/>
<path d="M4.07854 14.4885C18.2448 20.6269 33.5216 24.7524 48.3696 28.9115C55.5736 30.9363 62.7556 33.0491 70.1574 34.2823C73.9189 34.9372 77.7353 35.5592 81.5077 35.9834C85.6871 36.462 89.2395 36.2709 93.3197 35.8373C94.8045 35.6926 95.4092 33.8343 94.0233 33.0226C90.7127 31.125 87.798 29.5127 84.2125 28.154C80.7809 26.9271 77.3274 25.7881 73.8409 24.5941C66.5708 22.0858 59.1909 20.0172 51.8439 17.6298C37.3258 12.8988 23.5225 6.61711 9.22438 1.38022C1.70136 -1.42463 -3.35653 11.3318 4.05655 14.5765L4.07854 14.4885Z"/>
<path d="M26.5286 121.813C41.0762 126.983 56.5964 130.07 71.6908 133.219C79.0148 134.754 86.3228 136.378 93.791 137.11C97.588 137.51 101.438 137.873 105.23 138.042C109.432 138.238 112.964 137.808 117.005 137.101C118.477 136.856 118.955 134.962 117.518 134.245C114.087 132.575 111.07 131.163 107.401 130.049C103.895 129.056 100.372 128.152 96.8133 127.196C89.3908 125.183 81.8882 123.616 74.3971 121.729C59.5933 117.987 45.3981 112.65 30.7796 108.388C23.0847 106.096 18.8978 119.165 26.5126 121.902L26.5286 121.813Z"/>
</svg>
