<svg width="16" height="22" viewBox="0 0 16 22" fill="none" xmlns="http://www.w3.org/2000/svg">
<path d="M2.94888 21.3016H13.0511C15.0202 21.3016 16 20.2732 16 18.2358V9.34222C16 8.0787 15.8574 7.53019 15.0963 6.72702L9.85496 1.23214C9.13201 0.468148 8.53272 0.301636 7.46732 0.301636H2.94888C0.989302 0.301636 0 1.33988 0 3.37719V18.2358C0 20.283 0.979789 21.3016 2.94888 21.3016ZM3.01547 19.7247C2.03567 19.7247 1.53152 19.186 1.53152 18.2066V3.40659C1.53152 2.4369 2.03567 1.8786 3.02498 1.8786H7.25805V7.56937C7.25805 8.80351 7.85733 9.41079 9.0464 9.41079H14.4685V18.2066C14.4685 19.186 13.9644 19.7247 12.9751 19.7247H3.01547ZM9.21763 7.93178C8.83712 7.93178 8.69444 7.77506 8.69444 7.38327V2.18224L14.1737 7.93178H9.21763Z" fill="#003E46"/>
<path d="M8.72298 11.262C8.72298 10.8604 8.39003 10.5372 8.00003 10.5372C7.61002 10.5372 7.27708 10.8604 7.27708 11.262V14.8175L7.33414 16.414L6.52558 15.5521L5.66945 14.651C5.53629 14.5041 5.33652 14.4257 5.15579 14.4257C4.76576 14.4257 4.4899 14.7097 4.4899 15.1016C4.4899 15.3269 4.57552 15.4934 4.72772 15.6305L7.46732 18.2261C7.66708 18.4122 7.81929 18.4808 8.00003 18.4808C8.18076 18.4808 8.33297 18.4122 8.53272 18.2261L11.2723 15.6305C11.4245 15.4934 11.5101 15.3269 11.5101 15.1016C11.5101 14.7097 11.2248 14.4257 10.8443 14.4257C10.654 14.4257 10.4638 14.5041 10.3306 14.651L9.47446 15.5521L8.66589 16.414L8.72298 14.8175V11.262Z" fill="#003E46"/>
</svg>
