<svg width="176" height="147" viewBox="0 0 176 147"  xmlns="http://www.w3.org/2000/svg">
<path d="M165.818 67.4351C147.708 40.4459 114.05 28.3334 82.6756 35.4437C50.3554 42.7636 27.6474 72.2293 24.9932 104.549C24.6628 105.497 24.7528 106.609 25.5613 107.608C68.317 160.379 156.903 137.974 165.891 70.2644C166.388 69.459 166.498 68.4591 165.819 67.4395L165.818 67.4351ZM110.896 62.0786C107.2 69.7252 97.8722 72.4153 91.8364 66.1828C86.5676 60.7468 87.0714 53.9757 91.1001 48.7346C94.0607 46.5904 97.8137 45.6803 101.996 46.8304C108.356 48.5777 114.115 55.4226 110.896 62.0786ZM78.8067 88.3056C78.4091 87.6103 78.0849 86.8522 77.8007 86.0665C77.7326 85.5414 77.6713 85.0056 77.6577 84.4358C79.1968 79.7678 82.2904 75.9257 88.1295 77.1488C95.9183 78.7803 94.8111 86.4364 91.0043 91.5349C86.9777 96.9279 81.3233 92.7065 78.8111 88.3046L78.8067 88.3056ZM90.6568 100.22C90.6568 100.22 90.6374 100.257 90.637 100.275C90.5603 100.284 90.4836 100.292 90.4015 100.296C90.4874 100.268 90.5709 100.249 90.6558 100.216L90.6568 100.22ZM105.113 128.212C78.0915 134.531 49.6639 124.403 31.1218 104.358C34.3333 90.0624 39.9786 76.9667 48.5304 66.3632C48.9288 93.497 73.1695 112.778 100.853 105.667C127.641 98.7874 138.193 69.4369 127.089 46.7835C139.09 51.9977 150.061 60.2998 159.746 69.9746C153.231 99.0389 134.903 121.244 105.112 128.208L105.113 128.212Z"/>
<path d="M147.651 120.519C133.395 129.046 120.447 137.374 103.952 141.055C86.0497 145.049 70.067 140.691 53.5147 134.225C52.9371 134 52.7008 134.793 53.098 135.119C79.2874 156.721 128.016 146.563 148.189 121.099C148.447 120.772 147.988 120.313 147.65 120.514L147.651 120.519Z"/>
<path d="M155.595 112.127C153.452 113.924 151.098 116.139 149.691 118.574C149.439 119.01 149.811 119.757 150.384 119.553C153.254 118.538 156.064 115.587 156.292 112.45C156.317 112.07 155.864 111.909 155.596 112.132L155.595 112.127Z"/>
<path d="M172.17 44.1406C169.963 44.7145 168.442 46.0983 166.696 47.487C165.154 48.714 163.731 49.9972 162.353 51.3995C160.057 53.7444 162.708 57.4957 165.683 56.0459C169.435 54.2166 174.161 52.1761 175.786 48.0708C176.643 45.8994 174.335 43.581 172.17 44.1406Z"/>
<path d="M155.501 42.8295C157.085 41.5837 158.655 39.7408 160.046 38.012C160.792 37.0809 161.525 36.1157 162.091 35.0681C162.872 33.6208 162.937 32.3958 162.79 30.789C162.564 28.3039 159.287 27.9282 157.725 29.2335C156.309 30.4229 155.156 32.4718 153.91 34.1492C152.765 35.6835 151.415 37.2318 150.644 38.8247C149.062 42.0795 152.571 45.1285 155.498 42.8349L155.501 42.8295Z"/>
<path d="M140.462 32.395C143.095 28.6018 146.549 24.0868 146.353 19.2435C146.243 16.4549 142.21 14.4534 140.658 17.452C139.61 19.4771 138.709 21.5753 137.615 23.5786C136.531 25.5656 135.407 27.5988 134.908 29.823C134.146 33.2109 138.397 35.3757 140.463 32.3994L140.462 32.395Z"/>
<path d="M118.66 24.3142C120.568 19.1516 122.456 13.4158 121.625 7.88946C121.15 4.73092 116.592 4.88086 115.674 7.63893C114.059 12.4812 112.758 18.1394 112.845 23.2797C112.906 26.6662 117.474 27.5396 118.66 24.3142Z"/>
<path d="M96.0151 25.1327C97.6754 18.3075 96.6909 8.7182 93.3559 2.53933C91.6113 -0.696653 86.9404 1.28052 87.5032 4.72411C88.086 8.29712 88.7949 11.8554 89.0905 15.4658C89.3743 18.9217 89.4196 22.3855 90.7269 25.6281C91.655 27.9311 95.4522 27.4407 96.0161 25.1371L96.0151 25.1327Z"/>
<path d="M73.4671 28.6039C73.0536 21.0058 69.7474 12.6491 66.5181 5.79489C65.2665 3.14482 60.6476 4.06618 60.7703 7.09664C61.0871 14.7167 64.7838 22.9618 67.9258 29.8589C69.095 32.4306 73.6274 31.515 73.4671 28.6039Z"/>
<path d="M41.1149 32.9883C43.1777 35.875 45.0548 39.0025 47.4957 41.6003C49.9311 44.1947 53.5499 41.1623 52.2964 38.157C49.2777 30.9271 43.5005 22.7974 37.4097 17.9541C34.9877 16.0311 31.8551 19.4154 33.1949 21.8838C35.3757 25.9033 38.4692 29.2819 41.1159 32.9927L41.1149 32.9883Z"/>
<path d="M24.9554 47.4721C27.4741 49.618 29.7889 51.9857 32.3524 54.0846C34.8805 56.1499 37.4968 52.5869 36.5068 50.2148C35.0781 46.7825 32.313 44.1195 29.5441 41.7254C26.8565 39.4051 23.9434 36.5169 20.3138 36.0547C17.8593 35.7421 16.2392 38.7469 17.3454 40.7554C18.9529 43.6713 22.4559 45.3495 24.951 47.4731L24.9554 47.4721Z"/>
<path d="M12.3988 71.0307C14.8698 72.0279 17.277 73.192 19.7137 74.2617C20.8784 74.774 22.3753 74.0608 23.0066 73.054C23.7612 71.8575 23.4419 70.6316 22.6733 69.563C20.9708 67.186 18.4526 65.8992 15.8503 64.71C13.1614 63.4849 10.0375 61.4206 7.02658 61.8946C4.92061 62.2237 4.11991 64.7057 4.95138 66.4392C6.22351 69.0985 9.84354 69.9879 12.4022 71.0253L12.3988 71.0307Z"/>
<path d="M11.1309 86.5444C8.92559 85.986 6.81897 85.0679 4.62399 84.5349C2.1257 83.9273 -1.17174 86.6652 0.674974 89.2913C3.78688 93.7098 10.376 93.7974 15.2924 94.5365C17.7599 94.9062 19.4414 91.2546 17.565 89.6192C15.6778 87.977 13.533 87.1554 11.1265 86.5454L11.1309 86.5444Z"/>
</svg>
