<svg width="20" height="21" viewBox="0 0 20 21" xmlns="http://www.w3.org/2000/svg">
    <path
        d="M0.583984 8.6281C0.583984 12.9975 4.13909 16.5527 8.5085 16.5527C10.2364 16.5527 11.8153 15.9965 13.1162 15.063L18.0021 19.9588C18.2304 20.1871 18.5284 20.2964 18.8461 20.2964C19.5214 20.2964 19.9881 19.7899 19.9881 19.1246C19.9881 18.8069 19.8689 18.5188 19.6604 18.3103L14.8044 13.4245C15.8273 12.0938 16.4331 10.4354 16.4331 8.6281C16.4331 4.25869 12.8779 0.703583 8.5085 0.703583C4.13909 0.703583 0.583984 4.25869 0.583984 8.6281ZM2.28209 8.6281C2.28209 5.19216 5.07256 2.40169 8.5085 2.40169C11.9444 2.40169 14.7349 5.19216 14.7349 8.6281C14.7349 12.064 11.9444 14.8545 8.5085 14.8545C5.07256 14.8545 2.28209 12.064 2.28209 8.6281Z"/>
</svg>
