<svg width="292" height="347" viewBox="0 0 292 347" xmlns="http://www.w3.org/2000/svg">
    <path
        d="M137.973 54.8679C103.962 35.3284 61.8824 50.6911 41.1704 81.545C16.5085 118.286 36.3831 163.771 71.9111 183.32C72.1868 183.555 72.4972 183.773 72.8631 183.967C107.346 202.172 145.092 189.32 165.827 157.271C188.586 122.092 172.873 74.9151 137.977 54.8748L137.973 54.8679ZM155.506 150.031C139.477 179.029 107.068 185.777 77.9434 174.595C50.3563 158.162 36.6356 127.106 48.0341 96.2021C59.6995 64.5623 97.3964 52.9925 126.94 63.6044C161.563 76.042 172.061 120.077 155.51 150.021L155.506 150.031Z"/>
    <path
        d="M193.526 201.062C193.748 199.221 193.776 197.326 193.588 195.397C193.069 190.259 189.798 184.453 185.4 180.693C188.549 176.517 191.536 172.155 194.148 167.47C222.025 117.643 198.993 53.809 150.184 27.4888C101.401 1.1899 41.7868 23.4606 13.8588 68.64C-18.4379 120.899 9.87108 184.242 60.2985 210.903C60.3859 210.947 60.4706 210.967 60.5548 211.004C60.838 211.219 61.1319 211.42 61.4744 211.598C91.4813 227.172 123.6 225.244 150.285 210.985C153.812 217.187 161.381 221.524 168.063 222.538C168.896 222.669 169.734 222.72 170.575 222.721C184.313 250.669 240.431 358.61 279.993 327.628C304.403 308.508 285.028 284.584 269.615 266.93C247.98 242.129 220.718 219.524 193.526 201.062ZM65.3121 201.588C21.1825 176.294 -0.564598 122.815 24.4404 76.0629C48.3671 31.3345 105.485 17.6777 148.791 41.0139C192.856 64.7579 204.321 123.596 181.066 165.177C157.175 207.915 108.569 219.436 65.3051 201.591L65.3121 201.588ZM177.585 190.018C179.491 191.68 181.131 193.531 181.746 196.39C182.562 200.106 181.074 203.654 178.862 206.576C176.873 209.195 173.445 210.895 170.168 210.803C165.647 210.67 163.074 207.718 160.248 204.967C166.468 200.675 172.277 195.672 177.589 190.025L177.585 190.018ZM277.433 314.002C256.671 348.096 196.102 245.005 181.647 219.485C183.627 218.291 185.448 216.858 186.958 215.208C188.11 213.948 189.077 212.597 189.95 211.205C205.788 224.203 221.518 237.368 236.773 251.037C249.789 262.701 289.313 294.503 277.433 314.002Z"/>
    <path
        d="M73.1521 79.8484C63.5949 87.2267 55.323 98.9962 54.2679 111.207C54.2308 111.602 54.695 111.717 54.929 111.458C61.8164 103.625 67.4107 95.0258 75.0598 87.8095C83.2202 80.1149 94.775 79.2284 102.704 72.2367C103.073 71.9074 103.146 71.1685 102.642 70.8956C92.741 65.6132 80.9806 73.8098 73.1521 79.8484Z"/>
    <path
        d="M114.019 68.8896C112.692 68.8352 111.412 68.919 110.092 69.063C108.923 69.1881 108.318 69.8102 107.379 70.3084C106.621 70.7068 106.608 71.8131 107.445 72.1347C108.221 72.4338 108.757 73.0528 109.631 73.1639C110.941 73.327 112.235 73.5306 113.546 73.6596C115.858 73.8833 118.97 75.1175 120.912 73.3272C121.451 72.8362 121.604 72.1444 121.329 71.4726C120.224 68.7373 116.448 69.0011 114.012 68.8928L114.019 68.8896Z"/>
    <path
        d="M172.562 22.8597C141.721 0.713441 91.1562 -10.5121 59.7873 16.7252C59.439 17.0278 59.8168 17.686 60.2316 17.4368C95.9931 -4.55106 136.944 2.93205 170.585 25.6907C205.359 49.2145 223.428 89.2113 214.438 130.501C214.317 131.061 215.219 131.251 215.397 130.724C229.472 88.2679 207.025 47.6098 172.572 22.8634L172.562 22.8597Z"/>
    <path
        d="M213.609 133.234C213.48 132.806 212.83 132.617 212.659 133.141C211.609 136.378 210.943 139.758 209.41 142.823C209.299 143.058 209.634 143.274 209.817 143.106C212.676 140.55 214.756 137.159 213.606 133.227L213.609 133.234Z"/>
    <path
        d="M129.197 228.177C109.035 235.199 89.4672 234.22 69.4459 227.15C48.4287 219.721 33.5898 206.063 17.7548 191.131C17.5329 190.923 17.075 191.133 17.2594 191.443C36.349 223.655 95.3236 251.843 129.704 228.969C130.189 228.654 129.664 228.004 129.194 228.17L129.197 228.177Z"/>
    <path
        d="M279.026 340.05C261.5 342.788 248.538 343.464 234.169 331.505C223.014 322.211 216.309 308.96 205.855 299.144C205.706 299.002 205.4 299.142 205.516 299.358C218.494 323.892 248.11 360.57 279.306 340.989C279.756 340.707 279.614 339.957 279.019 340.054L279.026 340.05Z"/>
    <path
        d="M211.258 204.757C210.914 204.629 210.627 205.139 210.952 205.334C230.489 217.205 247.365 233.49 262.611 250.414C262.813 250.632 263.234 250.397 263.072 250.118C257.832 240.974 249.654 233.59 241.854 226.646C232.843 218.619 222.72 209.121 211.262 204.747L211.258 204.757Z"/>
</svg>
