<svg width="83" height="71" viewBox="0 0 83 71" xmlns="http://www.w3.org/2000/svg">
<g clip-path="url(#clip0_145_455)">
<path d="M81.51 13.6499C78.63 6.7899 71.94 0.949899 64.42 0.0998995C57.05 -0.730101 50.56 3.9399 46.33 9.5599C41.46 16.0299 39.28 24.1799 37.62 31.9799C37.57 32.2099 37.53 32.4399 37.48 32.6699C35.38 32.4399 33.27 32.2199 31.17 31.9899C28.87 31.7399 26.6 31.5099 24.29 31.4599C22.93 31.4299 22.58 33.5999 23.96 33.8799C28.22 34.7299 32.58 35.0899 36.9 35.5399C35.56 42.3999 34.38 49.3899 31.69 55.8399C29.06 62.1599 24.06 68.6499 16.51 68.2399C8.59002 67.8099 3.18002 60.7699 2.55002 53.2699C2.21002 49.2699 2.95002 45.0499 4.95002 41.5499C6.88002 38.1599 10.1 35.7299 13.77 34.4899C14.56 34.2199 15.37 33.9999 16.19 33.8599C17.11 33.7099 17.96 33.3699 18.88 33.1899C19.06 33.1499 19.03 32.8999 18.88 32.8499C18.13 32.5999 17.29 32.2799 16.51 32.2399C15.62 32.1999 14.66 32.3599 13.79 32.5199C11.98 32.8399 10.27 33.5099 8.69002 34.4499C5.39002 36.4099 3.02002 39.4599 1.59002 42.9899C-1.27998 50.0899 -0.309975 58.8799 4.63002 64.8299C9.21002 70.3499 17.26 72.5499 23.81 69.3899C30.27 66.2799 33.7 59.0799 35.74 52.5799C37.46 47.0999 38.48 41.4599 39.61 35.8399C43.65 36.2999 47.7 36.7699 51.76 37.0299C59.81 37.5499 68.82 37.0899 75.71 32.4199C78.57 30.4799 80.94 27.8599 82.13 24.5699C83.41 21.0099 82.94 17.0799 81.5 13.6399L81.51 13.6499ZM78.9 25.2099C75.13 32.0999 66.04 33.9599 58.88 34.1999C54.35 34.3499 49.82 33.9699 45.32 33.4999C43.62 33.3199 41.92 33.1399 40.22 32.9499C40.58 31.2599 40.95 29.5799 41.37 27.8999C43.28 20.3499 46.14 12.6199 52.06 7.2899C54.61 4.9999 57.79 3.1999 61.23 2.7899C64.99 2.3499 68.64 3.6099 71.71 5.7199C77.55 9.7399 82.71 18.2099 78.89 25.1999L78.9 25.2099Z"/>
</g>
<defs>
<clipPath id="clip0_145_455">
<rect width="82.88" height="70.85" fill="white"/>
</clipPath>
</defs>
</svg>
