<svg width="61" height="49" viewBox="0 0 61 49" fill="none" xmlns="http://www.w3.org/2000/svg">
<path d="M12.9859 36.4392C12.9484 36.5738 12.9841 36.7578 12.9465 36.8925L12.9089 37.0271C13.006 37.1992 12.9803 37.3952 12.9547 37.5912L13.068 39.1608C13.0524 39.7368 13.0367 40.3128 12.9479 40.8394C12.9322 41.4154 12.6474 41.9163 12.4852 42.3933C12.4357 42.4666 12.4476 42.528 12.3863 42.5399C12.2141 42.6369 12.1765 42.7715 12.0282 42.9913L12.0401 43.0526C11.9787 43.0645 11.9174 43.0764 11.8441 43.027L11.7708 42.9775C11.7708 42.9775 11.7214 43.0508 11.7333 43.1121L11.6838 43.1854C11.6106 43.1359 11.5492 43.1478 11.4879 43.1597C11.4641 43.037 11.4284 42.8529 11.3432 42.7421C11.3313 42.6808 11.3313 42.6808 11.27 42.6927C11.2938 42.8154 11.3057 42.8767 11.3294 42.9994C11.28 43.0727 11.2919 43.134 11.3651 43.1835C11.377 43.2449 11.4622 43.3557 11.4246 43.4903C11.3871 43.6249 11.2643 43.6487 11.1416 43.6725C11.007 43.6349 11.0446 43.5003 10.9594 43.3895L10.1592 41.8894L9.08167 39.6154L7.76242 36.7517C7.32663 35.8176 6.87895 34.8221 6.49262 33.8147C6.40747 33.7039 6.37178 33.5198 6.33609 33.3358C6.27473 33.3477 6.26283 33.2863 6.25093 33.2249C6.18958 33.2368 6.14012 33.3101 6.14012 33.3101C6.22527 33.4209 6.24906 33.5436 6.2115 33.6782C6.16204 33.7515 6.16204 33.7515 6.24719 33.8623L6.2115 33.6782C6.28476 33.7277 6.29665 33.7891 6.32045 33.9118C6.33235 33.9731 6.29478 34.1077 6.4175 34.0839C6.47885 34.072 6.42939 34.1453 6.44129 34.2067C6.45319 34.268 6.40373 34.3413 6.47698 34.3907C6.48888 34.4521 6.55024 34.4402 6.63539 34.551C6.79193 35.03 7.00982 35.497 7.22771 35.9641C7.49319 36.6766 7.82003 37.3772 8.14687 38.0778C8.29151 38.4954 8.49751 38.9011 8.7154 39.3681C8.9333 39.8352 9.22444 40.3517 9.45423 40.8801C9.74538 41.3967 9.97517 41.9251 10.1931 42.3922L10.3872 42.7365L10.617 43.2649L10.8348 43.732C10.8348 43.732 10.8467 43.7933 10.7854 43.8052C10.6132 43.9023 10.4786 43.8647 10.3202 43.7044C10.235 43.5936 10.1499 43.4828 10.0528 43.3106L9.61706 42.3765L8.99907 41.1594C8.44244 39.9304 7.8977 38.7627 7.35297 37.5951C7.23213 37.3002 7.11128 37.0053 6.99044 36.7104C6.90529 36.5996 6.94285 36.465 6.78444 36.3047C6.6874 36.1325 6.63981 35.8871 6.4695 35.6655L6.28917 35.0638C6.28917 35.0638 6.21592 35.0143 6.20402 34.953C6.15456 35.0262 6.16646 35.0876 6.16646 35.0876L6.11767 37.1343C6.1396 37.5757 6.10016 38.029 6.07263 38.5436C6.08453 38.605 6.03507 38.6782 5.97371 38.6901C5.91235 38.702 5.93615 38.8248 5.94804 38.8861C6.0213 38.9356 6.03319 38.9969 6.05699 39.1196C6.04322 39.377 6.10271 39.6838 6.02758 39.953L6.03948 40.0143C6.13653 40.1865 6.04951 40.3944 6.0733 40.5171L6.15284 41.584C6.15097 41.9026 6.1491 42.2213 6.15913 42.6014C6.19482 42.7854 6.18105 43.0428 6.09403 43.2506C6.10593 43.312 6.17918 43.3614 6.11783 43.3733C6.10406 43.6307 6.07839 43.8266 5.83296 43.8742C5.7835 43.9475 5.67269 44.0326 5.62323 44.1059C5.51241 44.191 5.47485 44.3257 5.36403 44.4108C5.30267 44.4227 5.31457 44.4841 5.26511 44.5573C5.17809 44.7652 5.06727 44.8503 4.80995 44.8366C4.79805 44.7752 4.77425 44.6525 4.6891 44.5417C4.701 44.603 4.63964 44.6149 4.65154 44.6763C4.66344 44.7376 4.55262 44.8228 4.56452 44.8842C4.31909 44.9317 4.17258 44.8328 4.06363 44.5993C3.96658 44.4271 3.93089 44.243 3.8952 44.059C3.92274 43.5443 3.90081 43.1029 3.86699 42.6002C3.8845 41.7055 3.77929 40.8346 3.7968 39.9399C3.67341 37.9902 3.68463 36.0781 3.68396 34.1047C3.71524 32.9527 3.73462 31.7393 3.76589 30.5873C3.82283 29.2393 3.80652 27.8418 3.74075 26.5176C3.70505 26.3336 3.79208 26.1257 3.81774 25.9297L4.08884 25.6862C4.21155 25.6624 4.12453 25.8702 4.23534 25.7851C4.27104 25.9692 4.30673 26.1532 4.34242 26.3373C4.35432 26.3987 4.36622 26.46 4.50083 26.4976C4.48893 26.4362 4.55029 26.4243 4.53839 26.363L4.49267 25.7989C4.54213 25.7256 4.53023 25.6642 4.57969 25.591C4.69051 25.5058 4.75187 25.4939 4.81322 25.482C4.98353 25.7037 5.08058 25.8758 5.06681 26.1332C5.09247 25.9372 5.11814 25.7412 5.08245 25.5572C5.25462 25.4601 5.31598 25.4482 5.32788 25.5096L5.67035 25.6342L5.66848 25.9528L5.72984 25.9409C5.7674 25.8063 5.80497 25.6717 5.79307 25.6104C5.84253 25.5371 5.91578 25.5866 5.92768 25.6479C6.01283 25.7587 6.02473 25.8201 5.98717 25.9547L6.01096 26.0774C6.12178 25.9923 6.08609 25.8082 6.1969 25.7231C6.27016 25.7725 6.2207 25.8458 6.2326 25.9071C6.36347 26.5821 6.49434 27.257 6.62521 27.9319C6.82933 28.6563 6.9721 29.3926 7.23758 30.1051C7.72912 31.9834 8.50364 33.6794 9.16735 35.4607C9.62693 36.5175 10.0865 37.5743 10.6074 38.6193C10.6193 38.6806 10.6193 38.6806 10.6926 38.7301C10.754 38.7182 10.7421 38.6568 10.7302 38.5955L10.6406 37.1486L10.4239 34.3894C10.4157 33.6907 10.3343 32.9425 10.2648 32.2556C10.1477 31.3234 10.0306 30.3911 9.91351 29.4589C9.85589 28.8334 9.79827 28.2079 9.74066 27.5825L9.67114 26.8956C9.56407 26.3434 9.51835 25.7793 9.52209 25.142C9.4745 24.8965 9.50016 24.7006 9.58719 24.4927C9.62475 24.3581 9.67421 24.2848 9.72367 24.2116C9.83449 24.1264 9.9691 24.164 10.0048 24.3481L10.0386 24.8508C10.0505 24.9122 10.0624 24.9735 10.0862 25.0962C10.1357 25.023 10.197 25.0111 10.2465 24.9378C10.284 24.8032 10.2602 24.6805 10.2365 24.5578C10.274 24.4232 10.2621 24.3618 10.2997 24.2272C10.264 24.0431 10.264 24.0431 10.4481 24.0074C10.5094 23.9955 10.5094 23.9955 10.5827 24.045C10.6065 24.1677 10.6916 24.2785 10.7273 24.4626C10.8262 24.3161 10.7905 24.132 10.8281 23.9974C11.0122 23.9617 11.1468 23.9993 11.3428 24.025C11.3546 24.0863 11.3665 24.1477 11.4279 24.1358L11.4893 24.1239L11.612 24.1001C11.6971 24.2109 11.6477 24.2841 11.6715 24.4069C11.6815 24.7869 11.8023 25.0818 11.8124 25.4618L11.9714 27.5956C12.0885 28.5278 12.1443 29.472 12.2614 30.4042L12.406 30.8218L12.3584 30.5764L12.3603 30.2577L12.2094 28.8227C12.1536 27.8786 11.9633 26.8968 11.9075 25.9527C11.8737 25.4499 11.8399 24.9472 11.8674 24.4325L11.8555 24.3712C11.9782 24.3474 11.9407 24.482 11.9526 24.5433C12.024 24.9115 12.0459 25.3529 12.1173 25.721C12.1254 26.4198 12.2563 27.0947 12.2031 27.8053C12.2607 28.4308 12.3797 29.0443 12.4373 29.6698C12.5068 30.3566 12.5882 31.1048 12.6577 31.7916C12.7135 32.7358 12.8306 33.6681 12.8863 34.6122C12.8826 35.2496 12.9283 35.8137 12.9859 36.4392ZM11.7461 28.4032C11.7892 27.3126 11.7097 26.2457 11.5688 25.1907L11.5212 24.9453L11.5093 24.884C11.448 24.8959 11.448 24.8959 11.4599 24.9572L11.4836 25.0799L11.6089 26.7109L11.6509 27.9124C11.6747 28.0351 11.7717 28.2073 11.7461 28.4032ZM11.0849 28.2768C11.1381 27.5662 11.0072 26.8912 10.9991 26.1925C10.9753 26.0698 10.8407 26.0322 10.8645 26.1549C10.9221 26.7804 10.9797 27.4059 11.0373 28.0314L11.0849 28.2768ZM10.9022 32.2594L10.8721 31.1193C10.7174 30.3216 10.6122 29.4507 10.5189 28.6412C10.4613 28.0157 10.3423 27.4021 10.2728 26.7153C10.3104 26.5807 10.2133 26.4085 10.1776 26.2245L10.1163 26.2364L10.2434 27.5487C10.2196 27.4259 10.1464 27.3765 10.1226 27.2538L10.1445 27.6952C10.2415 27.8673 10.3386 28.0395 10.3248 28.2968L10.4181 29.1064L10.7356 31.4004C10.7694 31.9031 10.8152 32.4673 10.9103 32.9581L10.9579 33.2035C10.9598 32.8849 10.9617 32.5662 10.9022 32.2594ZM10.7621 39.4169C10.7997 39.2823 10.7145 39.1715 10.7026 39.1101L10.1579 37.9425C9.46852 36.3572 8.64454 34.7344 8.06598 33.064C7.66776 31.9953 7.26954 30.9265 6.98213 29.7726C6.83749 29.355 6.69285 28.9374 6.60957 28.5079C6.52442 28.3971 6.55008 28.2011 6.52629 28.0784C6.4906 27.8944 6.51626 27.6984 6.41921 27.5262C6.40732 27.4648 6.39542 27.4035 6.34596 27.4767L6.38165 27.6608C6.45303 28.029 6.53632 28.4585 6.55824 28.8999C6.6315 28.9493 6.65529 29.072 6.66719 29.1334C6.9427 30.2259 7.27956 31.3066 7.61643 32.3872C8.1474 33.8122 8.75161 35.2866 9.40529 36.6878C9.81729 37.4992 10.2412 38.372 10.6037 39.2567L10.7621 39.4169ZM4.3951 29.8923C4.48212 29.6844 4.38507 29.5122 4.36128 29.3895C4.34938 29.3282 4.33748 29.2668 4.33748 29.2668C4.25233 29.156 4.24044 29.0946 4.22854 29.0333L4.16718 29.0452C4.24044 29.0946 4.26423 29.2173 4.27613 29.2787C4.16531 29.3639 4.17721 29.4252 4.26236 29.536C4.27426 29.5974 4.29805 29.7201 4.24859 29.7934C4.19913 29.8666 4.27239 29.9161 4.28428 29.9774C4.28241 30.2961 4.29244 30.6762 4.22921 31.0067L4.25181 33.4216C4.21867 34.8923 4.24688 36.3511 4.21373 37.8218C4.23565 38.2632 4.20812 38.7778 4.23004 39.2192C4.24194 39.2806 4.25384 39.342 4.32709 39.3914C4.36465 39.2568 4.35276 39.1954 4.39032 39.0608C4.40409 38.8035 4.42975 38.6075 4.38216 38.3621C4.3859 37.7247 4.32829 37.0993 4.39339 36.45C4.38897 35.1139 4.44591 33.7659 4.39204 32.5031L4.3951 29.8923ZM9.36586 37.1411L9.33017 36.957L8.6527 35.4331C7.85438 33.6143 7.24013 31.7599 6.67534 29.8321L6.37417 28.9356C6.42363 28.8623 6.41173 28.8009 6.28902 28.8247C6.3723 29.2542 6.51694 29.6718 6.60022 30.1013C6.78055 30.703 7.02224 31.2928 7.14121 31.9064C7.3829 32.4961 7.56323 33.0978 7.79302 33.6262L8.75977 35.9853L9.18366 36.8581C9.19556 36.9195 9.26881 36.9689 9.33017 36.957C9.28071 37.0303 9.29261 37.0916 9.36586 37.1411ZM7.9759 35.8827C7.98779 35.944 8.04915 35.9321 8.1224 35.9816L8.00156 35.6867C7.91641 35.5759 7.89261 35.4532 7.86882 35.3305C7.86882 35.3305 7.79557 35.281 7.73421 35.2929C7.77177 35.1583 7.74798 35.0356 7.66282 34.9248L7.54198 34.6299C7.32596 33.8441 6.98722 33.0822 6.70984 32.3083C6.589 32.0134 6.45625 31.6572 6.38487 31.289C6.37297 31.2277 6.36108 31.1663 6.22646 31.1288C6.26216 31.3128 6.28595 31.4356 6.30975 31.5583C6.57523 32.2708 6.84071 32.9833 7.11809 33.7571L7.58957 34.8753C7.58957 34.8753 7.60147 34.9367 7.66282 34.9248C7.62526 35.0594 7.71041 35.1702 7.73421 35.2929L7.92831 35.6373L8.00156 35.6867L7.9759 35.8827ZM5.97236 34.7432L5.98613 34.4859C5.98613 34.4859 5.97423 34.4246 5.91287 34.4364C5.87344 34.8897 5.91168 36.7286 5.97116 37.0354L5.97236 34.7432ZM4.41666 40.8383L4.40663 40.4583C4.39473 40.3969 4.38284 40.3356 4.32148 40.3475C4.28392 40.4821 4.31961 40.6661 4.3553 40.8502L4.41666 40.8383ZM23.8338 34.9724C23.8457 35.0337 23.907 35.0218 23.9189 35.0832L23.9171 35.4019C23.9885 35.77 24.0104 36.2114 23.959 36.6033C23.9828 36.7261 23.8188 37.5218 23.8069 37.4605C23.8426 37.6445 23.7556 37.8524 23.6072 38.0722L23.631 38.1949C23.6667 38.379 23.5678 38.5255 23.5421 38.7214C23.5659 38.8442 23.2929 39.4064 23.0951 39.6994C22.9705 40.0419 22.7351 40.4695 22.4878 40.8358C22.4008 41.0437 22.2405 41.2021 22.1416 41.3486C21.9319 41.5802 21.7716 41.7386 21.6113 41.897C21.1799 42.299 20.7861 42.5664 20.3072 42.7229C19.0919 43.0222 18.0388 42.8444 17.2349 41.9817C16.9913 41.7106 16.7972 41.3662 16.6031 41.0219C16.312 40.5054 16.193 39.8918 16.0859 39.3396C15.7747 38.063 15.7822 36.7882 15.7284 35.5254C15.7834 34.4961 15.8999 33.4549 16.139 32.3899C16.2773 31.7901 16.4771 31.1784 16.75 30.6162C17.0843 30.042 17.5652 29.5668 18.1549 29.3251C18.622 29.1072 18.9783 28.9745 19.4197 28.9526C19.8492 28.8693 20.2411 28.9206 20.6449 29.0333C20.8528 29.1203 20.9379 29.2311 21.0469 29.4647C21.0588 29.526 21.231 29.429 21.4351 30.1534C21.7006 30.8658 21.7939 31.6754 21.8872 32.4849C21.8377 32.5582 21.8496 32.6195 21.8002 32.6928C21.8597 32.9996 21.9072 33.245 21.8935 33.5023C21.5435 34.6525 20.9757 35.3356 19.4298 35.5716L18.6322 35.7263C18.5095 35.7501 18.4362 35.7006 18.3135 35.7244C18.1908 35.7482 18.1413 35.8215 18.1532 35.8828L18.1495 36.5202L18.2328 36.9497C18.229 37.5871 18.348 38.2007 18.5283 38.8023C18.6968 39.3426 18.976 39.7978 19.2553 40.253C19.4988 40.5241 19.8037 40.7833 20.1462 40.9079C20.2927 41.0068 20.4273 41.0443 20.6233 41.07C21.2726 41.1351 22.0777 39.7057 22.3663 38.5674C22.5422 37.833 22.7062 37.0373 22.7475 36.2653C22.7613 36.008 22.787 35.812 22.8126 35.616C22.8621 35.5428 22.9116 35.4695 22.9848 35.519C22.9967 35.5803 22.9967 35.5803 23.1075 35.4952L23.0718 35.3111C23.1213 35.2378 23.1213 35.2378 23.1827 35.2259C23.244 35.2141 23.3054 35.2022 23.2935 35.1408C23.3429 35.0675 23.3924 34.9943 23.4537 34.9824C23.5765 34.9586 23.6992 34.9348 23.8338 34.9724ZM18.2139 33.8975C18.1764 34.0321 18.2001 34.1548 18.2239 34.2775C18.2358 34.3389 18.2477 34.4003 18.321 34.4497C18.3942 34.4992 18.4556 34.4873 18.517 34.4754C19.1781 34.6018 19.8412 34.4096 20.4685 34.0333C20.5299 34.0214 20.5793 33.9482 20.6169 33.8135L20.5831 33.3108C20.4659 32.3785 20.2261 31.4701 19.7528 30.6706C19.6063 30.5716 19.5706 30.3876 19.4241 30.2886C19.3508 30.2392 19.2281 30.263 19.1786 30.3362C19.0916 30.5441 18.9551 30.8252 18.9295 31.0212C18.5438 31.9873 18.2809 32.9295 18.2139 33.8975ZM21.4451 30.5334L21.4432 30.8521C21.5384 31.3429 21.6831 31.7605 21.7169 32.2633C21.7169 32.2633 21.7288 32.3247 21.7901 32.3128L21.7782 32.2514C21.7325 31.6873 21.6868 31.1232 21.5184 30.5829L21.4451 30.5334ZM20.5924 31.7174C20.6043 31.7787 20.5548 31.852 20.6162 31.8401C20.6024 32.0974 20.6995 32.2696 20.7471 32.515C20.7947 32.7604 20.7928 33.0791 20.9017 33.3127C20.9393 33.178 20.9155 33.0553 20.8917 32.9326C20.8817 32.5526 20.8103 32.1844 20.6895 31.8895L20.5924 31.7174ZM16.5885 33.0667C16.6004 33.1281 16.5391 33.14 16.5391 33.14C16.5015 33.2746 16.464 33.4092 16.4878 33.5319C16.4007 33.7398 16.4364 33.9238 16.4108 34.1198C16.3319 35.0264 16.2411 35.8716 16.3463 36.7425C16.3683 37.1839 16.3902 37.6253 16.2161 38.0411C16.228 38.1024 16.228 38.1024 16.3013 38.1519C16.4221 38.4468 16.543 38.7416 16.4917 39.1336L16.5154 39.2563C16.5887 39.3058 16.6006 39.3671 16.5511 39.4404L16.6106 39.7472L16.672 39.7353L16.7214 39.662C16.7452 39.7847 16.769 39.9074 16.7809 39.9688C16.8542 40.0182 16.878 40.141 17.0126 40.1785C16.9274 40.0677 16.9036 39.945 16.8917 39.8836C16.6757 39.0979 16.6319 38.2151 16.4653 37.3561L16.4572 36.6574C16.4728 36.0814 16.439 35.5786 16.4665 35.064C16.4208 34.4998 16.4364 33.9238 16.5867 33.3854L16.5885 33.0667ZM18.5365 39.5011C18.5722 39.6851 18.6573 39.7959 18.8038 39.8949L18.5521 38.925C18.3223 38.3966 18.2034 37.7831 18.1458 37.1576L18.0662 36.0907L18.0186 35.8453C17.9692 35.9185 17.9316 36.0532 17.9435 36.1145L17.9673 36.2372C17.9636 36.8746 18.0825 37.4882 18.152 38.175C18.174 38.6164 18.3305 39.0953 18.5365 39.5011ZM18.4 39.7822L18.3881 39.7208C18.3643 39.5981 18.3405 39.4754 18.2554 39.3646C18.075 38.7629 17.8215 38.1118 17.8252 37.4744C17.8133 37.413 17.7519 37.4249 17.7519 37.4249L17.7757 37.5476C17.7977 37.989 17.8077 38.3691 17.9523 38.7867C18.0732 39.0816 18.2059 39.4378 18.3387 39.7941L18.4 39.7822ZM17.6994 40.109L17.7965 40.2812C17.7846 40.2198 17.834 40.1466 17.7608 40.0971C17.6656 39.6063 17.521 39.1887 17.3031 38.7216C17.3525 38.6483 17.3287 38.5256 17.2436 38.4148L17.2317 38.3534L17.1822 38.4267L17.1941 38.4881C17.3012 39.0403 17.4696 39.5806 17.6994 40.109ZM35.9708 26.3799C36.0541 26.8094 36.1374 27.2389 36.2207 27.6684C36.2545 28.1711 36.3002 28.7352 36.2727 29.2499C36.2809 29.9486 36.3009 30.7087 36.1863 31.4312C36.1219 34.0539 35.5253 37.5438 35.2643 38.1674C35.2148 38.2407 35.2267 38.302 35.1654 38.3139C35.0426 38.3377 35.0051 38.4723 34.9556 38.5456C34.9794 38.6683 34.9419 38.8029 34.831 38.8881C34.6332 39.1811 34.4235 39.4127 34.091 39.6682C34.0296 39.6801 33.9802 39.7533 33.9307 39.8266C33.6221 40.2048 32.8601 40.5435 32.4306 40.6268C32.296 40.5892 32.2347 40.6011 32.1733 40.613C31.6824 40.7082 31.3281 40.5223 30.9994 40.1403C30.5974 39.709 30.3062 39.1924 30.0646 38.6027L29.8485 37.8169L29.6663 37.5339L29.605 37.5458C29.5555 37.6191 29.5793 37.7418 29.5298 37.8151L29.4547 38.0843C29.4053 38.1575 29.3558 38.2308 29.2944 38.2427C29.2331 38.2546 29.1836 38.3278 29.1836 38.3278C29.2074 38.4506 29.0966 38.5357 29.1818 38.6465L29.2056 38.7692C29.1799 38.9652 29.0315 39.185 29.0058 39.3809C28.9188 39.5888 28.8199 39.7353 28.6972 39.7591C28.5864 39.8443 28.4756 39.9294 28.4261 40.0027C28.2164 40.2343 28.0561 40.3927 27.7988 40.379L27.676 40.4028C27.3693 40.4622 27.1614 40.3752 26.9297 40.1655C26.8327 39.9933 26.7475 39.8825 26.6505 39.7103C26.2742 39.083 26.0819 38.4199 25.8778 37.6956C25.7945 37.2661 25.7726 36.8247 25.6774 36.3338C25.6061 35.9657 25.5841 35.5243 25.5008 35.0948C25.4313 34.4079 25.3499 33.6598 25.3418 32.961C25.3079 32.4583 25.2741 31.9555 25.3017 31.4409C25.2678 30.9381 25.2459 30.4967 25.3467 30.0315C25.4218 29.7623 25.5089 29.5544 25.584 29.2852L25.7818 28.9922L25.8432 28.9803C25.9045 28.9684 25.9283 29.0911 25.9778 29.0179L26.0272 28.9446C26.0153 28.8832 26.0767 28.8713 26.0648 28.81C26.1262 28.7981 26.1262 28.7981 26.1143 28.7367C26.2864 28.6397 26.2608 28.8357 26.3102 28.7624C26.3716 28.7505 26.4705 28.604 26.4824 28.6654C26.6051 28.6416 26.6784 28.691 26.6903 28.7524C26.7141 28.8751 26.7873 28.9246 26.8111 29.0473L26.833 29.4887L26.7955 29.6233C26.9063 29.5381 26.9063 29.5381 26.8944 29.4768L26.8349 29.17L26.8487 28.9127C26.8368 28.8513 26.7516 28.7405 26.8011 28.6672C26.7892 28.6059 26.8743 28.7167 26.9714 28.8889L26.9457 29.0848C27.1123 29.9438 27.2294 30.8761 27.2851 31.8202L27.4305 34.2113C27.4981 35.2168 27.6885 36.1985 27.9402 37.1683L28.0811 38.2233L28.2257 38.6409L28.2376 38.7023C28.2871 38.629 28.3484 38.6171 28.3484 38.6171C28.3246 38.4944 28.3127 38.433 28.4235 38.3479C28.5106 38.14 28.659 37.9203 28.6846 37.7243C28.8468 37.2472 28.9357 36.7207 29.0978 36.2436C29.0859 36.1822 29.0621 36.0595 29.1116 35.9862C29.2362 35.6438 29.2023 35.141 29.1072 34.6501C28.9525 33.8525 28.8711 33.1043 28.8391 32.2829L28.8053 31.7801C28.7934 31.7188 28.7696 31.5961 28.8191 31.5228C28.7953 31.4001 28.8942 31.2536 28.9556 31.2417C29.0783 31.2179 29.0407 31.3525 29.1259 31.4633C29.1478 31.9047 29.2192 32.2729 29.3024 32.7024C29.3262 32.8251 29.3619 33.0091 29.3976 33.1932L29.459 33.1813C29.4728 32.924 29.4371 32.7399 29.4508 32.4826C29.4527 32.1639 29.32 31.8077 29.3218 31.489L29.2999 31.0476C29.288 30.9862 29.2761 30.9249 29.3375 30.913C29.3137 30.7903 29.3631 30.717 29.4739 30.6318C29.5353 30.62 29.5591 30.7427 29.571 30.804L29.7294 30.9643C29.7294 30.9643 29.7908 30.9524 29.7789 30.891L29.767 30.8297C29.7432 30.707 29.7688 30.511 29.8183 30.4378C29.9291 30.3526 30.0518 30.3288 30.1983 30.4277C30.2716 30.4772 30.2221 30.5504 30.234 30.6118C30.3192 30.7226 30.3549 30.9067 30.3173 31.0413C30.3292 31.1027 30.3411 31.164 30.4144 31.2135L30.4281 30.9561L30.3943 30.4534C30.3824 30.392 30.4438 30.3801 30.4438 30.3801L30.5051 30.3682L30.4676 30.5028C30.6736 30.9086 30.7568 31.3381 30.7669 31.7181C30.8583 32.8463 31.0725 33.9507 31.2252 35.0671C31.3204 35.5579 31.477 36.0369 31.5721 36.5277C31.7525 37.1294 31.9823 37.6578 32.2734 38.1744C32.3586 38.2852 32.3824 38.4079 32.5289 38.5068L32.5408 38.5682C32.6873 38.6671 32.81 38.6433 32.9089 38.4968L32.9959 38.2889C33.3065 37.5921 33.5556 36.9071 33.6821 36.246L33.8204 35.6461C34.1228 34.2506 34.2906 32.8174 34.3356 31.4081C34.4264 30.5629 34.4558 29.7295 34.4238 28.9081C34.4276 28.2707 34.4194 27.572 34.3004 26.9584C34.2053 26.4676 34.0606 26.05 33.6824 25.7413C33.6587 25.6186 33.6349 25.4959 33.5992 25.3118C33.5873 25.2504 33.6486 25.2385 33.71 25.2267C33.7832 25.2761 33.8565 25.3256 33.9178 25.3137L33.9792 25.3018L33.9673 25.2404C33.9554 25.1791 33.9435 25.1177 33.993 25.0445C33.9811 24.9831 34.0424 24.9712 34.1038 24.9593L34.1651 24.9474C34.3868 24.7771 34.8776 24.6819 35.1093 24.8917C35.2677 25.0519 35.4994 25.2617 35.5589 25.5685C35.8005 26.1582 35.969 26.6986 35.9652 27.3359L36.0385 27.3854L35.9928 26.8213C36.0065 26.5639 35.8976 26.3304 35.85 26.085C35.9846 26.1225 36.0084 26.2453 35.9708 26.3799ZM34.7418 26.9365C34.6448 26.7643 34.6586 26.507 34.5001 26.3467L34.4882 26.2854L34.4388 26.3586L34.631 27.0216C34.6291 27.3403 34.6886 27.6471 34.76 28.0153L34.7106 28.0885L34.8214 28.0034L34.7418 26.9365ZM27.3264 31.0483C27.2551 30.6801 27.3064 30.2882 27.235 29.92C27.1755 29.6132 27.116 29.3065 27.0565 28.9997L27.0328 28.877L27.0941 28.8651C27.1912 29.0372 27.2387 29.2827 27.2863 29.5281L27.4492 31.0245C27.4473 31.3431 27.5926 33.7342 27.7473 34.5318C27.7911 35.4146 27.9458 36.2123 28.1737 37.0594C28.148 37.2554 28.1956 37.5008 28.2432 37.7462L28.2551 37.8076C28.1938 37.8195 28.1938 37.8195 28.2057 37.8808L28.1938 37.8195C28.17 37.6968 28.2194 37.6235 28.1462 37.574C28.0867 37.2673 28.0391 37.0218 27.9182 36.7269L27.6008 34.4329C27.448 33.3166 27.3565 32.1884 27.3264 31.0483ZM26.6818 38.5583L26.6836 38.2396L26.3743 36.6443C26.2791 36.1535 26.2453 35.6507 26.2234 35.2093L26.0211 34.1663C25.9553 32.8421 25.7669 31.5417 25.8238 30.1937L25.8119 30.1323C25.7743 30.2669 25.7368 30.4015 25.6992 30.5361C25.7568 31.1616 25.8144 31.7871 25.7988 32.3631L25.8326 32.8659L25.8627 34.006L25.9322 34.6928L26.0017 35.3796C26.095 36.1892 26.5371 38.1407 26.5609 38.2634L26.6085 38.5088L26.6818 38.5583ZM31.5521 35.7677C31.3599 35.1046 31.1576 34.0616 31.0286 33.068C30.9096 32.4544 30.9015 31.7557 30.7825 31.1421L30.7487 30.6393L30.7981 30.5661L30.81 30.6274C30.8457 30.8115 30.8695 30.9342 30.9052 31.1183C31.0918 32.7374 31.3893 34.2713 31.5778 35.5717C31.6629 35.6825 31.6986 35.8666 31.661 36.0012L31.6729 36.0626L31.5997 36.0131L31.5521 35.7677ZM31.7487 37.7668C31.7844 37.9509 31.8577 38.0003 31.9428 38.1111C31.919 37.9884 31.9685 37.9152 31.8833 37.8044L31.2215 35.7044C31.0293 35.0414 30.8389 34.0597 30.7218 33.1274C30.6861 32.9434 30.6623 32.8207 30.6266 32.6366C30.6266 32.6366 30.5653 32.6485 30.5534 32.5871L30.5653 32.6485L30.5891 32.7712C30.7913 33.8143 30.9203 34.8079 31.075 35.6055C31.1345 35.9123 31.4695 37.3116 31.5665 37.4838L31.5171 37.5571L31.5784 37.5452C31.6517 37.5946 31.6755 37.7173 31.7487 37.7668ZM31.4006 38.5983L31.4501 38.525C31.4144 38.3409 31.3174 38.1688 31.2936 38.046L31.0043 37.2108C30.8121 36.5478 30.6198 35.8848 30.4157 35.1604C30.3919 35.0377 30.1484 34.7666 30.4733 35.7859L30.4971 35.9086C30.3863 35.9937 30.7369 36.817 30.7488 36.8784C30.8459 37.0506 30.8816 37.2346 30.9173 37.4187C31.0262 37.6522 31.1471 37.9471 31.2065 38.2539C31.2303 38.3766 31.3036 38.4261 31.3887 38.5369L31.4006 38.5983ZM28.1011 38.9834C28.1625 38.9715 28.1625 38.9715 28.1506 38.9101L27.8751 37.8176L27.3854 35.6206C27.3936 36.3194 27.5858 36.9824 27.7167 37.6573C27.7643 37.9028 27.8732 38.1363 27.9308 38.7618C28.0041 38.8112 28.0279 38.9339 28.1011 38.9834ZM27.646 39.2626C27.646 39.2626 27.7073 39.2507 27.6341 39.2013C27.3448 38.3661 27.105 37.4576 26.9265 36.5373L26.9365 36.9173C26.9722 37.1014 27.1645 37.7644 27.1388 37.9604C27.2834 38.378 27.4775 38.7223 27.5608 39.1518C27.5727 39.2132 27.5727 39.2132 27.646 39.2626ZM30.7733 38.9746C30.799 38.7786 30.7752 38.6559 30.69 38.5451L30.5811 38.3115C30.5573 38.1888 30.5454 38.1275 30.5216 38.0047C30.3532 37.4644 30.1728 36.8627 30.0657 36.3105C30.0539 36.2492 29.9925 36.2611 30.042 36.1878L29.9806 36.1997L29.9192 36.2116L29.8698 36.2849C29.9055 36.4689 30.3632 37.8445 30.3751 37.9058C30.3989 38.0285 30.4721 38.078 30.484 38.1393L30.5811 38.3115L30.6287 38.557C30.603 38.7529 30.6882 38.8637 30.7733 38.9746ZM32.5783 38.4336C32.5664 38.3722 32.5545 38.3108 32.4932 38.3227C32.311 38.0398 32.202 37.8062 32.0812 37.5113L32.095 37.254L32.1682 37.3035C32.3009 37.6597 32.4337 38.016 32.6278 38.3603L32.6397 38.4217L32.5783 38.4336Z" fill="#003E46"/>
<path d="M53.1208 17.7064C54.7065 15.8773 56.4214 14.0133 56.0957 11.1214C55.8517 8.96788 54.2914 7.62626 52.5024 7.7661C50.4551 7.92549 49.194 9.73686 47.8762 11.3548C46.6601 12.852 45.4638 14.3577 44.2691 15.88C43.2127 17.2205 43.3291 19.5207 44.2124 20.9072C45.3917 22.7557 47.5142 22.9774 49.084 21.7101C50.5483 20.5248 51.8537 19.1661 53.1208 17.7064Z" fill="#FBBA40"/>
<path d="M36.6536 16.0128C39.0103 16.0169 40.4462 13.6717 41.5428 11.3407C42.6749 8.9376 43.1283 6.65794 42.8598 3.91472C42.4982 0.222145 38.1417 -0.490965 36.867 2.8723C36.2876 4.39748 35.6943 5.92464 35.0952 7.44141C34.6323 8.60889 33.9217 9.61536 33.5755 10.9119C32.3977 13.4278 34.2845 16.4133 36.6495 16.019L36.6536 16.0128Z" fill="#FBBA40"/>
<path d="M58.4665 24.4757C56.3955 23.5503 54.4445 25.0881 52.7586 26.3505C51.4505 27.3274 50.0866 28.2038 48.7552 29.1416C46.2719 30.8856 47.0196 36.5558 50.3027 36.1032C52.1936 35.8431 53.8324 35.325 55.5908 34.4746C58.0988 33.2588 60.6319 31.8044 60.8247 28.1993C60.9211 26.4051 59.7738 25.066 58.4665 24.4813L58.4665 24.4757Z" fill="#FBBA40"/>
</svg>
