<?xml version="1.0" encoding="UTF-8"?>
<svg class="new"  xmlns="http://www.w3.org/2000/svg" width="61" height="49" version="1.1" viewBox="0 0 61 49">
  <path class="cls-2" d="M13,36.4c0,.1,0,.3,0,.5h0c0,.3,0,.5,0,.7v1.6c0,.6,0,1.2,0,1.7,0,.6-.3,1.1-.5,1.6,0,0,0,.1,0,.1-.2,0-.2.2-.4.5h0c0,0-.1,0-.2,0h0s0,0,0,0h0c0,0-.1,0-.2,0,0-.1,0-.3-.1-.4q0,0,0,0c0,.1,0,.2,0,.3,0,0,0,.1,0,.2,0,0,0,.2,0,.3,0,.1-.2.2-.3.2-.1,0,0-.2-.2-.3l-.8-1.5-1.1-2.3-1.3-2.9c-.4-.9-.9-1.9-1.3-2.9,0-.1-.1-.3-.2-.5,0,0,0,0,0-.1,0,0-.1,0-.1,0,0,.1.1.2,0,.4q0,0,0,.2v-.2s0,.1,0,.2c0,0,0,.2,0,.2,0,0,0,0,0,.1,0,0,0,.1,0,.2,0,0,0,0,.2.2.2.5.4.9.6,1.4.3.7.6,1.4.9,2.1.1.4.4.8.6,1.3.2.5.5,1,.7,1.5.3.5.5,1,.7,1.5l.2.3.2.5.2.5s0,0,0,0c-.2,0-.3,0-.5-.1,0-.1-.2-.2-.3-.4l-.4-.9-.6-1.2c-.6-1.2-1.1-2.4-1.6-3.6-.1-.3-.2-.6-.4-.9,0-.1,0-.2-.2-.4,0-.2-.1-.4-.3-.6l-.2-.6s0,0,0-.1c0,0,0,.1,0,.1v2c0,.4,0,.9,0,1.4,0,0,0,.1,0,.1,0,0,0,.1,0,.2,0,0,0,.1.1.2,0,.3,0,.6,0,.8h0c0,.2,0,.4,0,.6v1.1c0,.3,0,.6,0,1,0,.2,0,.4,0,.6,0,0,0,.1,0,.1,0,.3,0,.5-.3.5,0,0-.2.2-.2.2-.1,0-.1.2-.3.3,0,0,0,0,0,.1,0,.2-.2.3-.5.3,0,0,0-.2-.1-.3,0,0,0,0,0,.1,0,0,0,.1,0,.2-.2,0-.4,0-.5-.3,0-.2-.1-.4-.2-.5,0-.5,0-1,0-1.5,0-.9,0-1.8,0-2.7-.1-1.9-.1-3.9-.1-5.8,0-1.2,0-2.4,0-3.5,0-1.3,0-2.7,0-4.1,0-.2,0-.4,0-.6l.3-.2c.1,0,0,.2.1,0,0,.2,0,.4.1.6,0,0,0,.1.2.2,0,0,0,0,0-.1v-.6c0,0,0-.1,0-.2.1,0,.2,0,.2-.1.2.2.3.4.3.7,0-.2,0-.4,0-.6.2,0,.2-.1.2,0h.3c0,.1,0,.4,0,.4h0c0-.1,0-.3,0-.3,0,0,.1,0,.1,0,0,.1,0,.2,0,.3h0c.1,0,0-.1.2-.2,0,0,0,.1,0,.2.1.7.3,1.3.4,2,.2.7.3,1.5.6,2.2.5,1.9,1.3,3.6,1.9,5.4.5,1.1.9,2.1,1.4,3.2q0,0,0,.1c0,0,0,0,0-.1v-1.4c0,0-.3-2.8-.3-2.8,0-.7,0-1.4-.2-2.1-.1-.9-.2-1.9-.4-2.8,0-.6-.1-1.3-.2-1.9v-.7c-.2-.6-.2-1.1-.2-1.8,0-.2,0-.4,0-.6,0-.1,0-.2.1-.3.1,0,.2,0,.3.1v.5c0,0,0,.1,0,.2,0,0,.1,0,.2-.2,0-.1,0-.3,0-.4,0-.1,0-.2,0-.3q0-.2.1-.2t.1,0c0,.1.1.2.1.4,0-.1,0-.3.1-.5.2,0,.3,0,.5,0,0,0,0,.1,0,.1h0s.1,0,.1,0c0,.1,0,.2,0,.3,0,.4.1.7.1,1.1l.2,2.1c.1.9.2,1.9.3,2.8v.4c.1,0,0-.2,0-.2v-.3s-.1-1.4-.1-1.4c0-.9-.2-1.9-.3-2.9,0-.5,0-1,0-1.5h0c.1,0,0,0,0,.1,0,.4,0,.8.2,1.2,0,.7.1,1.4,0,2.1,0,.6.2,1.2.2,1.9,0,.7.2,1.4.2,2.1,0,.9.2,1.9.2,2.8,0,.6,0,1.2,0,1.8ZM11.7,28.4c0-1.1,0-2.2-.2-3.2v-.2s0,0,0,0q0,0,0,0h0c0,.1.1,1.8.1,1.8v1.2c0,.1.2.3.1.5ZM11.1,28.3c0-.7,0-1.4,0-2.1,0-.1-.2-.2-.1,0,0,.6.1,1.3.2,1.9v.2ZM10.9,32.3v-1.1c-.2-.8-.3-1.7-.4-2.5,0-.6-.2-1.2-.2-1.9,0-.1,0-.3,0-.5h0s.1,1.3.1,1.3c0-.1,0-.2-.1-.3v.4c.1.2.2.3.2.6v.8c0,0,.4,2.3.4,2.3,0,.5,0,1.1.2,1.6v.2c0-.3,0-.6,0-.9ZM10.8,39.4c0-.1,0-.2,0-.3l-.5-1.2c-.7-1.6-1.5-3.2-2.1-4.9-.4-1.1-.8-2.1-1.1-3.3-.1-.4-.3-.8-.4-1.3,0-.1,0-.3,0-.4,0-.2,0-.4-.1-.6,0,0,0-.1,0,0v.2c.1.4.2.8.2,1.2,0,0,0,.2.1.2.3,1.1.6,2.2.9,3.3.5,1.4,1.1,2.9,1.8,4.3.4.8.8,1.7,1.2,2.6l.2.2ZM4.4,29.9c0-.2,0-.4,0-.5,0,0,0-.1,0-.1,0-.1,0-.2-.1-.2h0c0,0,0,.2.1.2-.1,0,0,.1,0,.3,0,0,0,.2,0,.3,0,0,0,.1,0,.2,0,.3,0,.7,0,1v2.4c0,1.5,0,2.9,0,4.4,0,.4,0,1,0,1.4,0,0,0,.1,0,.2,0-.1,0-.2,0-.3,0-.3,0-.5,0-.7,0-.6,0-1.3,0-1.9,0-1.3,0-2.7,0-3.9v-2.6ZM9.4,37.1v-.2s-.7-1.5-.7-1.5c-.8-1.8-1.4-3.7-2-5.6l-.3-.9c0,0,0-.1,0-.1,0,.4.2.8.3,1.3.2.6.4,1.2.5,1.8.2.6.4,1.2.7,1.7l1,2.4.4.9c0,0,0,.1.1,0,0,0,0,.1,0,.2ZM8,35.9c0,0,0,0,.1,0v-.3c-.2-.1-.2-.2-.3-.4,0,0,0,0-.1,0,0-.1,0-.3,0-.4v-.3c-.3-.8-.7-1.5-1-2.3-.1-.3-.3-.7-.3-1,0,0,0-.1-.2-.2,0,.2,0,.3,0,.4.3.7.5,1.4.8,2.2l.5,1.1s0,0,0,0c0,.1,0,.2,0,.4l.2.3h0s0,.2,0,.2ZM6,34.7v-.3s0,0,0,0c0,.5,0,2.3,0,2.6v-2.3ZM4.4,40.8v-.4c0,0,0-.1,0-.1,0,.1,0,.3,0,.5h0ZM23.8,35c0,0,0,0,0,.1v.3c0,.4,0,.8,0,1.2,0,.1-.1.9-.2.9,0,.2,0,.4-.2.6h0c0,.3,0,.5,0,.6,0,.1-.2.7-.4,1-.1.3-.4.8-.6,1.1,0,.2-.2.4-.3.5-.2.2-.4.4-.5.5-.4.4-.8.7-1.3.8-1.2.3-2.3.1-3.1-.7-.2-.3-.4-.6-.6-1-.3-.5-.4-1.1-.5-1.7-.3-1.3-.3-2.6-.4-3.8,0-1,.2-2.1.4-3.1.1-.6.3-1.2.6-1.8.3-.6.8-1,1.4-1.3.5-.2.8-.4,1.3-.4.4,0,.8,0,1.2,0,.2,0,.3.2.4.4,0,0,.2,0,.4.7.3.7.4,1.5.5,2.3,0,0,0,.1,0,.2,0,.3.1.6,0,.8-.3,1.2-.9,1.8-2.5,2.1l-.8.2c-.1,0-.2,0-.3,0s-.2,0-.2.2v.6s0,.4,0,.4c0,.6.1,1.3.3,1.9.2.5.4,1,.7,1.5.2.3.5.5.9.7.1,0,.3.1.5.2.6,0,1.5-1.4,1.7-2.5.2-.7.3-1.5.4-2.3,0-.3,0-.5,0-.6,0,0,0-.1.2,0q0,0,.1,0v-.2q0,0,0,0c0,0,.1,0,.1,0,0,0,0-.1.2-.2.1,0,.2,0,.4,0ZM18.2,33.9c0,.1,0,.3,0,.4,0,0,0,.1,0,.2,0,0,.1,0,.2,0,.7.1,1.3,0,2-.4,0,0,.1,0,.1-.2v-.5c-.2-.9-.4-1.8-.9-2.6-.1,0-.2-.3-.3-.4,0,0-.2,0-.2,0,0,.2-.2.5-.2.7-.4,1-.6,1.9-.7,2.9ZM21.4,30.5v.3c0,.5.2.9.3,1.4,0,0,0,0,0,0h0c0-.6,0-1.2-.3-1.7h0ZM20.6,31.7c0,0,0,.1,0,.1,0,.3,0,.4.1.7,0,.2,0,.6.2.8,0-.1,0-.3,0-.4,0-.4,0-.7-.2-1v-.2ZM16.6,33.1c0,0,0,0,0,0,0,.1,0,.3,0,.4,0,.2,0,.4,0,.6,0,.9-.2,1.8,0,2.6,0,.4,0,.9-.1,1.3q0,0,0,.1c.1.3.2.6.2,1h0c0,.2,0,.2,0,.3v.3c0,0,.1,0,.1,0h0s0,.2,0,.2c0,0,0,.2.2.2,0-.1-.1-.2-.1-.3-.2-.8-.3-1.7-.4-2.5v-.7c0-.6,0-1.1,0-1.6,0-.6,0-1.1.1-1.7v-.3ZM18.5,39.5c0,.2.1.3.3.4l-.3-1c-.2-.5-.3-1.1-.4-1.8v-1.1c0,0-.1-.2-.1-.2,0,0,0,.2,0,.3h0c0,.8.1,1.4.2,2.1,0,.4.2.9.4,1.3ZM18.4,39.8h0c0-.2,0-.3-.1-.4-.2-.6-.4-1.3-.4-1.9,0,0,0,0,0,0h0c0,.6,0,.9.2,1.4.1.3.3.7.4,1h0ZM17.7,40.1v.2c0,0,.1-.1,0-.2,0-.5-.2-.9-.5-1.4,0,0,0-.2,0-.3h0c0,0,0,0,0,0h0c.1.6.3,1.2.5,1.7ZM36,26.4c0,.4.2.9.2,1.3,0,.5,0,1.1,0,1.6,0,.7,0,1.5,0,2.2,0,2.6-.7,6.1-.9,6.7,0,0,0,.1,0,.1-.1,0-.2.2-.2.2,0,.1,0,.3-.1.3-.2.3-.4.5-.7.8,0,0-.1,0-.2.2-.3.4-1.1.7-1.5.8-.1,0-.2,0-.3,0-.5,0-.8,0-1.2-.5-.4-.4-.7-.9-.9-1.5l-.2-.8-.2-.3h0c0,0,0,.2,0,.3v.3c-.1,0-.2.1-.2.2,0,0-.1,0-.1,0,0,.1,0,.2,0,.3h0c0,.3-.2.5-.2.7,0,.2-.2.4-.3.4-.1,0-.2.2-.3.2-.2.2-.4.4-.6.4h-.1c-.3,0-.5,0-.7-.2,0-.2-.2-.3-.3-.5-.4-.6-.6-1.3-.8-2,0-.4-.1-.9-.2-1.4,0-.4,0-.8-.2-1.2,0-.7-.2-1.4-.2-2.1,0-.5,0-1,0-1.5,0-.5,0-.9,0-1.4,0-.3.2-.5.2-.7l.2-.3h0c0,0,0,0,.1,0h0c0-.1,0-.1,0-.2q0,0,0,0c.2,0,.1,0,.2,0,0,0,.2-.2.2,0,.1,0,.2,0,.2,0,0,.1,0,.2.1.3v.4s0,.1,0,.1q.1,0,0-.1v-.3c0,0,0-.3,0-.3,0,0,0-.2,0-.2,0,0,0,0,.2.2v.2c.1.9.3,1.8.3,2.7v2.4c.2,1,.4,2,.7,3v1.1c.1,0,.3.4.3.4h0s.1,0,.1,0c0-.1,0-.2,0-.3,0-.2.2-.4.3-.6.2-.5.3-1,.4-1.5,0,0,0-.2,0-.3.1-.3,0-.8,0-1.3-.2-.8-.2-1.5-.3-2.4v-.5c0,0,0-.2,0-.3,0-.1,0-.3.1-.3.1,0,0,.1.2.2,0,.4,0,.8.2,1.2,0,.1,0,.3,0,.5h0c0-.3,0-.5,0-.7,0-.3-.1-.7-.1-1v-.4c0,0,0-.1,0-.1,0-.1,0-.2.1-.3,0,0,0,.1,0,.2l.2.2s0,0,0,0h0c0-.2,0-.4,0-.5.1,0,.2-.1.4,0,0,0,0,.1,0,.2,0,.1.1.3,0,.4,0,0,0,.1,0,.2v-.3s0-.5,0-.5c0,0,0,0,0,0h0s0,.1,0,.1c.2.4.3.8.3,1.2,0,1.1.3,2.2.5,3.3,0,.5.3,1,.3,1.5.2.6.4,1.1.7,1.6,0,.1.1.2.3.3h0c.1.2.3.1.4,0v-.2c.4-.7.6-1.4.8-2v-.6c.4-1.4.6-2.8.7-4.2,0-.8.1-1.7,0-2.5,0-.6,0-1.3-.1-1.9,0-.5-.2-.9-.6-1.2,0-.1,0-.2,0-.4,0,0,0,0,.1,0,0,0,.1,0,.2,0h0s0,0,0,0c0,0,0-.1,0-.2,0,0,0,0,.1,0h0c.2-.2.7-.3.9,0,.2.2.4.4.4.7.2.6.4,1.1.4,1.8h0s0-.5,0-.5c0-.3,0-.5-.1-.7.1,0,.2.2.1.3ZM34.7,26.9c0-.2,0-.4-.2-.6h0c0,0,0,0,0,0l.2.7c0,.3,0,.6.1,1h0c0,0,.1,0,.1,0v-1.1ZM27.3,31c0-.4,0-.8,0-1.1,0-.3-.1-.6-.2-.9h0c0-.1,0-.1,0-.1,0,.2.1.4.2.7l.2,1.5c0,.3.1,2.7.3,3.5,0,.9.2,1.7.4,2.5,0,.2,0,.4,0,.7h0q0,0,0,.1h0c0-.2,0-.3,0-.3,0-.3-.1-.6-.2-.8l-.3-2.3c-.2-1.1-.2-2.2-.3-3.4ZM26.7,38.6v-.3s-.3-1.6-.3-1.6c0-.5-.1-1-.2-1.4l-.2-1c0-1.3-.3-2.6-.2-4h0c0,0,0,.2-.1.3,0,.6.1,1.3,0,1.8v.5s0,1.1,0,1.1v.7c0,0,.1.7.1.7,0,.8.5,2.8.6,2.9v.2s.1,0,.1,0ZM31.6,35.8c-.2-.7-.4-1.7-.5-2.7-.1-.6-.1-1.3-.2-1.9v-.5s0,0,0,0h0c0,.2,0,.4,0,.6.2,1.6.5,3.2.7,4.5,0,.1.1.3,0,.4h0c0,0,0,0,0,0v-.2ZM31.7,37.8c0,.2.1.2.2.3,0-.1,0-.2,0-.3l-.7-2.1c-.2-.7-.4-1.6-.5-2.6,0-.2,0-.3,0-.5,0,0,0,0,0,0h0c0,0,0,.2,0,.2.2,1,.3,2,.5,2.8,0,.3.4,1.7.5,1.9h0c0,0,0,0,0,0,0,0,0,.2.2.2ZM31.4,38.6h0c0-.3-.1-.4-.2-.6l-.3-.8c-.2-.7-.4-1.3-.6-2.1,0-.1-.3-.4,0,.6h0c-.1.2.2,1,.3,1.1,0,.2.1.4.2.5.1.2.2.5.3.8,0,.1,0,.2.2.3h0ZM28.1,39q0,0,0,0l-.3-1.1-.5-2.2c0,.7.2,1.4.3,2,0,.2.2.5.2,1.1,0,0,0,.2.2.2ZM27.6,39.3s0,0,0,0c-.3-.8-.5-1.7-.7-2.7v.4c0,.2.2.8.2,1,.1.4.3.8.4,1.2q0,0,0,.1ZM30.8,39c0-.2,0-.3,0-.4v-.2c-.1-.1-.1-.2-.2-.3-.2-.5-.3-1.1-.5-1.7,0,0,0,0,0-.1h0s0,0,0,0h0c0,.3.5,1.6.5,1.7,0,.1,0,.2.1.2v.2c0,0,.1.2.1.2,0,.2,0,.3.1.4ZM32.6,38.4c0,0,0-.1,0-.1-.2-.3-.3-.5-.4-.8v-.3s0,0,0,0c.1.4.3.7.5,1.1h0c0,0,0,0,0,0Z"/>
  <path class="stain" d="M53.1,17.7c1.6-1.8,3.3-3.7,3-6.6-.2-2.2-1.8-3.5-3.6-3.4-2,.2-3.3,2-4.6,3.6-1.2,1.5-2.4,3-3.6,4.5-1.1,1.3-.9,3.6,0,5,1.2,1.8,3.3,2.1,4.9.8,1.5-1.2,2.8-2.5,4-4Z"/>
  <path class="stain" d="M36.7,16c2.4,0,3.8-2.3,4.9-4.7,1.1-2.4,1.6-4.7,1.3-7.4-.4-3.7-4.7-4.4-6-1-.6,1.5-1.2,3.1-1.8,4.6-.5,1.2-1.2,2.2-1.5,3.5-1.2,2.5.7,5.5,3.1,5.1h0Z"/>
  <path class="stain" d="M58.5,24.5c-2.1-.9-4,.6-5.7,1.9-1.3,1-2.7,1.9-4,2.8-2.5,1.7-1.7,7.4,1.5,7,1.9-.3,3.5-.8,5.3-1.6,2.5-1.2,5-2.7,5.2-6.3,0-1.8-1.1-3.1-2.4-3.7h0Z"/>
</svg>
