<svg width="424" height="119" viewBox="0 0 424 119" xmlns="http://www.w3.org/2000/svg">
    <path
        d="M416.231 59.9598C415.708 36.209 392.761 19.7378 370.267 26.0328C367.216 21.2496 363.316 17.0064 358.363 13.6207C347.856 6.44272 331.241 9.07887 319.477 9.27579C300.072 9.59975 284.185 9.64421 267.991 21.2877C267.71 21.491 267.551 21.7388 267.334 21.9674C259.406 21.256 250.795 22.6852 243.25 22.9711C228.557 23.5301 213.856 24.0954 199.156 24.6353C171.862 25.639 144.555 26.5219 117.249 27.1762C102.606 27.5256 87.9632 27.7479 73.3204 27.9067C67.0842 27.9702 53.6287 25.0038 48.5286 29.3804C32.8199 42.8343 17.1048 56.2946 1.39607 69.7612C-1.07418 71.8765 0.0428613 75.5036 2.34715 77.1234C13.7218 85.089 26.0794 91.8414 37.9838 98.9621C43.6137 102.335 49.2563 105.683 54.8989 109.03C61.633 113.026 73.4353 110.313 80.961 110.282C142.258 110.04 203.567 109.011 264.857 107.989C264.959 107.989 265.023 107.938 265.119 107.925C267.334 107.823 269.44 107.569 271.476 107.207C289.496 123.799 325.356 116.31 347.537 114.366C360.788 113.204 369.437 103.282 374.333 91.6127C395.084 94.757 416.736 82.5227 416.238 59.9534L416.231 59.9598ZM343.286 19.344C349.165 34.7226 354.297 47.5794 353.971 65.0415C353.665 81.5064 350.62 93.2579 340.407 105.435C336.832 105.803 332.811 106.293 328.541 106.763C348.903 86.334 344.709 36.8379 323.671 18.7024C330.2 18.7405 336.762 19.0264 343.286 19.3503V19.344ZM124.666 36.3678C164.209 35.415 203.733 33.846 243.257 32.3405C262.297 31.6164 279.091 28.7388 290.657 47.0268C290.702 47.103 290.734 47.1729 290.779 47.2554C251.644 47.2173 212.516 48.9832 173.413 50.3871C141.441 51.5368 108.363 50.6856 76.4992 54.3318C74.1183 47.681 70.563 41.71 65.9671 37.3016C85.5376 37.1936 105.102 36.8379 124.666 36.3742V36.3678ZM78.3184 60.487C109.538 62.8818 142.341 59.1086 173.413 57.9462C213.499 56.447 253.604 55.1512 293.664 53.1185C296.16 59.4961 296.651 66.1532 295.432 72.4101C263.114 69.3928 228.933 73.4645 196.635 74.6714C157.666 76.1324 118.691 77.4092 79.7418 79.3339C80.2907 73.1215 79.7801 66.6359 78.3184 60.4743V60.487ZM42.7392 90.8695C38.4817 88.3286 34.1667 85.8195 29.8645 83.2913C32.0986 76.2341 33.5986 64.4889 26.7496 60.3727C32.1561 55.742 37.5625 51.1049 42.9754 46.4678C47.2839 42.7772 49.8499 39.8552 53.4436 38.3878C73.5119 54.6113 74.9162 80.7441 59.4117 100.785C53.8457 97.4884 48.2924 94.179 42.7392 90.8695ZM95.3739 100.874C90.1079 100.906 79.2439 102.564 70.5247 102.634C74.7311 98.003 77.4567 91.9811 78.8482 85.3685C118.117 85.4193 157.385 83.6407 196.622 82.2369C228.659 81.0871 261.8 81.9383 293.728 78.2731C289.26 89.9675 278.734 99.0638 264.94 99.8133C264.908 99.8133 264.883 99.7943 264.851 99.7943C208.361 99.1718 151.864 100.557 95.3739 100.874ZM301.304 47.8081C297.979 37.2254 289.451 29.5456 279.551 25.2388C285.072 23.1426 290.734 21.6689 296.492 20.6589C305.753 35.5103 313.4 46.7473 313.777 65.7403C313.968 75.2558 311.453 84.3394 307.324 92.826C304.483 98.6636 299.664 102.71 295.668 107.442C290.868 106.769 286.413 105.549 282.57 103.599C301.764 94.1472 308.504 70.7521 301.292 47.8017L301.304 47.8081ZM304.987 108.154C315.934 98.3523 319.988 78.343 320.358 65.7403C320.798 50.8063 314.236 28.8468 300.379 20.0491C306.577 19.1852 312.87 18.804 319.209 18.7151C326.862 33.3505 333.354 45.8707 334.184 63.2121C335.083 81.9574 325.069 92.8704 318.06 107.76C313.719 108.078 309.302 108.249 304.987 108.16V108.154ZM349.707 103.733C356.326 95.9703 357.839 82.0527 358.631 73.1533C360.163 55.869 359.339 33.1219 346.758 19.6934C365.703 22.5201 369.539 50.1711 369.412 65.1305C369.284 80.1534 364.337 98.4413 349.707 103.733ZM374.365 33.954C391.14 33.4839 404.04 41.7163 406.255 59.9598C408.367 77.3457 391.089 81.4111 377.493 81.9574C378.284 78.6924 378.827 75.4273 379.114 72.3211C380.276 59.7565 379.293 45.858 374.365 33.954Z"/>
    <path
        d="M392.238 54.9797C393.463 59.3373 392.072 63.7457 392.921 68.116C393.048 68.7893 394.063 69.0625 394.51 68.5352C400.101 61.9163 396.878 45.5785 387.418 43.946C387.01 43.8761 386.633 44.2636 386.863 44.6638C388.867 48.1193 391.133 51.0731 392.238 54.986V54.9797Z"/>
    <path
        d="M266.28 14.4147C284.466 5.31838 301.719 3.60329 321.82 2.23757C322.324 2.20581 322.298 1.53248 321.82 1.47531C305.23 -0.684426 277.387 -0.767005 265.987 14.1288C265.846 14.3131 266.108 14.5036 266.28 14.421V14.4147Z"/>
    <path
        d="M332.345 1.98349C334.049 1.76751 335.811 1.74846 337.528 1.61506C337.892 1.58965 338.147 1.03066 337.739 0.846448C334.918 -0.392226 330.762 -0.354113 328.164 1.51343C327.922 1.69129 327.883 2.18676 328.26 2.23757C329.639 2.43449 330.986 2.155 332.352 1.98349H332.345Z"/>
    <path
        d="M418.849 77.2885C412.663 92.4385 397.58 93.8804 383.94 98.003C383.608 98.1046 383.697 98.5429 384.016 98.5747C399.08 99.9213 415.887 92.7942 419.889 77.5744C420.068 76.8883 419.104 76.6724 418.855 77.2885H418.849Z"/>
    <path
        d="M423.617 61.7066C423.527 61.3763 423.061 61.3954 422.966 61.7066C422.321 63.7203 422.014 65.8356 421.574 67.9C421.172 69.7866 420.591 71.5906 420.412 73.5217C420.387 73.7567 420.706 73.852 420.859 73.7059C423.604 71.0316 424.632 65.302 423.617 61.7066Z"/>
    <path
        d="M244.553 113.769C219.818 113.769 195.103 114.303 170.375 114.824C146.502 115.319 121.525 113.655 97.8378 116.888C97.5442 116.926 97.5442 117.441 97.8378 117.479C120.51 120.534 144.702 118.12 167.515 117.657C193.22 117.123 218.918 116.494 244.553 114.449C244.98 114.411 244.993 113.775 244.553 113.775V113.769Z"/>
    <path
        d="M55.5755 22.2152C68.0544 18.7342 81.8291 20.0364 94.6463 19.128C95.0867 19.0962 95.0803 18.4928 94.6463 18.4547C66.4331 16.1425 38.6987 18.6897 19.8176 42.7009C19.6389 42.9233 19.8687 43.3234 20.1495 43.1329C31.505 35.415 42.12 25.9693 55.5755 22.2152Z"/>
</svg>
