<svg width="286" height="310" viewBox="0 0 286 310" xmlns="http://www.w3.org/2000/svg">
    <path
        d="M14.065 296.509C5.55345 294.347 -2.46358 290.701 -10.9231 288.409C-11.2007 288.331 -11.3569 288.721 -11.114 288.86C4.33875 298.523 26.0992 305.251 44.285 302.36C44.7449 302.291 44.5714 301.675 44.1896 301.622C34.0382 300.424 23.9909 299.018 14.0737 296.5L14.065 296.509Z"/>
    <path
        d="M-66.3221 290.163C-66.6171 290.38 -66.4349 290.796 -66.0791 290.736C-60.5869 289.867 -55.4245 286.612 -50.878 283.573C-50.6004 283.382 -50.7652 282.878 -51.121 283C-56.3095 284.832 -61.819 286.942 -66.3221 290.154V290.163Z"/>
    <path
        d="M204.591 178.15C199.688 199.455 193.971 219.883 181.893 238.376C168.262 259.255 148.003 271.227 125.982 281.507C125.817 281.576 125.939 281.802 126.095 281.776C171.959 273.19 204.79 222.991 205.944 178.341C205.962 177.568 204.764 177.395 204.591 178.159V178.15Z"/>
    <path
        d="M211.376 35.3862C224.121 33.2765 237.101 33.6672 249.856 31.7138C250.255 31.653 250.255 30.9672 249.856 30.9064C225.883 27.4511 194.092 30.8717 173.98 45.3443C173.763 45.4918 173.885 45.8999 174.171 45.7957C186.492 41.368 198.422 37.5306 211.367 35.3775L211.376 35.3862Z"/>
    <path
        d="M23.826 2.21304C26.2554 1.996 28.572 2.06545 30.9407 1.423C31.3224 1.31882 31.3224 0.76318 30.9407 0.658998C27.0016 -0.417546 20.4249 -0.460955 17.3968 2.73395C17.3274 2.81209 17.3707 2.95099 17.4835 2.95099C19.6266 2.8555 21.6829 2.40404 23.826 2.21304Z"/>
    <path
        d="M-94.373 169.329C-94.6072 151.462 -96.5334 134.967 -93.245 117.125C-89.9046 99.0239 -82.2346 81.912 -72.5084 66.4063C-62.7734 50.8832 -49.5072 37.6522 -34.9047 26.7218C-20.5713 15.9911 -4.36369 10.9122 11.2799 2.82077C11.3146 2.8034 11.2973 2.73395 11.2625 2.74263C-22.3239 5.8594 -54.366 35.829 -72.8814 61.9005C-93.0021 90.2552 -107.865 135.236 -95.0237 169.425C-94.9022 169.763 -94.3643 169.729 -94.373 169.338V169.329Z"/>
    <path
        d="M-75.1894 293.548C-105.843 303.463 -139.56 315.895 -165.719 290.31C-165.858 290.171 -166.066 290.345 -165.98 290.51C-149.321 323.857 -99.4573 306.97 -74.8336 294.382C-74.3738 294.147 -74.6948 293.383 -75.1894 293.54V293.548Z"/>
    <path
        d="M274.228 40.3175C241.223 30.3681 197.077 50.4665 165.738 62.43C128.733 14.1766 63.6248 -7.62344 3.41905 19.4725C-58.6087 47.3932 -91.1367 111.109 -82.4689 173.713C-105.782 190.73 -181.805 254.567 -155.897 285.535C-139.43 305.217 -86.8418 285.448 -68.1615 280.178C-54.2705 276.254 -40.5618 271.644 -27.0005 266.617C-26.5493 267.156 -26.0114 267.668 -25.3173 268.102C69.5855 326.591 195.88 265.584 195.619 151.531C195.619 150.55 195.428 149.7 195.142 148.918C224.52 129.193 255.088 107.219 276.458 79.6895C285.065 68.6028 293.689 46.1777 274.228 40.3175ZM138.112 53.7569C154.007 68.0038 166.579 86.4352 173.867 107.775C165.477 112.637 156.879 117.204 148.55 121.831C140.411 126.363 132.229 130.817 124.013 135.21C108.317 104.728 104.048 73.3518 138.103 53.7569H138.112ZM20.876 27.9893C48.71 18.6824 77.4377 20.7487 102.773 31.3839C78.7131 31.8527 64.3623 58.584 64.4143 82.0162C64.4317 90.9411 67.4598 100.031 68.2667 108.895C69.5855 123.498 56.7791 131.433 44.0508 133.838C36.2593 134.333 28.1469 132.813 21.5875 129.61C21.5615 129.592 21.5354 129.575 21.5007 129.566C16.1214 126.146 11.5142 121.327 7.99153 116.292C-11.0098 89.1092 11.1584 55.1807 20.876 27.998V27.9893ZM94.0357 50.0324C88.6563 56.9952 83.8062 62.5429 82.175 71.6241C80.9429 78.5088 82.0882 85.4976 80.0927 92.1913C79.841 93.0421 78.6524 93.4762 78.0016 92.7469C68.3534 81.7992 76.6481 48.8864 93.1246 47.8273C94.3827 47.7404 94.6604 49.2337 94.0357 50.0324ZM20.9715 171.777C20.5897 174.026 16.989 174.087 15.3752 173.939C13.2321 173.739 11.5489 172.949 10.0826 171.395C8.96329 170.215 10.0652 168.122 11.705 168.609C12.8416 168.938 14.1778 169.416 15.3752 169.39C16.4944 169.373 17.9521 168.964 19.0279 169.355C20.3121 169.833 21.2144 170.319 20.9715 171.769V171.777ZM4.34743 167.428C-9.35265 171.908 -23.2957 161.351 -31.7378 151.436C-38.5401 143.449 -46.8175 125.608 -39.6507 115.797C-39.564 115.676 -39.3731 115.65 -39.295 115.797C-36.7615 120.563 -36.961 126.267 -35.1216 131.355C-32.8831 137.536 -29.5253 143.692 -24.9268 148.467C-16.3459 157.374 -5.83002 160.066 4.52095 165.978C5.14566 166.334 4.96346 167.219 4.33008 167.428H4.34743ZM-23.9898 53.8351C-40.8134 76.0779 -55.3377 104.485 -50.5917 130.721C-43.477 170.084 -10.7669 178.072 22.2296 187.066C2.58612 196.729 -17.1267 206.262 -37.0044 215.421C-42.0194 217.73 -47.0344 219.935 -52.1014 222.028C-86.5381 163.825 -72.5344 95.2039 -23.9985 53.8264L-23.9898 53.8351ZM-64.3612 226.794C-64.9859 227.02 -65.5846 227.28 -66.2006 227.506C-70.6863 229.069 -75.2328 230.44 -79.8313 231.621C-88.525 233.67 -90.2343 233.835 -84.9504 232.142C-80.456 226.681 -74.7816 222.019 -69.246 217.452C-67.7363 220.595 -66.1138 223.712 -64.3525 226.794H-64.3612ZM74.1666 259.767C72.3186 265.871 68.8393 271.167 65.8199 276.628C40.3633 279.015 13.5271 274.136 -11.5565 260.688C12.3297 251.155 35.7474 240.364 58.7139 229.095C63.6855 226.655 68.5704 224.025 73.4986 221.498C78.6177 234.174 78.1665 246.571 74.1666 259.776V259.767ZM116.62 254.532C116.022 254.871 115.241 254.176 115.649 253.56C121.219 245.173 127.18 236.11 130.581 226.594C134.19 216.497 134.095 207.399 134.329 196.937C134.338 196.442 135.04 196.043 135.396 196.495C149.009 213.485 132.837 245.304 116.629 254.532H116.62ZM140.854 243.993C141.235 243.159 141.591 242.326 141.93 241.51C150.259 221.021 151.734 201.947 145.721 180.824C157.547 173.548 169.278 166.117 180.835 158.442C178.917 193.977 163.647 223.356 140.854 243.984V243.993ZM227.991 107.393C176.41 149.109 118.295 183.368 59.3299 213.424C2.6642 242.326 -60.4742 270.776 -124.359 278.112C-165.19 282.8 -134.128 244.166 -120.324 229.32C-107.535 215.56 -94.4684 200.202 -79.7792 188.047C-78.3216 194.064 -76.4214 200.037 -74.1656 205.949C-84.1001 212.99 -102.642 224.919 -100.82 237.664C-98.85 251.433 -77.9658 244.34 -70.1397 242.152C-30.8268 231.204 6.75079 208.936 43.0356 190.947C93.8448 165.752 145.14 140.323 193.294 110.275C199.966 106.108 221.588 93.6411 213.606 82.6326C207.289 73.9074 189.815 79.6548 179.377 83.7873C177.451 80.0802 175.351 76.5033 173.139 73.0219C201.606 64.479 230.767 52.7759 260.406 51.8035C294.062 50.7009 235.158 101.594 227.991 107.393ZM184.557 95.0042C187.559 94.1013 190.552 93.2157 193.58 92.4083C205.346 89.2655 204.547 86.8954 193.485 95.1344C191.229 96.8187 188.843 98.3467 186.492 99.9181C185.876 98.2599 185.225 96.619 184.548 95.0042H184.557Z"/>
    <path
        d="M205.857 157.756C205.771 161.62 205.918 165.474 205.857 169.329C205.857 169.607 206.283 169.746 206.395 169.477C208.07 165.796 208.235 161.264 206.395 157.609C206.257 157.34 205.857 157.478 205.857 157.756Z"/>
</svg>
