<svg width="100" height="92" viewBox="0 0 100 92" xmlns="http://www.w3.org/2000/svg">
    <path
        d="M80.5697 73.1917C85.0511 68.6041 88.7732 62.118 86.3223 55.6298C85.9874 54.7529 85.5581 53.94 85.0627 53.1686C87.6495 50.3934 89.6542 47.113 90.5645 43.3499C92.0498 37.1763 90.61 30.5547 85.6887 26.2907C80.7007 21.9733 73.6376 20.8293 67.2463 20.7876C65.5258 20.7741 63.8061 20.8554 62.0805 21.0189C62.3215 18.7942 61.9614 16.5419 60.4693 14.7622C58.3491 12.231 54.5425 10.9699 51.4631 10.156C47.5917 9.12624 43.5204 8.93584 39.6967 9.79365C39.0561 8.14411 38.0245 6.66169 36.657 5.53258C34.1988 3.5223 30.875 3.03902 27.8379 3.77445C24.1598 4.66921 21.0174 7.11619 18.4967 9.84987C17.715 10.6996 18.8722 12.0546 19.714 11.214C23.9069 6.99527 32.3282 2.35552 36.7591 8.89979C37.0785 9.37196 37.3476 9.86978 37.5567 10.3901C35.5595 11.0647 33.6689 12.0579 31.9292 13.3948C29.4157 15.3316 27.457 17.9222 26.3674 20.9118C26.1439 21.5331 26.5439 22.2103 27.1367 22.4245C33.141 24.5908 40.3367 20.1618 40.4026 13.5995C40.4022 13.084 40.3607 12.5657 40.2845 12.057C40.5908 11.9885 40.8971 11.92 41.2098 11.8641C44.2199 11.3408 47.3584 11.5534 50.3171 12.2858C53.0508 12.966 56.6755 13.9785 58.6036 16.1632C59.8784 17.6092 60.0114 19.493 59.6918 21.3135C55.8849 21.8613 52.1445 22.883 48.6515 24.4691C45.8898 25.7149 43.2825 27.3582 41.0132 29.3849C38.9041 31.2746 36.2061 33.9715 35.6408 36.8689C34.984 40.2413 38.116 41.8296 41.0205 41.5662C44.1398 41.2888 47.346 39.8407 49.9817 38.2067C55.3319 34.8908 59.8054 29.6171 61.5662 23.5017C71.0455 22.3618 84.5946 23.5153 87.8592 33.8655C89.4594 38.9618 88.1188 44.5619 85.1123 48.8516C84.5799 49.6142 83.9776 50.333 83.3625 51.0266C80.5405 48.067 76.5175 46.1464 72.6593 45.2051C66.2385 43.6393 59.4842 44.1629 53.3144 46.4756C47.7818 48.5437 39.9476 53.0276 40.8965 59.9941C41.3857 63.5611 44.3415 65.2707 47.6741 65.6622C51.2188 66.0807 54.8925 65.9418 58.4283 65.516C65.3733 64.6654 72.3308 62.3884 78.2728 58.6763C80.0708 57.5478 81.814 56.2646 83.3915 54.8118C84.2137 56.1944 84.7366 57.7531 84.7894 59.4635C84.9333 63.8645 82.3518 67.8826 79.2395 71.044C78.6525 70.2954 77.9806 69.6137 77.1988 69.0435C71.6338 64.98 63.7978 66.8866 58.0829 69.5788C56.7022 70.2334 55.4052 71.0834 54.7667 72.5267C54.1345 73.9509 54.2815 75.5658 54.8982 76.9657C56.3116 80.1817 60.2211 81.2238 63.4313 81.281C69.1621 81.381 74.5697 78.5991 78.807 74.8576C78.8521 74.9775 78.9003 75.0878 78.9359 75.2046C80.4401 80.1434 77.5904 85.1783 72.5188 86.2186C70.2892 86.6702 67.6089 86.4071 65.6899 85.0983C64.597 84.3531 63.4608 86.0654 64.5506 86.8201C67.0383 88.5139 69.7185 89.2293 72.7163 88.744C75.4993 88.3044 78.126 86.7306 79.7705 84.4266C82.0978 81.1567 82.2226 76.738 80.5602 73.1886L80.5697 73.1917ZM36.6457 17.771C34.8422 19.9495 31.9083 20.9815 29.1663 20.4879C30.969 16.7946 34.2899 14.0903 38.1321 12.6916C38.3056 14.4834 37.8564 16.3143 36.6457 17.771ZM41.5306 38.9348C40.621 39.1118 39.0412 39.3124 38.3652 38.4821C37.4786 37.394 38.9242 35.6037 39.5382 34.752C41.0577 32.6703 42.9492 30.8675 45.0451 29.3732C49.1489 26.4611 54.0201 24.7771 58.9537 23.9022C58.0655 26.2737 56.7555 28.4868 55.1688 30.452C51.8071 34.605 46.8143 37.9216 41.5211 38.9317L41.5306 38.9348ZM71.4264 59.1595C65.9654 61.5243 60.026 62.8393 54.0792 63.0791C52.704 63.1359 51.3252 63.139 49.9491 63.0693C48.3517 63.0012 46.4765 63.0108 45.0852 62.1159C42.7379 60.6045 43.1328 57.294 44.4692 55.2578C46.0684 52.8024 48.7828 51.1205 51.3354 49.8065C53.7871 48.5438 56.3961 47.6373 59.0963 47.0971C64.4839 46.0231 70.3176 46.3564 75.4232 48.4403C77.7159 49.3765 80.0184 50.7997 81.7703 52.6535C78.7724 55.4315 75.1532 57.5339 71.4295 59.15L71.4264 59.1595ZM61.4639 78.442C60.1024 78.1983 58.6662 77.6673 57.7606 76.573C56.8964 75.5132 56.5787 73.9057 57.5547 72.8144C58.4303 71.8376 59.9859 71.3241 61.1717 70.848C62.6476 70.256 64.175 69.7966 65.7319 69.4729C69.932 68.622 74.9894 69.2073 77.6153 72.6078C77.1594 73.0062 76.7098 73.3856 76.2538 73.7524C72.1775 76.9995 66.7769 79.405 61.4608 78.4515L61.4639 78.442Z"/>
</svg>
