<svg width="118" height="104" viewBox="0 0 118 104" xmlns="http://www.w3.org/2000/svg">
    <path
        d="M114.7 61.1288C101.446 56.7552 87.9026 53.056 74.3789 49.3953C85.5172 44.2896 96.5785 39.0876 107.601 34.5021C112.815 32.3443 109.583 24.6568 104.6 27.3542C91.2883 34.5407 77.3222 40.4748 63.3368 46.3704C62.8944 46.2548 62.4712 46.1392 62.0287 46.0044C66.0685 32.9223 69.8582 19.7823 73.5325 6.62315C74.8021 2.11474 67.6267 0.168796 66.5494 4.69648C63.3946 18.0291 59.8357 31.2075 56.0652 44.3474C56.0652 44.3474 56.046 44.3474 56.0268 44.3474C53.045 38.0279 50.0825 31.7085 47.0815 25.389C45.7157 22.5182 35.4431 5.35155 36.8666 3.02027C37.7323 1.6138 35.8278 0.32293 34.6736 1.3248C32.0189 3.65608 33.9426 6.48829 35.0583 9.39757C38.2132 17.663 41.7721 25.7936 45.2347 33.9434C46.389 36.6793 47.5624 39.3959 48.7167 42.1318C33.5578 37.3921 17.4948 31.5543 2.16288 30.5717C0.47002 30.4561 -0.12633 32.9415 1.31645 33.7315C16.4368 42.1318 35.6162 45.8502 52.4102 50.7633C52.4294 50.8211 52.4679 50.8981 52.4871 50.9559C40.5024 56.1002 28.6331 61.437 17.341 67.7758C15.8789 68.6043 16.8793 70.8007 18.4567 70.4346C29.6912 67.7373 40.7333 63.8068 51.6407 59.337C47.4278 73.5366 43.0609 87.6976 38.7134 101.878C38.0401 104.055 41.2142 104.787 42.0221 102.783C47.5432 89.2582 52.4679 75.4825 57.0271 61.5719C61.0476 70.9548 65.1259 80.3377 69.3003 89.6628C71.1471 93.8052 77.2453 90.2216 75.3793 86.0985C70.7431 75.7715 65.9723 65.5216 61.1631 55.2717C61.9902 54.9056 62.8174 54.5588 63.6446 54.1927C79.8807 59.2792 96.1168 64.5775 112.565 68.8162C117.585 70.1071 119.567 62.6894 114.7 61.0902V61.1288Z"/>
</svg>
