<svg class="triangle-shape" data-name="Calque 1" xmlns="http://www.w3.org/2000/svg" width="457" height="500" version="1.1"
     viewBox="0 0 457 500">
    <path class="cls-1"
          d="M227.44,3h0c3.63,0,6.75,2.06,8.33,5.51l217.26,474.52c1.45,3.16,1.2,6.78-.67,9.69-1.75,2.72-4.54,4.28-7.66,4.28H12.08c-3.11,0-5.9-1.56-7.65-4.27-1.87-2.9-2.13-6.52-.69-9.67L219.1,8.54c1.57-3.47,4.69-5.54,8.34-5.54M227.44,0c-4.43,0-8.87,2.44-11.08,7.3L1.01,481.82c-3.84,8.45,2.09,18.18,11.07,18.18h432.62c9,0,14.93-9.76,11.06-18.22L238.5,7.26C236.28,2.42,231.86,0,227.44,0h0Z"/>
</svg>
