<svg width="154" height="193" viewBox="0 0 154 193" xmlns="http://www.w3.org/2000/svg">
    <path
        d="M148.307 131.175C138.181 115.149 121.63 112.627 104.917 114.376C114.351 99.4487 118.418 81.4706 105.689 66.9092C92.1478 51.4123 73.4824 51.6156 55.6709 56.5372C62.8687 38.3558 67.8299 16.1883 54.0443 5.12482C37.2902 -8.29773 11.4676 7.28056 0.975935 21.2319C-2.64329 26.0315 4.67649 30.2616 8.62104 27.1297C20.4953 17.7746 44.2033 5.85696 44.7726 29.9769C45.0979 42.3012 36.1515 57.7982 30.4177 67.8854C26.8798 74.1493 32.9796 84.5212 40.7467 81.308C52.1737 76.549 66.8539 69.1463 79.6636 72.4816C106.462 79.4776 87.756 108.641 76.9796 121.169C71.9778 126.985 76.573 138.211 85.1534 135.202C96.5397 131.256 110.732 126.09 122.728 130.524C150.869 140.855 135.416 167.294 121.427 177.991C112.155 185.068 121.956 198.084 131.268 190.763C149.079 176.852 161.93 152.692 148.307 131.134V131.175Z"/>
</svg>
