<?xml version="1.0" encoding="UTF-8"?>
<svg id="Calque_1" data-name="Calque 1" xmlns="http://www.w3.org/2000/svg" width="2257" height="646.1" version="1.1" viewBox="0 0 2257 646.1">
  <g>
    <rect x="19.6" y="25.6" width="715.6" height="477.1" fill="#164194" stroke-width="0"/>
    <g>
      <polygon points="362.2 129.5 377.3 118.5 392.4 129.5 386.6 111.7 402 100.7 383.1 100.7 377.3 82.6 371.5 100.7 352.6 100.7 367.9 111.7 362.2 129.5" fill="#fff" stroke-width="0"/>
      <polygon points="284 150.5 299.1 139.5 314.2 150.5 308.5 132.7 323.8 121.7 304.9 121.7 299.1 103.6 293.4 121.7 274.5 121.7 289.8 132.7 284 150.5" fill="#fff" stroke-width="0"/>
      <polygon points="242 160.9 236.2 179 217.3 179 232.6 190 226.9 207.8 242 196.8 257.1 207.8 251.3 190 266.7 179 247.8 179 242 160.9" fill="#fff" stroke-width="0"/>
      <polygon points="221 274.8 236.1 285.9 230.4 268 245.7 257 226.8 257 221 239 215.2 257.1 196.3 257 211.6 268 205.9 285.9 221 274.8" fill="#fff" stroke-width="0"/>
      <polygon points="247.8 335.3 242 317.2 236.2 335.3 217.3 335.3 232.6 346.3 226.9 364.1 242 353.1 257.1 364.1 251.3 346.3 266.7 335.3 247.8 335.3" fill="#fff" stroke-width="0"/>
      <polygon points="305 392.6 299.3 374.5 293.5 392.6 274.6 392.6 289.9 403.6 284.2 421.4 299.3 410.4 314.4 421.4 308.6 403.6 324 392.6 305 392.6" fill="#fff" stroke-width="0"/>
      <polygon points="383.1 413.3 377.3 395.3 371.5 413.4 352.6 413.3 368 424.4 362.2 442.2 377.3 431.2 392.4 442.2 386.7 424.4 402 413.3 383.1 413.3" fill="#fff" stroke-width="0"/>
      <polygon points="461.1 392.6 455.4 374.5 449.6 392.6 430.7 392.6 446 403.6 440.3 421.4 455.4 410.4 470.5 421.4 464.7 403.6 480 392.6 461.1 392.6" fill="#fff" stroke-width="0"/>
      <polygon points="518.4 335.3 512.7 317.2 506.9 335.3 488 335.3 503.3 346.3 497.5 364.1 512.7 353.1 527.8 364.1 522 346.3 537.3 335.3 518.4 335.3" fill="#fff" stroke-width="0"/>
      <polygon points="558.1 256.8 539.2 256.8 533.4 238.8 527.6 256.8 508.7 256.8 524 267.8 518.3 285.6 533.4 274.6 548.5 285.6 542.8 267.8 558.1 256.8" fill="#fff" stroke-width="0"/>
      <polygon points="497.5 207.6 512.7 196.6 527.8 207.6 522 189.8 537.3 178.8 518.4 178.8 512.7 160.7 506.9 178.8 488 178.8 503.3 189.8 497.5 207.6" fill="#fff" stroke-width="0"/>
      <polygon points="455.6 106.6 449.8 124.7 430.9 124.7 446.2 135.7 440.5 153.5 455.6 142.5 470.7 153.5 464.9 135.7 480.3 124.7 461.4 124.7 455.6 106.6" fill="#fff" stroke-width="0"/>
    </g>
  </g>
  <g >
    <g >
      <text transform="translate(203.6 541.7)" fill="#fff" font-family="ArialMT, Arial" font-size="31.6" ><tspan x="0" y="0">UNION EUROPÉENNE</tspan></text>
    </g>
  </g>
  <g >
    <g >
      <text transform="translate(173 581.5)" fill="#fff" font-family="Arial-BoldMT, Arial" font-size="36.1" font-weight="700" ><tspan x="0" y="0">Fonds social européen</tspan></text>
    </g>
  </g>
  <g>
    <rect x="770.7" y="25.6" width="715.6" height="477.1" fill="#164194" stroke-width="0"/>
    <g>
      <polygon points="1113.2 129.5 1128.3 118.5 1143.4 129.5 1137.7 111.7 1153 100.7 1134.1 100.7 1128.3 82.6 1122.6 100.7 1103.7 100.7 1119 111.7 1113.2 129.5" fill="#fff" stroke-width="0"/>
      <polygon points="1035.1 150.5 1050.2 139.5 1065.3 150.5 1059.6 132.7 1074.9 121.7 1056 121.7 1050.2 103.6 1044.4 121.7 1025.5 121.7 1040.8 132.7 1035.1 150.5" fill="#fff" stroke-width="0"/>
      <polygon points="993 160.9 987.2 179 968.3 179 983.7 190 977.9 207.8 993 196.8 1008.1 207.8 1002.4 190 1017.7 179 998.8 179 993 160.9" fill="#fff" stroke-width="0"/>
      <polygon points="972.1 274.8 987.2 285.9 981.4 268 996.7 257 977.8 257 972.1 239 966.3 257.1 947.4 257 962.7 268 957 285.9 972.1 274.8" fill="#fff" stroke-width="0"/>
      <polygon points="998.8 335.3 993 317.2 987.2 335.3 968.3 335.3 983.7 346.3 977.9 364.1 993 353.1 1008.1 364.1 1002.4 346.3 1017.7 335.3 998.8 335.3" fill="#fff" stroke-width="0"/>
      <polygon points="1056.1 392.6 1050.3 374.5 1044.5 392.6 1025.6 392.6 1041 403.6 1035.2 421.4 1050.3 410.4 1065.4 421.4 1059.7 403.6 1075 392.6 1056.1 392.6" fill="#fff" stroke-width="0"/>
      <polygon points="1134.2 413.3 1128.4 395.3 1122.6 413.4 1103.7 413.3 1119 424.4 1113.3 442.2 1128.4 431.2 1143.5 442.2 1137.7 424.4 1153.1 413.3 1134.2 413.3" fill="#fff" stroke-width="0"/>
      <polygon points="1212.2 392.6 1206.4 374.5 1200.6 392.6 1181.7 392.6 1197.1 403.6 1191.3 421.4 1206.4 410.4 1221.5 421.4 1215.8 403.6 1231.1 392.6 1212.2 392.6" fill="#fff" stroke-width="0"/>
      <polygon points="1269.5 335.3 1263.7 317.2 1257.9 335.3 1239 335.3 1254.4 346.3 1248.6 364.1 1263.7 353.1 1278.8 364.1 1273.1 346.3 1288.4 335.3 1269.5 335.3" fill="#fff" stroke-width="0"/>
      <polygon points="1309.1 256.8 1290.2 256.8 1284.4 238.8 1278.7 256.8 1259.8 256.8 1275.1 267.8 1269.4 285.6 1284.4 274.6 1299.5 285.6 1293.8 267.8 1309.1 256.8" fill="#fff" stroke-width="0"/>
      <polygon points="1248.6 207.6 1263.7 196.6 1278.8 207.6 1273.1 189.8 1288.4 178.8 1269.5 178.8 1263.7 160.7 1257.9 178.8 1239 178.8 1254.4 189.8 1248.6 207.6" fill="#fff" stroke-width="0"/>
      <polygon points="1206.6 106.6 1200.9 124.7 1181.9 124.7 1197.3 135.7 1191.5 153.5 1206.7 142.5 1221.7 153.5 1216 135.7 1231.3 124.7 1212.4 124.7 1206.6 106.6" fill="#fff" stroke-width="0"/>
    </g>
  </g>
  <g >
    <g >
      <text transform="translate(954.7 541.7)" fill="#fff" font-family="ArialMT, Arial" font-size="31.6" ><tspan x="0" y="0">UNION EUROPÉENNE</tspan></text>
    </g>
  </g>
  <g >
    <g >
      <text transform="translate(924 581.5)" fill="#fff" font-family="Arial-BoldMT, Arial" font-size="36.1" font-weight="700" ><tspan x="0" y="0">Fonds social européen</tspan></text>
    </g>
  </g>
  <g >
    <g >
      <text transform="translate(926.4 617.2)" fill="#fff" font-family="ArialMT, Arial" font-size="26.4" ><tspan x="0" y="0">Initiative pour l&apos;emploi des jeunes</tspan></text>
    </g>
  </g>
  <g>
    <rect x="1521.8" y="25.6" width="715.6" height="477.1" fill="#164194" stroke-width="0"/>
    <g>
      <polygon points="1864.3 129.5 1879.4 118.5 1894.5 129.5 1888.8 111.7 1904.1 100.7 1885.2 100.7 1879.4 82.6 1873.6 100.7 1854.7 100.7 1870.1 111.7 1864.3 129.5" fill="#fff" stroke-width="0"/>
      <polygon points="1786.2 150.5 1801.3 139.5 1816.4 150.5 1810.6 132.7 1825.9 121.7 1807 121.7 1801.3 103.6 1795.5 121.7 1776.6 121.7 1791.9 132.7 1786.2 150.5" fill="#fff" stroke-width="0"/>
      <polygon points="1744.1 160.9 1738.3 179 1719.4 179 1734.7 190 1729 207.8 1744.1 196.8 1759.2 207.8 1753.4 190 1768.8 179 1749.9 179 1744.1 160.9" fill="#fff" stroke-width="0"/>
      <polygon points="1723.1 274.8 1738.2 285.9 1732.5 268 1747.8 257 1728.9 257 1723.1 239 1717.3 257.1 1698.4 257 1713.8 268 1708 285.9 1723.1 274.8" fill="#fff" stroke-width="0"/>
      <polygon points="1749.9 335.3 1744.1 317.2 1738.3 335.3 1719.4 335.3 1734.7 346.3 1729 364.1 1744.1 353.1 1759.2 364.1 1753.4 346.3 1768.8 335.3 1749.9 335.3" fill="#fff" stroke-width="0"/>
      <polygon points="1807.2 392.6 1801.4 374.5 1795.6 392.6 1776.7 392.6 1792 403.6 1786.3 421.4 1801.4 410.4 1816.5 421.4 1810.7 403.6 1826.1 392.6 1807.2 392.6" fill="#fff" stroke-width="0"/>
      <polygon points="1885.2 413.3 1879.4 395.3 1873.6 413.4 1854.7 413.3 1870.1 424.4 1864.3 442.2 1879.4 431.2 1894.5 442.2 1888.8 424.4 1904.1 413.3 1885.2 413.3" fill="#fff" stroke-width="0"/>
      <polygon points="1963.2 392.6 1957.5 374.5 1951.7 392.6 1932.8 392.6 1948.1 403.6 1942.4 421.4 1957.5 410.4 1972.6 421.4 1966.8 403.6 1982.2 392.6 1963.2 392.6" fill="#fff" stroke-width="0"/>
      <polygon points="2020.6 335.3 2014.8 317.2 2009 335.3 1990.1 335.3 2005.4 346.3 1999.7 364.1 2014.8 353.1 2029.9 364.1 2024.1 346.3 2039.4 335.3 2020.6 335.3" fill="#fff" stroke-width="0"/>
      <polygon points="2060.2 256.8 2041.3 256.8 2035.5 238.8 2029.7 256.8 2010.8 256.8 2026.2 267.8 2020.4 285.6 2035.5 274.6 2050.6 285.6 2044.9 267.8 2060.2 256.8" fill="#fff" stroke-width="0"/>
      <polygon points="1999.7 207.6 2014.8 196.6 2029.9 207.6 2024.1 189.8 2039.4 178.8 2020.6 178.8 2014.8 160.7 2009 178.8 1990.1 178.8 2005.4 189.8 1999.7 207.6" fill="#fff" stroke-width="0"/>
      <polygon points="1957.7 106.6 1951.9 124.7 1933 124.7 1948.3 135.7 1942.6 153.5 1957.7 142.5 1972.8 153.5 1967.1 135.7 1982.4 124.7 1963.5 124.7 1957.7 106.6" fill="#fff" stroke-width="0"/>
    </g>
  </g>
  <g >
    <g >
      <text transform="translate(1705.8 541.7)" fill="#fff" font-family="ArialMT, Arial" font-size="31.6" ><tspan x="0" y="0">UNION EUROPÉENNE</tspan></text>
    </g>
  </g>
  <g >
    <g >
      <text transform="translate(1547.9 578.7)" fill="#fff" font-family="Arial-BoldMT, Arial" font-size="24.5" font-weight="700" ><tspan x="0" y="0">Avec le soutien du Fonds Asile, Migration et Intégration</tspan></text>
    </g>
  </g>
</svg>
