<?xml version="1.0" encoding="UTF-8"?>
<svg id="Calque_1" data-name="Calque 1" xmlns="http://www.w3.org/2000/svg" width="841.9" height="244.9" version="1.1" viewBox="0 0 841.9 244.9">
  <g>
    <path d="M802,180.9c-1.1-1.4-3.2-2.9-6.4-4.6l-.7-.4c-1.7-.9-2.8-1.6-3.4-2.2s-.9-1.3-.9-2.2.3-1.9.9-2.4c.6-.5,1.6-.8,2.8-.8s1.9.2,2.7.6,1.5,1,2.2,1.8l3.2-3.1-.3-.3c-1-1-2.2-1.8-3.5-2.3s-2.8-.8-4.3-.8c-2.6,0-4.6.7-6.1,2s-2.2,3.2-2.2,5.5,0,1.8.4,2.6c.3.8.7,1.5,1.2,2.1.6.7,1.4,1.4,2.3,2,1,.7,2.2,1.4,3.7,2.2l.7.4c1.9,1,3.1,1.9,3.7,2.7.6.8.9,1.7.9,2.7s-.4,2.2-1.2,3-1.9,1.1-3.2,1.1-2.2-.3-3.2-.8-2-1.4-3.2-2.7l-3.2,3.3.3.3c1.4,1.4,2.9,2.5,4.4,3.1s3.1.9,5,.9c2.8,0,5-.7,6.6-2.2s2.4-3.5,2.4-6.1-.6-4-1.7-5.4M765,189.5h-.6c0,0-.3.1-.4.3h0c0-.3.2-.4.2-.6v-7.6c0-.2,0-.3-.2-.5l.2-.2c.2.1.3.2.4.2h10.5v-4.4h-10.5c-.2,0-.3.1-.5.3l-.2-.2c0-.2.2-.4.3-.5v-7c0-.2,0-.3-.2-.5v-.2c.3.1.5.2.7.3h11.8l-.5-4.5h-16.4v29.4h16.4l.5-4.5h-11.3v.2ZM740.8,189.5h-.6c0,0-.3.1-.4.3l-.2-.2c0-.1.2-.3.3-.4v-24.6h-4.8v29.4h14.9l.7-4.5h-9.9ZM716.4,189.5h-.6c0,0-.3.1-.4.3l-.2-.2c0-.1.2-.3.2-.4v-24.6h-4.8v29.4h14.9l.7-4.5h-9.9,0ZM688.9,189.5h-.6c0,0-.3.1-.4.3h0c0-.3.2-.4.2-.6v-7.6c0-.1,0-.3-.2-.5l.2-.2c.2.1.3.2.4.2h10.5v-4.4h-10.5c-.2,0-.3.1-.5.3l-.2-.2c0-.2.2-.4.3-.5v-7c0-.1,0-.3-.2-.5v-.2c.3.1.5.2.7.3s.3,0,.5,0h11.3l-.5-4.5h-16.4v29.4h16.4l.5-4.5h-11.3v.2ZM666.2,179.8c0-.3-.2-.4-.3-.5,0,0-.2-.1-.4-.2v-.2c0,0,.3,0,.4-.2,0,0,.2-.2.3-.5l7.7-13.5h-5.3l-4.4,8.3c-.4.7-.6,1.2-.7,1.6,0,.4-.2,1.1-.3,2h-.2c0-.8-.2-1.5-.3-1.9s-.4-1-.7-1.7l-4.4-8.3h-5.3l7.7,13.5c0,.2.2.4.3.5,0,0,.2.2.4.2v.2c-.2,0-.3.1-.4.2,0,0-.2.2-.3.5l-8,14.3h5.3l4.6-8.9c.4-.8.7-1.4.8-1.8,0-.4.2-1,.2-1.8h.2c0,.8.2,1.5.3,1.9s.4,1,.7,1.7l4.7,8.9h5.3l-8-14.3h.1ZM643.3,164.7h-4.8v17c0,2.8-.6,4.9-1.7,6.3-1.1,1.4-2.8,2.1-5.1,2.1s-4-.7-5.1-2.1-1.7-3.5-1.7-6.3v-17h-4.8v16.5c0,2.4.2,4.4.7,5.9s1.2,2.8,2.2,3.9c1.1,1.2,2.4,2,3.9,2.7s3.1.9,4.8.9,3.3-.3,4.8-.9c1.5-.6,2.8-1.5,3.9-2.7,1-1,1.7-2.3,2.2-3.9.5-1.5.7-3.5.7-5.9v-16.5h0ZM603.9,182.4c-.3-.4-.6-.8-1-1.1s-.9-.7-1.4-1h1.8c1.8,0,3.3-.7,4.6-2.2,1.2-1.4,1.9-3.2,1.9-5.3s-.8-4.7-2.4-6.1c-1.6-1.4-4-2.1-7.1-2.1h-7.8v29.4h4.6v-12.7c0-.5-.2-1.1-.3-1.8h.2c.2.6.5,1.1.7,1.5s.6,1.1,1.2,1.9l7.5,11.2h5.3l-7.8-11.6h0ZM604.3,176.2c-.8.7-1.9,1-3.6,1h-3.4c0,0-.3.1-.4.3l-.2-.2c.2-.2.3-.3.3-.5v-7.2c0-.2,0-.4-.2-.6,0-.1,0-.3-.2-.4l.2-.2c.2.1.3.2.4.3h3.4c1.6,0,2.8.3,3.5,1,.8.7,1.1,1.7,1.1,3.2s-.4,2.5-1.1,3.2M580.8,180.8c-1-1.2-2.3-2-4.1-2.3v-.2c1.4-.4,2.5-1.1,3.2-2.1s1.1-2.2,1.1-3.8c0-2.5-.8-4.4-2.4-5.7-1.6-1.3-4-2-7.1-2h-8.2v29.4h8.8c3.2,0,5.6-.8,7.4-2.4,1.8-1.6,2.7-3.7,2.7-6.3s-.5-3.3-1.5-4.5M575.5,175.7c-.7.7-1.8,1.1-3.1,1.1h-4.4c0,0-.3.1-.4.3l-.2-.2h0c.2-.4.3-.7.3-1v-6.8c0-.1,0-.3-.3-.5l.2-.2c.2.1.3.2.4.3h3.8c1.7,0,2.9.3,3.7.9.7.6,1.1,1.6,1.1,2.9s-.4,2.4-1.1,3.1M576.4,188.6c-.9.8-2.2,1.2-3.9,1.2h-4.5c0,0-.3.1-.4.3l-.2-.2c.2-.2.2-.3.3-.5v-8.6c0-.1,0-.3-.3-.5l.2-.2c.2.1.3.2.4.3h4.3c1,0,1.9,0,2.5.3.6.2,1.2.5,1.7,1,.4.4.7.9.9,1.5.2.5.3,1.1.3,1.7,0,1.5-.5,2.6-1.4,3.5M552.2,181.3h-10.2v4.3h10.2v-4.3ZM521.6,189.5h-.6c0,0-.3.1-.4.3h-.2c0-.3.2-.4.2-.6v-7.6c0-.2,0-.3-.2-.5l.2-.2c.2.1.3.2.4.2h10.5v-4.4h-10.5c-.2,0-.3.1-.5.3l-.2-.2c0-.2.2-.4.3-.5v-7c0-.2,0-.3-.2-.5l.2-.2c.2.1.4.2.5.3h11.8l-.5-4.5h-16.4v29.4h16.4l.5-4.5h-11.3v.2ZM504.1,164.6h-4.8v29.4h4.8v-29.4ZM487.3,164.7h-4.7v18c0,.8,0,1.7.2,2.6.1.9.4,2,.7,3.3h-.2c-.4-1.1-.7-2-1.1-2.8s-.8-1.5-1.3-2.3l-13-18.9h-4.3v29.4h4.7v-18.1c0-.8,0-1.5-.2-2.3-.1-.8-.4-1.9-.7-3.5h.2c.5,1.3.8,2.2,1.1,2.9.3.6.7,1.3,1.3,2.1l12.9,18.9h4.3v-29.4h.1ZM449.3,168.4c-2.8-2.8-6.3-4.2-10.7-4.2s-7.7,1.4-10.5,4.3c-2.7,2.9-4.1,6.5-4.1,10.9s1.4,8.1,4.1,10.9c2.7,2.8,6.3,4.3,10.6,4.3s7.8-1.4,10.6-4.3c2.8-2.8,4.1-6.5,4.1-10.9s-1.4-8.2-4.1-11M445.8,187c-1.8,1.9-4.2,2.9-7.1,2.9s-5.3-1-7.1-2.9c-1.8-1.9-2.7-4.5-2.7-7.7s.9-5.7,2.7-7.7,4.2-2.9,7.1-2.9,5.2,1,7.1,3c1.8,2,2.7,4.5,2.7,7.7s-.9,5.8-2.7,7.7M407.6,189.5h-.6c-.1,0-.3.1-.4.3l-.2-.2c.1-.1.2-.3.3-.4v-24.6h-4.8v29.4h14.9l.7-4.5h-10,.1ZM383.2,189.5h-.6c-.1,0-.3.1-.4.3l-.2-.2c.1-.1.2-.3.3-.4v-24.6h-4.8v29.4h14.9l.7-4.5h-10,.1ZM358.1,164.7h-4.2l-10.7,29.4h4.8l3.1-8.8h9.7l3.1,8.8h4.8l-10.7-29.4h.1ZM359.7,181.1c-.1,0-.3,0-.4-.1h-6.5c-.1,0-.3,0-.5.1v-.2s0-.2.1-.3.1-.2.2-.4l2.8-8c.1-.3.2-.8.3-1.5s.1-1.3.2-2.1h.2c0,.8,0,1.5.1,2.1,0,.6.2,1.1.3,1.5l2.7,8c0,.2.1.3.2.4,0,0,.2.2.3.3v.2h-.1,0ZM333.8,164.7l-5.5,19.3c-.2.8-.4,1.5-.4,2.1s-.1,1.6-.2,3h-.2c-.1-1.4-.3-2.4-.4-3s-.3-1.3-.5-2l-5-14.9-5,14.9c-.2.7-.4,1.3-.5,1.9-.1.6-.2,1.6-.4,3h-.2c0-1.4,0-2.4-.2-3,0-.6-.2-1.3-.5-2.1l-5.5-19.3h-5.1l8.9,29.4h4.4l3.7-11.7c.1-.4.2-.9.3-1.5,0-.7.1-1.5.2-2.4h.2c0,.9,0,1.7.2,2.4,0,.7.2,1.2.3,1.6l3.7,11.7h4.3l8.9-29.4h-5.5Z" fill="#fff" stroke-width="0"/>
    <path d="M802.9,92.1h-8.4v32.8c0,1.5,0,3.1.4,4.7.2,1.6.7,3.6,1.2,5.9h-.4c-.7-2-1.4-3.7-2-5.1s-1.4-2.8-2.3-4.1l-23.5-34.3h-7.8v53.3h8.5v-32.8c0-1.4,0-2.8-.3-4.2-.2-1.4-.6-3.5-1.3-6.4h.4c.8,2.3,1.5,4.1,2.1,5.2.5,1.1,1.3,2.4,2.3,3.9l23.5,34.4h7.8v-53.3h-.2ZM734.4,98.9c-5-5.1-11.5-7.7-19.4-7.7s-14,2.6-19,7.8c-5,5.2-7.4,11.8-7.4,19.8s2.5,14.7,7.5,19.9,11.4,7.8,19.2,7.8,14.2-2.6,19.2-7.8,7.5-11.8,7.5-19.8-2.5-14.8-7.5-20M728.1,132.8c-3.3,3.5-7.6,5.3-12.9,5.3s-9.7-1.8-12.9-5.3c-3.3-3.5-4.9-8.2-4.9-14s1.6-10.4,4.9-14c3.3-3.5,7.6-5.3,13-5.3s9.5,1.8,12.8,5.4,4.9,8.2,4.9,13.9-1.6,10.5-4.9,14M670,92.1h-8.7v53.4h8.7v-53.4ZM644.1,92.1h-31.5l-1.1,8h11c.5,0,.8,0,1.1,0s.5-.2.7-.5l.3.3c-.3.4-.4.7-.5,1,0,.2,0,.5,0,.9v43.8h8.6v-43.8c0-.4,0-.7,0-1,0-.3-.2-.6-.5-.9l.3-.3c.3.2.6.4.8.5.2,0,.6,0,1,0h11.1l-1.2-8h.1ZM585.6,92.1h-7.6l-19.4,53.3h8.8l5.7-16h17.5l5.6,16h8.7l-19.4-53.3h.1ZM588.5,122c-.3,0-.5-.2-.8-.2h-11.8c-.2,0-.5,0-.8.2l-.3-.4c.2-.2.4-.3.5-.5s.2-.4.3-.7l5.1-14.6c.2-.6.4-1.5.5-2.6s.2-2.4.3-3.9h.4c0,1.4,0,2.7.3,3.9,0,1.1.3,2,.5,2.6l5,14.6c0,.3.2.5.3.7s.3.3.6.5l-.2.4h.1ZM531.3,124.3c-.5-.7-1.1-1.4-1.8-2s-1.6-1.2-2.5-1.8l.2-.3c.6.2,1.2.3,1.8.4.5,0,1,0,1.5,0,3.3,0,6.1-1.3,8.4-3.9,2.3-2.6,3.4-5.8,3.4-9.6s-1.5-8.6-4.4-11.1-7.3-3.8-13-3.8h-14.1v53.3h8.4v-18.8c0-2,0-3.5-.2-4.4,0-.9-.3-2-.6-3.3h.4c.4,1,.9,2,1.3,2.8.4.8,1.2,1.9,2.2,3.4l13.7,20.3h9.5l-14.1-21.1h0v-.2ZM532,113c-1.4,1.2-3.5,1.9-6.5,1.9h-5.2c-.5,0-.8,0-1.1,0s-.5.2-.8.5l-.3-.3c.3-.3.5-.6.6-.9s.2-.6.2-.9v-12.2c0-.4-.2-.8-.3-1.1,0-.3-.3-.5-.5-.8l.3-.3c.3.2.6.4.8.5.2,0,.6,0,1,0h5.2c2.9,0,5,.6,6.4,1.9,1.4,1.2,2.1,3.2,2.1,5.8s-.7,4.6-2.1,5.8M473.6,75.7l-3.7,10.3h6.5l6.9-10.3h-9.7,0ZM471.6,137.2c-.5,0-.8,0-1.1.1-.2,0-.5.2-.8.5l-.2-.3c.2-.3.3-.5.4-.8,0-.3.1-.6.1-1.1v-11.8c0-.4,0-.7-.1-1s-.2-.6-.4-.8l.3-.3c.3.2.5.4.7.4s.6,0,1.1,0h18v-8.1h-18c-.4,0-.8,0-1,0-.2,0-.5.2-.8.5l-.3-.3c.2-.4.4-.7.5-.9,0-.2.1-.5.1-.9v-10.9c0-.4,0-.7-.1-1,0-.3-.2-.6-.4-.9l.2-.3c.4.2.7.4,1,.5.3,0,.6,0,.9,0h20.6l-.9-8.2h-29.8v53.3h29.7l1-8.2h-20.6v.2ZM435.8,99.7c-5.3-5-12-7.5-20.2-7.5h-14.3v53.3h14c8.4,0,15.3-2.5,20.6-7.5,5.3-5,7.9-11.4,7.9-19.1s-2.7-14.1-8-19.2M429.7,132.2c-3.7,3.5-8.3,5.2-13.9,5.2h-4.2c-.5,0-.9,0-1.1.1-.2,0-.5.2-.7.5l-.3-.3c.3-.3.4-.5.5-.7,0-.2.1-.6.1-1.1v-34.2c0-.4,0-.7-.1-.9s-.3-.5-.5-.9l.3-.3c.3.2.6.4.8.5.2,0,.6,0,1,0h4.6c5.5,0,10,1.8,13.6,5.3s5.4,8,5.4,13.4-1.8,9.9-5.5,13.4M364.2,75.7l-3.7,10.3h6.5l6.9-10.3h-9.7,0ZM362.2,137.2c-.5,0-.8,0-1.1.1-.2,0-.5.2-.8.5l-.3-.3c.2-.3.3-.5.4-.8,0-.3.1-.6.1-1.1v-11.8c0-.4,0-.7-.1-1s-.2-.6-.4-.8l.3-.3c.3.2.5.4.7.4s.6,0,1.1,0h18v-8.1h-18c-.4,0-.8,0-1,0s-.5.2-.8.5l-.3-.3c.2-.4.4-.7.5-.9,0-.2.1-.5.1-.9v-10.9c0-.4,0-.7-.1-1,0-.3-.2-.6-.4-.9l.3-.3c.4.2.7.4,1,.5.3,0,.6,0,.9,0h20.6l-.9-8.2h-29.8v53.3h29.7l1-8.2h-20.6v.2ZM334.7,92.1h-30v53.3h8.8v-21.5c0-.4,0-.8-.1-1s-.2-.5-.5-.8l.3-.3c.3.2.6.4.8.5.2,0,.6,0,1,0h17.8v-8.1h-18c-.5,0-.9,0-1.1,0s-.4.2-.7.4l-.3-.3c.3-.4.5-.7.6-.9s.1-.5.1-.9v-10.8c0-.5-.2-.9-.3-1.1,0-.2-.3-.5-.5-.7l.3-.3c.3.2.6.4.8.5.2,0,.6,0,1,0h21.2l-1.4-8.3h.2Z" fill="#fff" stroke-width="0"/>
  </g>
  <path d="M68.9,38.7c-5.7,0-9.7,3.2-9.9,5.3-.2,2.4,1.3,4.7,3.4,6.3,15.2,11.7-28.6,34.5-23.2,81,3.8,32.8,42.2,77.6,50.1,77.6s.6,0,.8-.2c6.1-3.9-18-46.9-23.5-61.1-12.2-31.9,6.2-52.2,13.4-64.1,9.5-15.6,11.8-30.4,4.4-37.5-5.6-5.4-11-7.3-15.4-7.3" fill="#e11f21" stroke-width="0"/>
  <path d="M177.4,51.7h-1.6c-55.8,2.5-64,70-64.1,94.5,0,2.1.2,12.8-2.3,12.8s-1.1-.4-1.9-1.5c-2.9-4.1-11.2-16-13.7-19.2-.7-.9-1.7-1.4-2.6-1.4-2,0-3.8,2-3,6.1.4,2.1,6,25.1,13.9,34.6,2.3,2.8,7.6,6.6,13,6.6s10.8-3.7,13.8-15.6c5.3-18.5-1-92.2,62.6-100.6,5-.7,7-6.6,4-10-2.1-2.4-8.5-6.4-18.2-6.4" fill="#fbba00" stroke-width="0"/>
  <path d="M211.5,117.7c-2-.6-2.1-1.8-.6-4,2.5-3.7,12.9-26.3.1-38.1-1-1-2.4-2-3.8-2.7-2.3-1.1-5.3,0-5.3,4,.3,28.6-13.9,34.1-33.9,34.3h-2.4v13.1l17.7,1.2h.3c19.1,1.5,30.6,14,30.6,28.3s-14.5,28.4-30.6,28.4-10.8-1.1-15.2-3.8c-.8-.5-2-1.3-2.8-2v28.1c6.1,2.9,13,4.6,21.9,4.6,25.7,0,57.8-18.7,57.8-51.3s-14.3-33.9-33.8-39.9" fill="#001d77" stroke-width="0"/>
</svg>