<?xml version="1.0" encoding="UTF-8"?>
<svg id="Calque_1" data-name="Calque 1" xmlns="http://www.w3.org/2000/svg" width="504.4" height="174.8" version="1.1" viewBox="0 0 504.4 174.8">
  <path d="M280.7,64.5h15.2c0-.2,0-.3,0-.5,0-32.9-27-59.5-60.3-59.5s-37.6,9.6-48.6,24.4c3.3,5.5,5.9,11.5,7.5,17.8,6.9-15.9,22.8-27.2,41.4-27.2s44.9,19.8,44.9,44.3,0,.5,0,.7h0Z" fill="#fff" stroke-width="0"/>
  <rect x="280.4" y="96.4" width="15.5" height="30" fill="#e5c066" stroke-width="0"/>
  <path d="M25.8,112.3c-.2,0-.5,0-.7,0v15.2c.2,0,.3,0,.5,0,19.9,0,37.4-9.9,48.2-25.1-3.3-5.1-5.9-10.6-7.7-16.5-7,15.6-22.4,26.4-40.3,26.4h0Z" fill="#fff" stroke-width="0"/>
  <path d="M25.6,6.9v15.6c17.8,0,33.4,10.8,40.5,26.4,1.8-6,4.4-11.7,7.8-16.9C63,16.8,45.5,6.9,25.6,6.9Z" fill="#fff" stroke-width="0"/>
  <rect x="3.3" y="5.3" width="15.5" height="165" fill="#fff" stroke-width="0"/>
  <path d="M69.9,69c.8,8.8,3.5,17,7.7,24.3,10.4,18,29.9,30.1,52.4,30.1h0v-14.5h-.1c-24.5,0-44.4-19.4-44.8-43.4,0-.3,0-.6,0-.9,0-.5,0-1.1,0-1.6.1-4.1.8-8,2-11.8,5.4-18.4,22.6-31.9,43.1-31.9s44.9,19.8,44.9,44.3v.7h14.9c0-10-2.6-19.5-7.2-27.7-10.2-18.6-30.2-31.3-53.2-31.3s-41.5,11.8-52,29.4c-2.3,3.8-4.2,7.9-5.6,12.2-.3.9-.6,1.9-.8,2.9-.7,3-1.2,6.1-1.4,9.3" fill="#fff" stroke-width="0"/>
  <rect x="175" y="96.4" width="15.5" height="30" fill="#e5c066" stroke-width="0"/>
  <g>
    <path d="M308.3,8.4c1.6-.3,3.6-.5,6.2-.5s5.6.7,7,2.1c1.4,1.2,2.2,3,2.2,5.3s-.7,4.1-1.9,5.4c-1.7,1.8-4.5,2.8-7.7,2.8s-1.9,0-2.6-.2v10.1h-3.2V8.4h0ZM311.5,20.5c.7.2,1.6.3,2.7.3,3.9,0,6.3-1.9,6.3-5.4s-2.3-4.9-5.9-4.9-2.5.1-3.1.3v9.8h0Z" fill="#fff" stroke-width="0"/>
    <path d="M343.4,24.1c0,6.7-4.6,9.6-9,9.6s-8.7-3.6-8.7-9.3,4-9.6,9-9.6,8.7,3.8,8.7,9.3ZM329.1,24.2c0,4,2.3,6.9,5.5,6.9s5.5-2.9,5.5-7-1.5-6.9-5.4-6.9-5.6,3.6-5.6,7h0ZM335.7,7.4l3.6,5.3h-2.5l-2.2-3.5h0l-2.2,3.5h-2.4l3.5-5.3h2.3Z" fill="#fff" stroke-width="0"/>
    <path d="M347.6,6.7h3.3v26.5h-3.3V6.7Z" fill="#fff" stroke-width="0"/>
    <path d="M358.2,24.8c0,4.4,2.9,6.3,6.2,6.3s3.8-.4,5-.9l.6,2.3c-1.2.5-3.1,1.1-6,1.1-5.6,0-8.9-3.7-8.9-9.1s3.2-9.7,8.5-9.7,7.5,5.2,7.5,8.5,0,1.2-.1,1.5c0,0-12.7,0-12.7,0ZM367.8,22.4c0-2.1-.9-5.3-4.5-5.3s-4.8,3.1-5,5.3h9.6Z" fill="#fff" stroke-width="0"/>
    <path d="M312.3,70.1l-2.6,7.9h-3.4l8.5-25.2h3.9l8.6,25.2h-3.5l-2.7-7.9h-8.9ZM320.6,67.6l-2.5-7.2c-.6-1.6-.9-3.1-1.3-4.6h0c-.4,1.5-.8,3-1.3,4.5l-2.5,7.3h7.6,0Z" fill="#fff" stroke-width="0"/>
    <path d="M343.4,77.4c-.9.4-2.8,1-5.2,1-5.4,0-9-3.7-9-9.2s3.8-9.6,9.7-9.6,3.7.5,4.5.9l-.7,2.5c-.8-.4-2-.9-3.8-.9-4.1,0-6.4,3.1-6.4,6.8s2.7,6.8,6.3,6.8,3.1-.5,4-.9l.6,2.5h0Z" fill="#fff" stroke-width="0"/>
    <path d="M357.3,78l-.3-2.3h-.1c-1,1.4-2.9,2.7-5.5,2.7-3.7,0-5.5-2.6-5.5-5.2,0-4.4,3.9-6.8,10.9-6.7v-.4c0-1.5-.4-4.2-4.1-4.2s-3.4.5-4.7,1.3l-.7-2.2c1.5-1,3.7-1.6,5.9-1.6,5.5,0,6.9,3.8,6.9,7.4v6.8c0,1.6,0,3.1.3,4.3h-3ZM356.8,68.8c-3.6,0-7.6.6-7.6,4.1s1.4,3.1,3.1,3.1,3.8-1.5,4.4-3c.1-.3.2-.7.2-1v-3.1h0Z" fill="#fff" stroke-width="0"/>
    <path d="M380.9,51.5v21.8c0,1.6,0,3.4.1,4.7h-2.9v-3.1h-.2c-1,2-3.2,3.5-6.2,3.5-4.4,0-7.7-3.7-7.7-9.2,0-6,3.7-9.7,8.1-9.7s4.6,1.3,5.4,2.8h0v-10.8h3.3ZM377.6,67.3c0-.4,0-1-.1-1.4-.5-2.1-2.3-3.8-4.7-3.8s-5.4,3-5.4,7,1.8,6.7,5.3,6.7,4.2-1.5,4.8-3.9c.1-.4.1-.9.1-1.4v-3.1h0Z" fill="#fff" stroke-width="0"/>
    <path d="M388.1,69.6c0,4.4,2.9,6.3,6.2,6.3s3.8-.4,5-.9l.6,2.3c-1.2.5-3.1,1.1-6,1.1-5.6,0-8.9-3.7-8.9-9.1s3.2-9.7,8.5-9.7,7.5,5.2,7.5,8.5,0,1.2-.1,1.5h-12.7ZM397.8,67.2c0-2.1-.9-5.3-4.5-5.3s-4.8,3.1-5,5.3h9.6ZM398.5,52.2l-4.5,5.3h-2.3l3.3-5.3h3.6,0Z" fill="#fff" stroke-width="0"/>
    <path d="M405,64.8c0-1.9,0-3.4-.1-4.9h2.9v2.9h.3c1-1.7,2.7-3.3,5.7-3.3s4.3,1.5,5.1,3.6h0c.6-1,1.3-1.8,2-2.3,1.1-.8,2.3-1.3,4-1.3s5.9,1.6,5.9,7.8v10.6h-3.2v-10.2c0-3.5-1.3-5.6-3.9-5.6s-3.3,1.4-3.9,3c-.1.4-.3,1-.3,1.6v11.2h-3.2v-10.8c0-2.9-1.3-5-3.8-5s-3.5,1.6-4.1,3.3c-.2.5-.3,1-.3,1.6v10.9h-3.2v-13.2h0Z" fill="#fff" stroke-width="0"/>
    <path d="M439.8,54.9c0,1.1-.8,2-2.1,2s-2-.9-2-2,.9-2,2-2,2,.9,2,2h0ZM436.1,78v-18.1h3.3v18.1h-3.3Z" fill="#fff" stroke-width="0"/>
    <path d="M457.2,75.2h0c-1,1.8-3,3.2-5.9,3.2-4.2,0-7.6-3.7-7.6-9.1s4.4-9.7,8.2-9.7,4.7,1.4,5.6,3.1h0v-2.7h3.2c0,1.5-.1,3.1-.1,5v20.5h-3.3v-10.2h0ZM457.2,67.3c0-.4,0-1-.1-1.4-.5-2-2.2-3.7-4.7-3.7s-5.4,2.9-5.4,6.9,1.7,6.7,5.3,6.7,4-1.3,4.7-3.6c.1-.4.3-1.1.3-1.6v-3.4Z" fill="#fff" stroke-width="0"/>
    <path d="M481,73.1c0,1.9,0,3.5.1,4.9h-2.9l-.2-2.9h0c-.9,1.5-2.8,3.4-6,3.4s-6.2-1.6-6.2-7.9v-10.6h3.3v10c0,3.4,1,5.7,4,5.7s3.7-1.5,4.3-3c.2-.5.3-1.1.3-1.7v-11.1h3.3v13.1h0Z" fill="#fff" stroke-width="0"/>
    <path d="M488.3,69.6c0,4.4,2.9,6.3,6.2,6.3s3.8-.4,5-.9l.6,2.3c-1.2.5-3.1,1.1-6,1.1-5.6,0-8.9-3.7-8.9-9.1s3.2-9.7,8.5-9.7,7.5,5.2,7.5,8.5,0,1.2-.1,1.5h-12.7ZM497.9,67.2c0-2.1-.9-5.3-4.5-5.3s-4.8,3.1-5,5.3h9.6Z" fill="#fff" stroke-width="0"/>
    <path d="M323.7,96.3v21.8c0,1.6,0,3.4.1,4.7h-2.9v-3.1h-.2c-1,2-3.2,3.5-6.2,3.5-4.4,0-7.7-3.7-7.7-9.2,0-6,3.7-9.7,8.1-9.7s4.6,1.3,5.4,2.8h0v-10.8h3.3ZM320.5,112.1c0-.4,0-1-.1-1.4-.5-2.1-2.3-3.8-4.7-3.8s-5.4,3-5.4,7,1.8,6.7,5.3,6.7,4.2-1.5,4.8-3.9c.1-.4.1-.9.1-1.4v-3.1h0Z" fill="#fff" stroke-width="0"/>
    <path d="M331,114.4c0,4.4,2.9,6.3,6.2,6.3s3.8-.4,5-.9l.6,2.3c-1.2.5-3.1,1.1-6,1.1-5.6,0-8.9-3.7-8.9-9.1s3.2-9.7,8.5-9.7,7.5,5.2,7.5,8.5,0,1.2-.1,1.5h-12.7ZM340.7,112c0-2.1-.9-5.3-4.5-5.3s-4.8,3.1-5,5.3h9.6Z" fill="#fff" stroke-width="0"/>
    <path d="M355.9,122.8v-25.2h3.5l8.1,12.7c1.9,2.9,3.3,5.6,4.5,8.2h0c-.3-3.4-.4-6.5-.4-10.4v-10.5h3.1v25.2h-3.3l-8-12.8c-1.7-2.8-3.4-5.7-4.7-8.4h-.1c.2,3.2.3,6.2.3,10.4v10.7h-3.1Z" fill="#fff" stroke-width="0"/>
    <path d="M390.4,122.8l-.3-2.3h-.1c-1,1.4-2.9,2.7-5.5,2.7-3.7,0-5.5-2.6-5.5-5.2,0-4.4,3.9-6.8,10.9-6.7v-.4c0-1.5-.4-4.2-4.1-4.2s-3.4.5-4.7,1.3l-.7-2.2c1.5-1,3.7-1.6,5.9-1.6,5.5,0,6.9,3.8,6.9,7.4v6.8c0,1.6,0,3.1.3,4.3h-3ZM389.9,113.6c-3.6,0-7.6.6-7.6,4.1s1.4,3.1,3.1,3.1,3.8-1.5,4.4-3c.1-.3.2-.7.2-1v-3.1h0Z" fill="#fff" stroke-width="0"/>
    <path d="M398.4,109.6c0-1.9,0-3.4-.1-4.9h2.9v2.9h.3c1-1.7,2.7-3.3,5.7-3.3s4.3,1.5,5.1,3.6h0c.6-1,1.3-1.8,2-2.3,1.1-.8,2.3-1.3,4-1.3s5.9,1.6,5.9,7.8v10.6h-3.2v-10.2c0-3.5-1.3-5.6-3.9-5.6s-3.3,1.4-3.9,3c-.1.4-.3,1-.3,1.6v11.2h-3.2v-10.8c0-2.9-1.3-5-3.8-5s-3.5,1.6-4.1,3.3c-.2.5-.3,1-.3,1.6v10.9h-3.2v-13.2h0Z" fill="#fff" stroke-width="0"/>
    <path d="M444.6,117.9c0,1.9,0,3.5.1,4.9h-2.9l-.2-2.9h0c-.9,1.5-2.8,3.4-6,3.4s-6.2-1.6-6.2-7.9v-10.6h3.3v10c0,3.4,1,5.7,4,5.7s3.7-1.5,4.3-3c.2-.5.3-1.1.3-1.7v-11.1h3.3v13.1h0Z" fill="#fff" stroke-width="0"/>
    <path d="M450,110.4c0-2.1,0-4-.1-5.6h2.9v3.5h.3c.8-2.4,2.8-4,5-4s.6,0,.9.1v3.1c-.3,0-.7-.1-1.1-.1-2.3,0-4,1.7-4.4,4.2,0,.4-.1,1-.1,1.5v9.6h-3.2v-12.4h0Z" fill="#fff" stroke-width="0"/>
  </g>
</svg>