<?xml version="1.0" encoding="UTF-8"?>
<svg id="Calque_1" data-name="Calque 1" xmlns="http://www.w3.org/2000/svg" width="113.1" height="101.8" version="1.1" viewBox="0 0 113.1 101.8">
  <defs>
    <style>
      .cls-1 {
        fill: #fbba00;
      }

      .cls-1, .cls-2, .cls-3, .cls-4, .cls-5 {
        stroke-width: 0px;
      }

      .cls-2 {
        fill: #001d77;
      }

      .cls-3 {
        fill: #e11f21;
      }

      .cls-4 {
        fill-rule: evenodd;
      }

      .cls-4, .cls-5 {
        fill: #fff;
      }
    </style>
  </defs>
  <path class="cls-1" d="M48.1,53.1c-4-3-3.6-13.4,1.2-19.8,4.8-6.4,11-8.2,15-5.2,4,3,.6,10.1-4.2,16.5s-7.9,11.5-12,8.5"/>
  <path class="cls-2" d="M77.9,55.4c9.4-10.9,0-16.5-2.8-9.5-4.8,12.2-19.5,15.4-28.9,14.2-1.3-.2-2.3.8-1.4,1.6,7.2,4.2,19.6,7.4,33.2-6.3"/>
  <path class="cls-3" d="M37.4,54.5c-5.9-11.2-10.9-29.7,6.7-47.7,15.4-14.8,24.5-1.3,14.3,3.4-7.6,3.5-12.6,9.6-15.6,16.5-4.1,9.4-4.5,20.3-2.9,28.2.4,2-1.3,1.8-2.4-.4"/>
  <g>
    <path class="cls-5" d="M2.2,92.1h4.5l-.2-1.7H.3v11.1h6.1l.2-1.7H2.1s-.1,0-.2,0h0c0,0,0-.2.1-.2v-2.9s0,0-.1-.2h4.2v-1.7H2.1s-.1,0-.2,0h0c0,0,.1-.2.1-.3v-2.6s0,0-.1-.2h.2"/>
    <path class="cls-5" d="M15.9,97.3v1c0,.4.1.8.2,1.2h0c-.1-.4-.3-.8-.4-1.1s-.3-.6-.5-.9l-4.9-7.1h-1.6v11.1h1.8v-7.7c0-.3-.1-.8-.3-1.3h0c.2.5.4.9.4,1.1.1.2.3.5.5.8l4.9,7.1h1.6v-11.1h-1.8v6.8h0Z"/>
    <path class="cls-5" d="M23.4,94.8l-.3-.2c-.6-.4-1.1-.6-1.3-.8s-.4-.5-.4-.8.1-.7.4-.9.6-.3,1.1-.3.7,0,1.1.2c.3,0,.6.4.8.7l1.2-1.2h-.1c-.4-.5-.8-.8-1.3-1s-1.1-.3-1.6-.3c-1,0-1.8.2-2.3.8-.6.5-.8,1.2-.8,2s0,.7.1,1,.2.6.5.8.5.5.9.8c.4.2.8.5,1.4.8h.3c.7.5,1.2.8,1.4,1.1s.4.6.4,1-.2.8-.5,1.1-.7.4-1.2.4-.8,0-1.2-.3-.8-.5-1.2-1l-1.2,1.2h.1c.5.6,1.1,1.1,1.6,1.3s1.2.4,1.9.4c1.1,0,1.9-.3,2.5-.8s.9-1.3.9-2.3-.2-1.5-.6-2-1.2-1.1-2.4-1.8"/>
    <path class="cls-5" d="M30.3,92.1h4.5l-.2-1.7h-6.2v11.1h6.1l.2-1.7h-4.5s-.1,0-.2,0h0c0,0,0-.2.1-.2v-2.9s0,0-.1-.2h4.2v-1.7h-4s-.1,0-.2,0h0c0,0,.1-.2.1-.2v-2.6s0,0-.1-.2h.2"/>
    <polygon class="cls-4" points="38.7 90.4 36.9 90.4 36.9 101.5 38.7 101.5 38.7 90.4 38.7 90.4"/>
    <path class="cls-5" d="M47,96.7h2.6s0,0,.2,0h0c0,0,0,.2,0,.2v1.8c-.2.4-.6.8-1.2,1.1s-1.2.4-1.9.4c-1.2,0-2.2-.4-2.9-1.2-.8-.8-1.2-1.8-1.2-3s.4-2.1,1.2-2.9,1.8-1.1,2.9-1.1,1.3,0,1.9.4,1.1.7,1.5,1.2l1.3-1.1c-.6-.7-1.2-1.3-2-1.6s-1.6-.6-2.6-.6c-1.6,0-3,.5-4.2,1.6-1.1,1.1-1.7,2.5-1.7,4.1s.6,3.1,1.7,4.2c1.1,1.1,2.5,1.6,4.2,1.6s2-.3,3-.8c.9-.5,1.5-1.1,1.8-1.8v-4.1h-3.9l-.4,1.6h-.2Z"/>
    <path class="cls-5" d="M60.8,97.3v1c0,.4,0,.8.2,1.2h0c0-.4-.3-.8-.4-1.1s-.3-.6-.5-.9l-4.9-7.1h-1.6v11.1h1.8v-7.7c0-.3,0-.8-.3-1.3h0c.2.5.4.9.4,1.1s.3.5.5.8l4.9,7.1h1.6v-11.1h-1.8v6.8h0Z"/>
    <path class="cls-5" d="M67,92.1h4.5l-.2-1.7h-6.2v11.1h6.1l.2-1.7h-4.5s0,0-.2,0h0c0,0,0-.2,0-.2v-2.9s0,0,0-.2h4.2v-1.7h-4s0,0-.2,0h0c0,0,0-.2,0-.2s0,0,0-.2v-2.4s0,0,0-.2h.2"/>
    <path class="cls-5" d="M79.4,96.1c-.2.3-.3.5-.4.6,0,.2,0,.4,0,.7h0c0-.3,0-.5,0-.7,0-.2-.2-.4-.4-.6l-3.3-5.6h-1.6v11.1h1.7v-7.7c0-.3,0-.8-.3-1.3h0c.2.5.3.9.4,1.2s.3.6.4.9l3.1,5.3,3.1-5.3c.2-.4.5-1.1.9-2h0c0,0,0,.3,0,.5-.2.8-.3,1.3-.3,1.8v6.8h1.8v-11.1h-1.6l-3.3,5.6h0v-.2Z"/>
    <path class="cls-5" d="M88.8,92.1h4.5l-.2-1.7h-6.2v11.1h6.1l.2-1.7h-4.5s0,0-.2,0h0c0,0,0-.2,0-.2v-2.9s0,0,0-.2h4.2v-1.7h-4s0,0-.2,0h0c0,0,0-.2,0-.2s0,0,0-.2v-2.4s0,0,0-.2h.2"/>
    <path class="cls-5" d="M102.5,97.3v1c0,.4,0,.8.2,1.2h0c0-.4-.3-.8-.4-1.1s-.3-.6-.5-.9l-4.9-7.1h-1.6v11.1h1.8v-7.7c0-.3,0-.8-.3-1.3h0c.2.5.4.9.4,1.1s.3.5.5.8l4.9,7.1h1.6v-11.1h-1.8v6.8h.1Z"/>
    <path class="cls-5" d="M105.9,90.5l-.2,1.6h2.5s0,0,.2,0h0v.2c0,0,0,0,0,.2v9.1h1.8v-9.3s0,0,0-.2h2.8l-.2-1.6h-6.7Z"/>
    <path class="cls-5" d="M100.9,86h-2.5v-5.6h-1.1v6.6h3.3l.2-1h0Z"/>
    <polygon class="cls-4" points="44.3 80.4 45.3 80.4 45.3 87 44.3 87 44.3 80.4 44.3 80.4"/>
    <path class="cls-5" d="M66.3,84.7v-.9h0c0,0,0,.2.2.4s0,.2.3.4l1.7,2.5h1.2l-1.8-2.6s0-.2-.2-.2c0,0-.2-.2-.3-.2h.4c.4,0,.8-.2,1.1-.5.3-.4.4-.7.4-1.2s-.2-1.1-.5-1.4c-.4-.3-.9-.5-1.6-.5h-1.8v6.6h1.1v-2.3h-.2ZM66.2,81.4h0c0,0,.9,0,.9,0,.4,0,.6,0,.8.2.2.2.2.4.2.7s0,.6-.2.7c-.2.2-.5.2-.8.2h-.9v-1.7h0"/>
    <path class="cls-5" d="M110.7,86.2c-.2,0-.5,0-.7-.2s-.5-.3-.7-.6l-.7.8h0c.4.4.6.6,1,.8s.7.2,1.1.2c.6,0,1.1-.2,1.5-.5.4-.4.5-.8.5-1.3s0-.9-.4-1.2c-.2-.3-.7-.6-1.5-1.1h-.2c-.4-.3-.6-.5-.8-.6s-.2-.3-.2-.5,0-.4.2-.5c0,0,.4-.2.6-.2s.4,0,.6,0c.2,0,.4.2.5.4l.7-.7h0c-.2-.3-.5-.5-.8-.6s-.6-.2-1-.2c-.6,0-1.1.2-1.3.5-.4.3-.5.7-.5,1.2v.6c0,.2,0,.4.3.5,0,.2.3.3.5.5s.5.3.8.5h.2c.4.3.7.5.8.7,0,.2.2.4.2.6s0,.5-.3.6-.4.2-.7.2"/>
    <polygon class="cls-4" points="53.9 84.2 56.1 84.2 56.1 85.1 53.9 85.1 53.9 84.2 53.9 84.2"/>
    <path class="cls-5" d="M106.6,86h-2.8v-1.7h0v-.2h2.5v-1h-2.4v-.2h0v-1.5h0v-.2h2.8v-1h-3.8v6.6h3.7v-1h0v.2Z"/>
    <path class="cls-5" d="M80.5,83.7h0c0,0-1.8,3.3-1.8,3.3h1.2l1.1-2c0-.2.2-.3.2-.4v-.4h0v.4c0,0,0,.2.2.4l1.1,2h1.2l-1.8-3.2h0v-.3l1.8-3h-1.2l-1,1.9c0,0,0,.3-.2.4v.5h0v-.4c0,0,0-.2-.2-.4l-1-1.9h-1.2l1.7,3h0"/>
    <path class="cls-5" d="M41.5,80.4h-1.1v4.6c0,.2,0,.5.2.8h0c0-.2-.2-.5-.2-.6s-.2-.4-.3-.5l-2.9-4.3h-1v6.6h1.1v-4.6c0-.2,0-.5-.2-.8h0c0,.3.2.5.2.6s.2.3.3.5l2.9,4.3h1v-6.6h0Z"/>
    <path class="cls-5" d="M25.8,86h-2.5v-5.6h-1.1v6.6h3.3l.2-1h.1Z"/>
    <path class="cls-5" d="M75.1,87c.4,0,.6-.4.9-.6s.4-.5.5-.9.2-.8.2-1.3v-3.7h-1.1v3.8c0,.6,0,1.1-.4,1.4s-.6.5-1.2.5-.9-.2-1.2-.5-.4-.8-.4-1.4v-3.8h-1.1v3.7c0,.5,0,1,.2,1.3,0,.4.3.6.5.9s.5.5.9.6.7.2,1.1.2.8,0,1.1-.2"/>
    <path class="cls-5" d="M33,86.2c.6-.6.9-1.5.9-2.5s-.3-1.8-.9-2.5-1.4-.9-2.4-.9-1.8.3-2.3.9c-.6.6-.9,1.5-.9,2.5s.3,1.8.9,2.5c.6.6,1.4.9,2.4.9s1.8-.3,2.4-.9M28.4,83.7c0-.7.2-1.3.6-1.8s.9-.6,1.6-.6,1.2.2,1.6.6c.4.5.6,1,.6,1.8s-.2,1.3-.6,1.8c-.4.5-.9.6-1.6.6s-1.2-.2-1.6-.6c-.4-.5-.6-1-.6-1.8"/>
    <path class="cls-5" d="M61.7,83.5h0c.4-.2.6-.3.7-.5.2-.2.2-.5.2-.9,0-.6-.2-1-.5-1.3-.4-.3-.9-.5-1.6-.5h-1.8v6.6h2c.7,0,1.3-.2,1.7-.5.4-.4.6-.8.6-1.4s0-.8-.4-1c-.2-.3-.5-.5-.9-.5M59.7,81.4h0c0,0,.9,0,.9,0,.4,0,.6,0,.8.2s.2.4.2.6,0,.5-.2.7-.4.2-.7.2h-1.1v-1.7h0M61.6,85.8c-.2.2-.5.3-.9.3h-1.1c0,0,0,0,0,0h0v-1.8h0v-.2h1.7c.2,0,.3,0,.4.2,0,0,.2.2.2.4v.4c0,.4,0,.6-.3.8"/>
    <path class="cls-5" d="M20.3,86h-2.5v-5.6h-1.1v6.6h3.3l.2-1h.1Z"/>
    <path class="cls-5" d="M49.2,81.4h2.7v-1h-3.8v6.6h3.7v-1c0,0-2.5,0-2.5,0h-.2v-1.7h0v-.2h2.5v-1h-2.4v-.2h0v-1.5h0v-.2h0"/>
    <path class="cls-5" d="M89.5,86h-2.8v-1.7h0v-.2h2.5v-1h-2.4v-.2h0v-1.5h0v-.2h2.8v-1h-3.8v6.6h3.7v-1h0v.2Z"/>
    <path class="cls-5" d="M10.9,85h2.2l.7,2h1.1l-2.4-6.6h-.9l-2.4,6.6h1.1l.7-2h-.1ZM11.2,84h0l.6-1.9v-.9h0v.9l.6,1.8h0c0,0-1.7,0-1.7,0h0"/>
    <path class="cls-5" d="M93.1,86h-.2v-5.6h-1.1v6.6h3.3l.2-1h-2.2Z"/>
    <path class="cls-5" d="M5.7,84.7c0,.2,0,.4,0,.5v.6h0v-.7c0,0,0-.3,0-.5l-1.1-3.3-1.1,3.3c0,.2,0,.3,0,.5v.7h0v-.6c0,0,0-.3,0-.5l-1.2-4.3H.5l2,6.6h1l.8-2.6v-.9h0v.9l.8,2.6h1l2-6.6h-1.2l-1.2,4.3h0,0Z"/>
  </g>
</svg>