<?xml version="1.0" encoding="UTF-8"?>
<svg id="Calque_1" data-name="Calque 1" xmlns="http://www.w3.org/2000/svg" width="265.4" height="65.5" version="1.1" viewBox="0 0 265.4 65.5">
  <path d="M16.5,53.1c-4-3-3.6-13.4,1.2-19.8,4.8-6.4,11-8.2,15-5.2,4,3,.6,10.1-4.2,16.5-4.8,6.4-7.9,11.5-12,8.5" fill="#fbba00" stroke-width="0"/>
  <path d="M46.3,55.4c9.4-10.9,0-16.5-2.8-9.5-4.8,12.2-19.5,15.4-28.9,14.2-1.3-.2-2.3.8-1.4,1.6,7.2,4.2,19.6,7.4,33.2-6.3" fill="#001d77" stroke-width="0"/>
  <path d="M5.8,54.5C-.1,43.3-5.1,24.8,12.5,6.8c15.4-14.8,24.5-1.3,14.3,3.4-7.6,3.5-12.6,9.6-15.6,16.5-4.1,9.4-4.5,20.3-2.9,28.2.4,2-1.3,1.8-2.4-.4" fill="#e11f21" stroke-width="0"/>
  <path d="M76.6,43.8c0,0,.2,0,.3,0h7.3l-.3-2.9h-10.6v18.9h10.5l.3-2.9h-7.3c-.2,0-.3,0-.4,0,0,0-.2,0-.3.2h0c0-.2.1-.3.2-.4,0,0,0-.2,0-.4v-4.2c0-.1,0-.2,0-.3,0,0,0-.2-.2-.3h0c0,0,.2,0,.3,0,0,0,.2,0,.4,0h6.4v-2.9h-6.4c-.2,0-.3,0-.4,0,0,0-.2,0-.3.2h-.1c0-.2.2-.4.2-.5s0-.2,0-.3v-3.8c0-.1,0-.2,0-.3,0,0,0-.2-.2-.3h0c.1,0,.2,0,.3,0" fill="#fff" stroke-width="0"/>
  <path d="M99.9,52.6c0,.5,0,1.1.1,1.7,0,.6.2,1.3.4,2.1h-.1c-.2-.7-.5-1.3-.7-1.8-.2-.5-.5-1-.8-1.5l-8.3-12.2h-2.8v18.9h3v-11.6c0-.5,0-1-.1-1.5,0-.5-.2-1.3-.5-2.3h.1c.3.8.6,1.5.7,1.9.2.4.5.9.8,1.4l8.3,12.2h2.8v-18.9h-3v11.6h0Z" fill="#fff" stroke-width="0"/>
  <path d="M112.8,48.4l-.5-.3c-1.1-.6-1.8-1-2.2-1.4s-.6-.8-.6-1.4.2-1.2.6-1.6,1-.5,1.8-.5,1.2.1,1.8.4c.5.2,1,.6,1.4,1.2l2.1-2-.2-.2c-.7-.7-1.4-1.2-2.3-1.5-.9-.3-1.8-.5-2.8-.5-1.7,0-3,.4-3.9,1.3-1,.9-1.4,2-1.4,3.5s0,1.2.2,1.7c.2.5.4,1,.8,1.4.4.4.9.9,1.5,1.3.6.4,1.4.9,2.4,1.4l.5.2c1.2.6,2,1.2,2.4,1.7.4.5.6,1.1.6,1.7s-.3,1.4-.8,1.9c-.5.5-1.2.7-2.1.7s-1.4-.2-2-.5-1.3-.9-2.1-1.7l-2.1,2.1.2.2c.9.9,1.9,1.6,2.8,2,.9.4,2,.6,3.2.6,1.8,0,3.2-.5,4.2-1.4s1.6-2.3,1.6-3.9-.4-2.6-1.1-3.5-2.1-1.9-4.1-3" fill="#fff" stroke-width="0"/>
  <path d="M124.5,43.8c0,0,.2,0,.3,0h7.3l-.3-2.9h-10.6v18.9h10.5l.3-2.9h-7.3c-.2,0-.3,0-.4,0s-.2,0-.3.2h0c0-.2.1-.3.2-.4,0,0,0-.2,0-.4v-4.2c0-.1,0-.2,0-.3,0,0,0-.2-.2-.3h.1c0,0,.2,0,.3,0,0,0,.2,0,.4,0h6.4v-2.9h-6.4c-.2,0-.3,0-.4,0,0,0-.2,0-.3.2h-.1c0-.2.2-.4.2-.4s0-.2,0-.3v-3.8c0-.1,0-.2,0-.3,0,0,0-.2-.2-.3h0c.1,0,.2,0,.3,0" fill="#fff" stroke-width="0"/>
  <polygon points="138.9 40.9 135.8 40.9 135.8 59.8 138.9 59.8 138.9 40.9 138.9 40.9" fill="#fff" fill-rule="evenodd" stroke-width="0"/>
  <path d="M153.1,51.6h4c.1,0,.3,0,.4,0,0,0,.2,0,.3-.2h.1c0,.2-.1.4-.2.4,0,0,0,.2,0,.3v2.8c-.4.7-1.1,1.3-2.1,1.8-1,.5-2.1.7-3.2.7-2,0-3.7-.7-5-2.1-1.3-1.4-2-3.1-2-5.1s.6-3.6,2-4.9c1.3-1.3,3-1.9,5-1.9s2.3.2,3.3.7c1,.5,1.8,1.2,2.5,2.1l2.2-1.9c-1-1.2-2.1-2.2-3.5-2.8-1.4-.6-2.8-1-4.5-1-2.8,0-5.2.9-7.1,2.8-1.9,1.8-2.9,4.2-2.9,7s1,5.3,2.9,7.1c1.9,1.9,4.3,2.8,7.2,2.8s3.5-.5,5.1-1.4c1.5-.9,2.6-1.9,3-3v-7h-6.7l-.7,2.7h0Z" fill="#fff" stroke-width="0"/>
  <path d="M176.6,52.6c0,.5,0,1.1.1,1.7,0,.6.2,1.3.4,2.1h-.1c-.2-.7-.5-1.3-.7-1.8-.2-.5-.5-1-.8-1.5l-8.4-12.2h-2.8v18.9h3v-11.6c0-.5,0-1-.1-1.5s-.2-1.3-.5-2.3h.1c.3.8.6,1.5.7,1.9s.5.9.8,1.4l8.3,12.2h2.8v-18.9h-3v11.6h0Z" fill="#fff" stroke-width="0"/>
  <path d="M187.2,43.8c0,0,.2,0,.3,0h7.3l-.3-2.9h-10.6v18.9h10.5l.4-2.9h-7.3c-.2,0-.3,0-.4,0s-.2,0-.3.2h0c0-.2.1-.3.2-.4,0,0,0-.2,0-.4v-4.2c0-.1,0-.2,0-.3,0,0,0-.2-.2-.3h.1c0,0,.2,0,.3,0s.2,0,.4,0h6.4v-2.9h-6.4c-.2,0-.3,0-.4,0,0,0-.2,0-.3.2h-.1c0-.2.1-.4.2-.4s0-.2,0-.3v-3.8c0-.1,0-.2,0-.3,0,0,0-.2-.2-.3h0c.1,0,.2,0,.3,0" fill="#fff" stroke-width="0"/>
  <path d="M208.4,50.6c-.3.5-.5.8-.6,1.1,0,.3-.2.7-.2,1.2h-.1c0-.5-.1-.9-.2-1.2,0-.3-.3-.6-.6-1.1l-5.6-9.6h-2.8v18.9h2.9v-11.6c0-.5,0-1-.1-1.6,0-.5-.2-1.3-.5-2.2h.1c.3.8.5,1.5.7,2,.2.5.5,1,.7,1.5l5.3,9.1,5.3-9.1c.4-.7.9-1.9,1.5-3.5h0s.1,0,.1,0c0,.2-.1.5-.2.8-.3,1.4-.5,2.3-.5,3v11.6h3v-18.9h-2.8l-5.6,9.6h0Z" fill="#fff" stroke-width="0"/>
  <path d="M224.4,43.8c0,0,.2,0,.3,0h7.3l-.3-2.9h-10.6v18.9h10.5l.3-2.9h-7.3c-.2,0-.3,0-.4,0s-.2,0-.3.2h0c0-.2.1-.3.2-.4,0,0,0-.2,0-.4v-4.2c0-.1,0-.2,0-.3,0,0,0-.2-.2-.3h.1c.1,0,.2,0,.3,0,0,0,.2,0,.4,0h6.4v-2.9h-6.4c-.2,0-.3,0-.4,0,0,0-.2,0-.3.2h-.1c0-.2.1-.4.2-.4s0-.2,0-.3v-3.8c0-.1,0-.2,0-.3,0,0,0-.2-.2-.3h0c.1,0,.2,0,.3,0" fill="#fff" stroke-width="0"/>
  <path d="M247.8,52.6c0,.5,0,1.1.1,1.7,0,.6.2,1.3.4,2.1h-.1c-.2-.7-.5-1.3-.7-1.8-.2-.5-.5-1-.8-1.5l-8.4-12.2h-2.8v18.9h3v-11.6c0-.5,0-1-.1-1.5,0-.5-.2-1.3-.5-2.3h.1c.3.8.6,1.5.7,1.9s.5.9.8,1.4l8.3,12.2h2.8v-18.9h-3v11.6h0Z" fill="#fff" stroke-width="0"/>
  <path d="M253.7,41l-.4,2.8h3.9c.2,0,.3,0,.4,0,0,0,.2,0,.3-.2h.1c-.1.2-.2.4-.2.4,0,0,0,.2,0,.3v15.5h3.1v-15.5c0-.1,0-.3,0-.3s0-.2-.2-.3h.1c.1,0,.2,0,.3,0,0,0,.2,0,.4,0h3.9l-.4-2.8h-11.2,0Z" fill="#fff" stroke-width="0"/>
  <path d="M245.1,33.3h-3.8c-.1,0-.2,0-.2,0,0,0-.1,0-.2,0h0c0-.1,0-.2.1-.2,0,0,0-.1,0-.2v-9.2h-1.9v11.3h5.7l.3-1.7h0Z" fill="#fff" stroke-width="0"/>
  <polygon points="148.4 23.8 150.2 23.8 150.2 35.1 148.4 35.1 148.4 23.8 148.4 23.8" fill="#fff" fill-rule="evenodd" stroke-width="0"/>
  <path d="M186,31.1c0-.4,0-.7,0-.9,0-.2,0-.4-.1-.7h0c0,.2.2.4.3.6.1.2.2.4.5.7l2.9,4.3h2l-3-4.5c-.1-.1-.2-.3-.4-.4-.1-.1-.3-.3-.5-.4h0c.1,0,.3,0,.4,0,.1,0,.2,0,.3,0,.7,0,1.3-.3,1.8-.8.5-.6.7-1.2.7-2s-.3-1.8-.9-2.4c-.6-.5-1.5-.8-2.7-.8h-3v11.3h1.8v-4h0ZM185.9,25.5s0-.1-.1-.2h0c0,0,.1,0,.2,0,0,0,.1,0,.2,0h1.1c.6,0,1.1.1,1.4.4.3.3.4.7.4,1.2s-.1,1-.4,1.2c-.3.3-.8.4-1.4.4h-1.1c-.1,0-.2,0-.2,0,0,0-.1,0-.2.1h0c0-.1.1-.2.1-.2,0,0,0-.1,0-.2v-2.6c0-.1,0-.2,0-.2" fill="#fff" stroke-width="0"/>
  <path d="M261.9,33.7c-.4,0-.9,0-1.2-.3s-.8-.5-1.2-1l-1.2,1.3h.1c.6.7,1.1,1.1,1.7,1.3s1.2.4,1.9.4c1.1,0,1.9-.3,2.5-.8.6-.6.9-1.3.9-2.3s-.2-1.5-.6-2.1c-.4-.5-1.2-1.1-2.5-1.8h-.3c-.6-.5-1.1-.8-1.3-1s-.3-.5-.3-.9.1-.7.4-.9c.2-.2.6-.3,1.1-.3s.7,0,1,.2c.3.1.6.4.9.7l1.2-1.2h-.1c-.4-.5-.8-.8-1.4-1s-1.1-.3-1.7-.3c-1,0-1.8.3-2.3.8-.6.5-.9,1.2-.9,2.1s0,.7.1,1c.1.3.2.6.5.8.2.3.5.5.9.8.4.3.9.5,1.4.9h.3c.7.5,1.2.9,1.4,1.2.2.3.3.6.3,1s-.1.9-.5,1.1-.7.4-1.2.4" fill="#fff" stroke-width="0"/>
  <polygon points="164.8 30.2 168.7 30.2 168.7 31.9 164.8 31.9 164.8 30.2 164.8 30.2" fill="#fff" fill-rule="evenodd" stroke-width="0"/>
  <path d="M254.9,33.3h-4.4c-.1,0-.2,0-.2,0,0,0-.1,0-.2,0h0c0-.1,0-.2,0-.2,0,0,0-.1,0-.2v-2.5c0,0,0-.1,0-.2,0,0,0-.1,0-.2h0c0,0,.1,0,.2,0s.1,0,.2,0h3.8v-1.7h-3.8c0,0-.2,0-.2,0,0,0-.1,0-.2.1h0c0-.1,0-.2.1-.3,0,0,0-.1,0-.2v-2.3c0,0,0-.1,0-.2,0,0,0-.1,0-.2h0c0,0,.1,0,.2,0,0,0,.1,0,.2,0h4.4l-.2-1.7h-6.3v11.3h6.3l.2-1.7h0Z" fill="#fff" stroke-width="0"/>
  <path d="M210.2,29.4s0,.1-.1.2l-3.1,5.5h2.1l1.8-3.4c.2-.3.3-.5.3-.7,0-.2,0-.4,0-.7h0c0,.3,0,.6.1.7,0,.2.1.4.3.6l1.8,3.4h2.1l-3.1-5.5c0-.1-.1-.2-.1-.2,0,0,0,0-.1,0h0c0,0,.1-.1.1-.1,0,0,0,0,.1-.2l3-5.2h-2l-1.7,3.2c-.1.2-.2.5-.3.6,0,.2,0,.4-.1.8h0c0-.3,0-.6-.1-.7,0-.2-.1-.4-.3-.6l-1.7-3.2h-2l2.9,5.2c0,0,0,.1.1.2,0,0,0,0,.1,0h0c0,0-.1.1-.1.1" fill="#fff" stroke-width="0"/>
  <path d="M143.7,23.8h-1.8v6.9c0,.3,0,.7,0,1,0,.3.1.8.3,1.3h0c-.1-.4-.3-.8-.4-1.1s-.3-.6-.5-.9l-5-7.3h-1.7v11.3h1.8v-7c0-.3,0-.6,0-.9,0-.3-.1-.8-.3-1.4h0c.2.5.3.9.4,1.1.1.2.3.5.5.8l5,7.3h1.7v-11.3h0Z" fill="#fff" stroke-width="0"/>
  <path d="M116.9,33.3h-3.8c0,0-.2,0-.2,0,0,0,0,0-.2,0h0c0-.1,0-.2,0-.2,0,0,0-.1,0-.2v-9.2h-1.9v11.3h5.7l.3-1.7h0Z" fill="#fff" stroke-width="0"/>
  <path d="M201.1,35c.6-.2,1.1-.6,1.5-1,.4-.4.7-.9.9-1.5.2-.6.3-1.4.3-2.3v-6.4h-1.9v6.5c0,1.1-.2,1.9-.6,2.4s-1.1.8-2,.8-1.5-.3-2-.8-.6-1.3-.6-2.4v-6.5h-1.9v6.4c0,.9,0,1.7.3,2.3.2.6.5,1.1.9,1.5.4.4.9.8,1.5,1,.6.2,1.2.4,1.8.4s1.3-.1,1.8-.4" fill="#fff" stroke-width="0"/>
  <path d="M129.1,33.7c1.1-1.1,1.6-2.5,1.6-4.2s-.5-3.1-1.6-4.2-2.4-1.6-4.1-1.6-3,.5-4,1.6c-1.1,1.1-1.6,2.5-1.6,4.2s.5,3.1,1.6,4.2c1.1,1.1,2.4,1.6,4.1,1.6s3-.5,4.1-1.6M121.3,29.4c0-1.2.3-2.2,1.1-3,.7-.8,1.6-1.1,2.7-1.1s2,.4,2.7,1.1c.7.8,1.1,1.7,1.1,3s-.4,2.2-1,3c-.7.8-1.6,1.1-2.7,1.1s-2.1-.4-2.7-1.1c-.7-.8-1-1.7-1-3" fill="#fff" stroke-width="0"/>
  <path d="M178.1,29.1h0c.6-.3,1-.5,1.2-.9.3-.4.4-.9.4-1.5,0-1-.3-1.7-.9-2.2-.6-.5-1.5-.8-2.7-.8h-3.1v11.3h3.4c1.2,0,2.2-.3,2.9-.9.7-.6,1-1.4,1-2.4s-.2-1.3-.6-1.7c-.4-.5-.9-.8-1.6-.9M174.7,25.5s0-.1-.1-.2h0c0,0,.1,0,.2,0,0,0,.1,0,.2,0h1.2c.6,0,1.1.1,1.4.4s.4.6.4,1.1-.1.9-.4,1.2-.7.4-1.2.4h-1.5c-.1,0-.2,0-.2,0,0,0-.1,0-.2.1h0c0,0,0,0,0-.1,0-.1.1-.2.1-.4v-2.4c0,0,0-.1,0-.2M178,33c-.4.3-.9.5-1.5.5h-1.5c-.1,0-.2,0-.2,0,0,0-.1,0-.2.1h0c0-.2,0-.2.1-.2,0,0,0-.1,0-.2v-2.9c0,0,0-.1,0-.2,0,0,0-.1-.1-.2h0c0,0,.1,0,.2,0,0,0,.1,0,.2,0h1.4c.4,0,.7,0,1,.1s.5.2.6.4c.1.2.3.4.4.6,0,.2.1.4.1.7,0,.6-.2,1-.5,1.3" fill="#fff" stroke-width="0"/>
  <path d="M107.5,33.3h-3.8c0,0-.2,0-.2,0,0,0-.1,0-.2,0h0c0-.1,0-.2,0-.2,0,0,0-.1,0-.2v-9.2h-1.9v11.3h5.7l.3-1.7h0Z" fill="#fff" stroke-width="0"/>
  <path d="M156.8,25.5c0,0,.1,0,.2,0h4.4l-.2-1.7h-6.3v11.3h6.3l.2-1.7h-4.4c-.1,0-.2,0-.2,0,0,0-.1,0-.2,0h0c0-.1,0-.2.1-.2,0,0,0-.1,0-.2v-2.5c0,0,0-.1,0-.2,0,0,0-.1-.1-.2h0c0,0,.1,0,.2,0s.1,0,.2,0h3.8v-1.7h-3.8c-.1,0-.2,0-.2,0,0,0-.1,0-.2.1h0c0-.1,0-.2.1-.3,0,0,0-.1,0-.2v-2.3c0,0,0-.1,0-.2,0,0,0-.1-.1-.2h0c0,0,.1,0,.2,0" fill="#fff" stroke-width="0"/>
  <path d="M225.6,33.3h-4.4c-.1,0-.2,0-.2,0,0,0-.1,0-.2,0h0c0-.1,0-.2,0-.2,0,0,0-.1,0-.2v-2.5c0,0,0-.1,0-.2s0-.1,0-.2h0c0,0,.1,0,.2,0s.1,0,.2,0h3.8v-1.7h-3.8c-.1,0-.2,0-.2,0,0,0-.1,0-.2.1h0c0-.1,0-.2.1-.3,0,0,0-.1,0-.2v-2.3c0,0,0-.1,0-.2s0-.1,0-.2h0c0,0,.1,0,.2,0,0,0,.1,0,.2,0h4.4l-.2-1.7h-6.3v11.3h6.3l.2-1.7h0Z" fill="#fff" stroke-width="0"/>
  <path d="M91.4,31.7h3.7l1.2,3.4h1.8l-4.1-11.3h-1.6l-4.1,11.3h1.9l1.2-3.4h0ZM91.9,29.9s0,0,0-.1l1.1-3.1c0-.1,0-.3.1-.6,0-.2,0-.5,0-.8h0c0,.3,0,.6,0,.8s0,.4.1.6l1.1,3.1c0,0,0,.1,0,.1,0,0,0,0,.1.1h0c0,0-.1,0-.2,0,0,0-.1,0-.2,0h-2.1c0,0-.1,0-.2,0,0,0-.1,0-.2,0h0c0,0,0-.1.1-.2" fill="#fff" stroke-width="0"/>
  <path d="M231.8,33.3c-.1,0-.2,0-.2,0,0,0-.1,0-.2,0h0c0-.1,0-.2.1-.2,0,0,0-.1,0-.2v-9.2h-1.9v11.3h5.7l.3-1.7h-3.8Z" fill="#fff" stroke-width="0"/>
  <path d="M82.6,31.2c0,.3-.1.6-.2.8,0,.2,0,.6,0,1.1h0c0-.5,0-.9-.1-1.2,0-.2-.1-.5-.2-.8l-1.9-5.7-1.9,5.7c0,.3-.2.5-.2.8,0,.2,0,.6-.1,1.2h0c0-.5,0-.9,0-1.1s0-.5-.2-.8l-2.1-7.4h-2l3.4,11.3h1.7l1.4-4.5c0-.1,0-.3.1-.6,0-.2,0-.6,0-.9h0c0,.4,0,.7,0,.9s0,.5.1.6l1.4,4.5h1.7l3.4-11.3h-2l-2.1,7.4h0Z" fill="#fff" stroke-width="0"/>
</svg>